<?xml version="1.0" encoding="utf-8" ?>
<svg baseProfile="full" height="2160" version="1.1" width="3840" xmlns="http://www.w3.org/2000/svg" xmlns:ev="http://www.w3.org/2001/xml-events" xmlns:xlink="http://www.w3.org/1999/xlink"><defs /><rect fill="#0a0a0a" height="100%" width="100%" x="0" y="0" /><ellipse cx="2606" cy="-149" fill="#c5e8d1" opacity="0.6324069324357918" rx="183" ry="131" transform="rotate(201,2606,-149)" /><ellipse cx="326" cy="2143" fill="#b8e1d4" opacity="0.48771592542024156" rx="227" ry="114" transform="rotate(293,326,2143)" /><circle cx="4303" cy="275" fill="#c5e8d1" opacity="0.4714144577854158" r="196" /><rect fill="#a8e6cf" height="85" opacity="0.3259051736963412" rx="49" ry="49" transform="rotate(153,3919,1503)" width="121" x="3859" y="1461" /><circle cx="2020" cy="1979" fill="#a8e6cf" opacity="0.4072280403714138" r="67" /><ellipse cx="-30" cy="300" fill="#c8e6e0" opacity="0.5104999493620459" rx="208" ry="186" transform="rotate(131,-30,300)" /><polygon fill="#e0f7e8" opacity="0.2990974780590375" points="949.8872528878511,2213.0 933.9402321836992,2294.3028670612466 858.7064178609862,2262.005921792895 803.788480727592,2213.0 840.2824106465798,2132.0827616327374 923.4024463782188,2149.9491133531233" /><rect fill="#c8e6e0" height="111" opacity="0.45214471822977365" rx="30" ry="30" transform="rotate(95,-759,485)" width="174" x="-846" y="430" /><circle cx="2775" cy="541" fill="#b8e1d4" opacity="0.47914162269298166" r="50" /><ellipse cx="2773" cy="-207" fill="#c8e6e0" opacity="0.25796876805584257" rx="157" ry="87" transform="rotate(246,2773,-207)" /><rect fill="#a8e6cf" height="122" opacity="0.5620280389878606" rx="60" ry="60" transform="rotate(186,1853,-142)" width="207" x="1750" y="-203" /><ellipse cx="2814" cy="865" fill="#c5e8d1" opacity="0.12794836598477793" rx="226" ry="75" transform="rotate(15,2814,865)" /><ellipse cx="731" cy="2314" fill="#a8e6cf" opacity="0.5414724118458517" rx="184" ry="140" transform="rotate(216,731,2314)" /><circle cx="4595" cy="2142" fill="#c8e6e0" opacity="0.16054903598524284" r="149" /><ellipse cx="2138" cy="1971" fill="#a8e6cf" opacity="0.6492797640138303" rx="236" ry="121" transform="rotate(57,2138,1971)" /><rect fill="#e0f7e8" height="169" opacity="0.32071816597381486" rx="49" ry="49" transform="rotate(125,1547,730)" width="227" x="1434" y="646" /><ellipse cx="2895" cy="-496" fill="#a8e6cf" opacity="0.282987517909844" rx="203" ry="184" transform="rotate(115,2895,-496)" /><ellipse cx="-164" cy="2549" fill="#b8e1d4" opacity="0.6160029047839256" rx="209" ry="228" transform="rotate(4,-164,2549)" /><polygon fill="#c8e6e0" opacity="0.33253274080892525" points="3778.742326036825,2671.0 3480.433511453816,2983.52000922607 3161.158639799975,2911.480290058415 2948.872196754675,2671.0 3120.4063840304793,2359.934732425778 3425.00412128632,2454.486510776592" /><ellipse cx="657" cy="402" fill="#b8e1d4" opacity="0.11173213643711723" rx="435" ry="192" transform="rotate(49,657,402)" /><polygon fill="#d4f1f9" opacity="0.602378271308842" points="581.906214168815,1439.0 553.9044018041645,1650.3728906458077 348.34362219782145,1701.8277420257364 155.19274389056125,1693.2776265013244 106.95502872315456,1509.9905638880782 -48.72408385491252,1311.3468730365282 107.12332064200774,1101.4636901416488 345.7112232476653,1191.1013342822641 475.9989551242103,1292.997540930043" /><ellipse cx="423" cy="-258" fill="#c5e8d1" opacity="0.10191595062453923" rx="193" ry="78" transform="rotate(325,423,-258)" /><polygon fill="#d4f1f9" opacity="0.48282364512614073" points="1084.9103690497532,1167.0 1003.2859256699219,1255.1193830476952 946.7605453540317,1366.3124642945947 812.2469633441669,1381.6777725836394 735.6195677962785,1273.3516092638092 677.6998838191934,1167.0 735.0096639621227,1060.2052696626831 827.1074371246278,998.0580629251095 931.9925802323241,1013.138658838063 1014.8269916433576,1070.495541704088" /><circle cx="1590" cy="698" fill="#c8e6e0" opacity="0.28919735077515335" r="226" /><rect fill="#e0f7e8" height="177" opacity="0.5811789126482878" rx="35" ry="35" transform="rotate(100,561,808)" width="329" x="397" y="720" /><rect fill="#c8e6e0" height="162" opacity="0.1785453664217059" rx="42" ry="42" transform="rotate(218,2449,490)" width="245" x="2327" y="409" /><rect fill="#e0f7e8" height="174" opacity="0.381881804627084" rx="80" ry="80" transform="rotate(14,1482,130)" width="394" x="1285" y="43" /><polygon fill="#c8e6e0" opacity="0.5130505544048738" points="159.84630129484196,1855.0 13.18877294100497,2024.188772941005 -155.99999999999997,2129.3958834545574 -368.99058392796474,2067.990583927965 -588.7120479714337,1855.0 -380.9018232938307,1630.0981767061694 -156.00000000000009,1452.1468669716005 31.803041742484226,1667.1969582575157" /><circle cx="1353" cy="1945" fill="#a8e6cf" opacity="0.6089013279863986" r="210" /><circle cx="3448" cy="905" fill="#b2dfdb" opacity="0.6090165751356394" r="226" /><circle cx="2519" cy="1901" fill="#b2dfdb" opacity="0.1168522353310013" r="199" /><polygon fill="#a8e6cf" opacity="0.46666009651487717" points="4032.8503495301834,687.0 4076.6028581630435,798.776662276314 3994.082940782134,879.4012972888208 3883.0,903.8967443629831 3808.5851036199874,815.8903813701555 3708.7066370895404,787.628319994319 3747.8118267180394,687.0 3771.6735774907525,622.7256599963679 3810.0122310239967,560.5814758024628 3883.0,472.3416650659669 3978.70156822598,521.2400214685838 4048.2578200110197,591.588353130947" /><rect fill="#e0f7e8" height="173" opacity="0.49377033078461763" rx="39" ry="39" transform="rotate(297,-733,-144)" width="260" x="-863" y="-230" /><rect fill="#c5e8d1" height="170" opacity="0.35701464389367354" rx="64" ry="64" transform="rotate(234,-698,652)" width="359" x="-877" y="567" /><polygon fill="#a8e6cf" opacity="0.1097561081324273" points="-22.821867446079295,2610.0 -47.31241622637774,2662.6875837736225 -99.99999999999999,2751.1335770534342 -150.2358596038526,2660.2358596038525 -179.3647770803239,2610.0 -186.29186919843244,2523.7081308015677 -100.00000000000001,2494.9629561438765 -44.87035274459231,2554.8703527445923" /><polygon fill="#e0f7e8" opacity="0.45295076128752865" points="4542.9364545965955,-483.0 4349.780080080004,-342.21579668597366 4232.0432533151725,-199.1906072791399 4017.6127471607992,-198.27292596583328 3923.212905978415,-388.809200763894 3929.7691232200755,-574.8045313107588 4087.6024602164243,-646.5013350146573 4236.5378431938625,-792.2994785865133 4433.960798300859,-694.4202129253844" /><circle cx="3563" cy="1491" fill="#c8e6e0" opacity="0.5727143748153044" r="240" /><polygon fill="#c8e6e0" opacity="0.23522520393725121" points="-371.5301968657776,606.0 -482.2827705575533,899.9588643141421 -815.2440770874506,888.747035550155 -1088.786121456311,606.0 -800.7342828604858,348.3846652583181 -518.080593823282,374.0447843824712" /><rect fill="#b2dfdb" height="159" opacity="0.23067614769240644" rx="54" ry="54" transform="rotate(260,4178,2378)" width="247" x="4055" y="2299" /><circle cx="1515" cy="1807" fill="#e0f7e8" opacity="0.5858781261577704" r="219" /><circle cx="2134" cy="-51" fill="#a8e6cf" opacity="0.3159267125943124" r="125" /><ellipse cx="637" cy="2379" fill="#b2dfdb" opacity="0.27147270665635115" rx="230" ry="83" transform="rotate(45,637,2379)" /><rect fill="#c8e6e0" height="129" opacity="0.6327744912014244" rx="47" ry="47" transform="rotate(311,110,348)" width="196" x="12" y="284" /><ellipse cx="2752" cy="1485" fill="#c5e8d1" opacity="0.4456483793334173" rx="111" ry="56" transform="rotate(236,2752,1485)" /><circle cx="1269" cy="2355" fill="#a8e6cf" opacity="0.4929699099263498" r="189" /><circle cx="4682" cy="1756" fill="#c8e6e0" opacity="0.23005301314801344" r="122" /><rect fill="#b8e1d4" height="121" opacity="0.4377539794234514" rx="80" ry="80" transform="rotate(0,-548,734)" width="198" x="-647" y="674" /><ellipse cx="-614" cy="2436" fill="#b2dfdb" opacity="0.11436123464399785" rx="212" ry="119" transform="rotate(51,-614,2436)" /><rect fill="#c8e6e0" height="79" opacity="0.18350006447059386" rx="37" ry="37" transform="rotate(87,4721,2177)" width="139" x="4652" y="2138" /><ellipse cx="2760" cy="351" fill="#b8e1d4" opacity="0.5905163935857644" rx="222" ry="88" transform="rotate(236,2760,351)" /><ellipse cx="1378" cy="-129" fill="#a8e6cf" opacity="0.4979235100636864" rx="312" ry="112" transform="rotate(328,1378,-129)" /><circle cx="4128" cy="328" fill="#e0f7e8" opacity="0.5572300098973568" r="105" /><rect fill="#b2dfdb" height="112" opacity="0.3625625162594761" rx="27" ry="27" transform="rotate(128,4008,1272)" width="228" x="3894" y="1216" /><polygon fill="#a8e6cf" opacity="0.6393505426351787" points="2870.5662648113566,2666.0 2807.19746380757,2862.3099484153886 2596.0327843677887,2847.6842286023593 2480.0502691501606,2841.273249083112 2264.415574498702,2864.044177598602 2258.899136236689,2666.0 2359.4505808541353,2537.00279616788 2448.5616555586093,2393.814763257698 2604.6301749457707,2457.8557239531197 2821.8129401901697,2459.0712864255943" /><rect fill="#b2dfdb" height="133" opacity="0.5865280794154775" rx="61" ry="61" transform="rotate(360,2555,1340)" width="219" x="2446" y="1274" /><ellipse cx="180" cy="886" fill="#c8e6e0" opacity="0.6411106448324315" rx="185" ry="107" transform="rotate(176,180,886)" /><ellipse cx="394" cy="144" fill="#c8e6e0" opacity="0.3706590002841976" rx="81" ry="115" transform="rotate(153,394,144)" /><circle cx="1721" cy="1137" fill="#a8e6cf" opacity="0.12486669982053877" r="156" /><polygon fill="#b8e1d4" opacity="0.5208385690356329" points="3109.114628116119,2652.0 3058.8206781777067,2769.8206781777067 2941.0,2821.2735002307936 2814.5552534382196,2778.4447465617804 2746.2626355429375,2652.0 2792.4488921842562,2503.4488921842567 2941.0,2417.929507846066 3075.9112219911694,2517.0887780088306" /><polygon fill="#b2dfdb" opacity="0.4265750057070681" points="3336.9812737349325,505.0 3421.362639782666,706.5157534819384 3202.125910799041,683.8931587495259 3080.062713392717,701.7787344028909 2947.847314257842,647.5132681741486 2944.4740629131534,505.0 2868.9771660170663,305.1842149388409 3088.535857463243,334.2989216110809 3205.466312324084,315.82614246929427 3326.719558514429,372.2464700409031" /><ellipse cx="3209" cy="1093" fill="#b8e1d4" opacity="0.23827012642896458" rx="132" ry="97" transform="rotate(248,3209,1093)" /><rect fill="#c8e6e0" height="161" opacity="0.23998448363261285" rx="28" ry="28" transform="rotate(285,637,1225)" width="383" x="446" y="1145" /><rect fill="#a8e6cf" height="50" opacity="0.18603469160946248" rx="78" ry="78" transform="rotate(216,1966,1591)" width="70" x="1931" y="1566" /><ellipse cx="3439" cy="1722" fill="#b8e1d4" opacity="0.2974002714060768" rx="414" ry="130" transform="rotate(138,3439,1722)" /><polygon fill="#d4f1f9" opacity="0.18379656608509087" points="3804.0754825776994,898.0 3731.287047169424,1045.3538377859434 3657.3465645583324,1238.1615277925057 3453.335054467776,1236.4721308066516 3293.001630165075,1139.1969764806142 3243.4612863278408,973.9138157843528 3110.912509547091,783.1663517462454 3219.3446014571778,571.7982809708067 3458.199983960001,593.3641970356804 3686.3890843868408,494.24422444349005 3832.162435042223,685.8174868714889" /><circle cx="4171" cy="1950" fill="#c8e6e0" opacity="0.3139546888630591" r="201" /><polygon fill="#a8e6cf" opacity="0.11879271261563207" points="-618.6708751982445,103.0 -640.1630413753439,140.8122173233341 -672.2404517880134,161.5952372278472 -708.652217873383,170.13264989582123 -746.8720929968749,158.24734043507118 -763.9877903807951,122.08213697332661 -775.3141941241952,80.59213081789483 -745.2506506313166,49.62390380678172 -705.1960170640328,59.90575474313657 -669.9366756131203,39.3601966076442 -636.7454621518477,62.99143787334351" /><rect fill="#e0f7e8" height="154" opacity="0.5871712269369858" rx="69" ry="69" transform="rotate(331,986,-456)" width="354" x="809" y="-533" /><circle cx="954" cy="2197" fill="#c8e6e0" opacity="0.6081824713093682" r="212" /><circle cx="1955" cy="1042" fill="#c8e6e0" opacity="0.13849770859816152" r="153" /><circle cx="474" cy="-316" fill="#e0f7e8" opacity="0.2906898957843895" r="103" /><polygon fill="#e0f7e8" opacity="0.6092046763756719" points="1601.4082888413775,220.0 1541.4150510191175,329.83809032968406 1395.7932026790988,362.386349687318 1318.5346172478016,220.00000000000003 1421.1910765686794,121.60405829366269 1560.7095828726767,76.74280019169521" /><circle cx="2605" cy="666" fill="#b2dfdb" opacity="0.17887738914227422" r="57" /><circle cx="1839" cy="-135" fill="#d4f1f9" opacity="0.10576000319637562" r="200" /><polygon fill="#b2dfdb" opacity="0.36890677999239885" points="2784.27114937205,1194.0 2787.0421789411503,1300.1058538833145 2672.4385772687056,1290.7579916921065 2607.7683457183184,1296.2765152958316 2543.7634854857315,1264.6464630696264 2480.748981350699,1194.0 2495.1525282034036,1088.0356091377105 2610.4522906688876,1099.9838178932205 2687.516152559499,1050.8380030548979 2724.59451498872,1133.2650297527132" /><rect fill="#e0f7e8" height="159" opacity="0.24179273362606749" rx="64" ry="64" transform="rotate(258,-729,2691)" width="282" x="-870" y="2612" /><circle cx="3078" cy="1578" fill="#b8e1d4" opacity="0.2158119786590616" r="140" /><circle cx="-379" cy="1263" fill="#e0f7e8" opacity="0.1947439251849561" r="140" /><polygon fill="#c5e8d1" opacity="0.13702978067743782" points="-123.36756807689525,-293.0 -252.6697073237189,-103.63437827830566 -448.3487164142465,-143.4396360021683 -548.616304824842,-293.0 -488.12686026617246,-511.45813018015065 -283.4582564706225,-429.038290307926" /><ellipse cx="1101" cy="290" fill="#e0f7e8" opacity="0.4394127171138261" rx="122" ry="177" transform="rotate(202,1101,290)" /><circle cx="3305" cy="1696" fill="#b8e1d4" opacity="0.49975108465937135" r="152" /><circle cx="3328" cy="296" fill="#c8e6e0" opacity="0.5667618738654985" r="208" /><rect fill="#e0f7e8" height="55" opacity="0.16925474227474846" rx="59" ry="59" transform="rotate(40,3915,96)" width="90" x="3870" y="69" /><rect fill="#a8e6cf" height="40" opacity="0.5712047537810001" rx="75" ry="75" transform="rotate(29,4514,269)" width="60" x="4484" y="249" /><circle cx="4700" cy="1565" fill="#b8e1d4" opacity="0.49258654656017264" r="231" /><ellipse cx="3572" cy="-220" fill="#a8e6cf" opacity="0.1934614545519537" rx="71" ry="42" transform="rotate(43,3572,-220)" /><circle cx="3517" cy="1574" fill="#b8e1d4" opacity="0.42239397006451906" r="149" /><circle cx="4111" cy="649" fill="#c8e6e0" opacity="0.41348022462891687" r="215" /><rect fill="#c5e8d1" height="173" opacity="0.11426383897018981" rx="24" ry="24" transform="rotate(42,2102,-90)" width="224" x="1990" y="-176" /><circle cx="4625" cy="-339" fill="#e0f7e8" opacity="0.44596019921367824" r="134" /><rect fill="#a8e6cf" height="51" opacity="0.1734076800183695" rx="36" ry="36" transform="rotate(334,2461,2184)" width="122" x="2400" y="2159" /><rect fill="#b2dfdb" height="95" opacity="0.1974298991198835" rx="55" ry="55" transform="rotate(40,57,-87)" width="159" x="-22" y="-134" /><rect fill="#e0f7e8" height="201" opacity="0.5151147246782241" rx="63" ry="63" transform="rotate(32,953,1957)" width="412" x="747" y="1857" /><rect fill="#b2dfdb" height="39" opacity="0.43302751184699173" rx="30" ry="30" transform="rotate(124,3359,1364)" width="56" x="3331" y="1345" /><ellipse cx="4281" cy="2033" fill="#a8e6cf" opacity="0.4863671044769723" rx="335" ry="118" transform="rotate(240,4281,2033)" /><circle cx="-448" cy="1944" fill="#c8e6e0" opacity="0.18702509293086367" r="53" /><ellipse cx="2166" cy="42" fill="#e0f7e8" opacity="0.4010077426965313" rx="193" ry="78" transform="rotate(95,2166,42)" /><rect fill="#b8e1d4" height="82" opacity="0.5636526759923977" rx="80" ry="80" transform="rotate(317,4485,-358)" width="225" x="4373" y="-399" /><polygon fill="#b8e1d4" opacity="0.293477961623444" points="322.6586579509933,2117.0 163.49605427662505,2264.5107157134967 112.95390615979508,2471.990578678469 -91.99999999999997,2557.0471108833835 -229.25756745794402,2354.737080560472 -353.3072492097715,2267.865810672462 -480.69106611095856,2117.0 -295.2380987149632,1999.6604289973282 -301.60735629134757,1753.9494092631944 -92.00000000000007,1760.1754286485289 31.168993206891372,1903.6650458485583 104.28152997740978,2003.6768058305906" /><polygon fill="#b8e1d4" opacity="0.4771084840057557" points="684.8674055008958,-524.0 614.081261888954,-421.4984633330129 543.9052888396601,-305.775959839522 392.7537961283108,-277.02757942329305 355.09319176785823,-438.3356894779764 291.95251569733006,-524.0 326.56039263822356,-630.3946025327375 427.68624619953596,-663.4613940793008 524.5891736031532,-682.775150294901 603.3706395647166,-618.7198140470249" /><circle cx="-614" cy="742" fill="#b2dfdb" opacity="0.3418124432093672" r="98" /><polygon fill="#b8e1d4" opacity="0.3138143613519139" points="4018.1047974484045,1916.0 3950.7937065705582,2034.2765511151363 3837.2280958053607,2067.508500026645 3746.5981881529688,2043.4216747308355 3606.8109020774355,2047.6415852516711 3641.310129804314,1916.0 3660.0063670508325,1823.0071823485218 3728.226757676547,1732.0368761375214 3852.8552468383855,1716.3960745060635 3967.958280775079,1785.2526557501756" /><circle cx="2069" cy="940" fill="#e0f7e8" opacity="0.5717983543758232" r="219" /><ellipse cx="1028" cy="2288" fill="#c5e8d1" opacity="0.5247536761046143" rx="55" ry="53" transform="rotate(196,1028,2288)" /><polygon fill="#d4f1f9" opacity="0.22544220102524978" points="3279.402939547228,185.0 3240.9914185194602,237.6555733455982 3177.435878951788,279.47858741999033 3149.419630634858,208.8766474773547 3131.2610160212657,152.37862461203179 3185.7955112970935,127.14735497613685 3261.89942103135,106.12662076473993" /><rect fill="#c8e6e0" height="62" opacity="0.2724557550837914" rx="61" ry="61" transform="rotate(241,-144,1636)" width="173" x="-230" y="1605" /><polygon fill="#c8e6e0" opacity="0.24989841575712823" points="2106.1127206675114,926.0 1890.0749094203109,1206.721977748102 1544.9531718675394,1243.0464064897503 1386.6539569108354,926.0 1585.0313923953936,678.371107741444 1864.7240848075935,689.186938494892" /><ellipse cx="1045" cy="318" fill="#d4f1f9" opacity="0.6241403819522281" rx="256" ry="120" transform="rotate(275,1045,318)" /><circle cx="903" cy="1103" fill="#a8e6cf" opacity="0.5035008110122227" r="177" /><circle cx="2310" cy="2327" fill="#a8e6cf" opacity="0.6233936816016497" r="174" /><rect fill="#d4f1f9" height="67" opacity="0.5457837607654253" rx="49" ry="49" transform="rotate(307,-395,1483)" width="149" x="-469" y="1450" /><circle cx="-675" cy="357" fill="#c8e6e0" opacity="0.5791049337422857" r="145" /><rect fill="#c8e6e0" height="37" opacity="0.10768869471792236" rx="32" ry="32" transform="rotate(32,1737,2107)" width="50" x="1712" y="2089" /><polygon fill="#c8e6e0" opacity="0.4709812062562716" points="2730.560358529088,1046.0 2702.0124132254705,1096.140453168584 2663.326012202074,1139.333868502498 2602.3498150505243,1140.3315696303787 2538.56659849186,1114.6098822598692 2550.2633702799167,1046.0 2577.0390378148104,1005.3419810643599 2601.559185287361,949.2351221635337 2666.6474851064486,942.4436890205342 2706.779749223722,992.3958744833955" /><polygon fill="#c8e6e0" opacity="0.14968817032822704" points="3306.5383476947645,2495.0 3294.5538058618013,2586.0258618837506 3190.30806903585,2584.5330507712506 3127.5501160181034,2495.0 3210.7880206205687,2440.939265910033 3295.222482469587,2402.815956257732" /><rect fill="#d4f1f9" height="157" opacity="0.5584148448818158" rx="54" ry="54" transform="rotate(237,2853,2114)" width="235" x="2736" y="2036" /><ellipse cx="3014" cy="756" fill="#c5e8d1" opacity="0.2515760361144801" rx="246" ry="178" transform="rotate(137,3014,756)" /><circle cx="2858" cy="1780" fill="#e0f7e8" opacity="0.3542654017807423" r="93" /><polygon fill="#e0f7e8" opacity="0.3455730645985037" points="4290.7627892046885,2581.0 4225.669531330374,2637.0138205902704 4164.999069801294,2651.104655747372 4114.380445672817,2613.082286480241 4115.3656119621855,2549.392144600024 4155.5020946358,2469.286377376927 4220.929836795218,2530.9295683694513" /><rect fill="#b2dfdb" height="44" opacity="0.25472045354894396" rx="49" ry="49" transform="rotate(168,1545,1653)" width="97" x="1497" y="1631" /><circle cx="2002" cy="1894" fill="#b2dfdb" opacity="0.6092864199454124" r="220" /><polygon fill="#e0f7e8" opacity="0.14948582370941838" points="1753.5229929863883,1709.0 1626.1163959403902,1796.2470918751503 1571.5563021069565,1876.2404210402187 1475.0,1917.0432293557576 1309.0081078895496,1996.5063907797917 1218.2502643121684,1857.2345290137348 1150.4116400187502,1709.0 1192.2741344480476,1545.7681454167102 1323.0406572441366,1445.7986976620714 1475.0,1403.8274033878147 1562.4086855695136,1557.60371557079 1680.372448957332,1590.4281613103517" /><polygon fill="#a8e6cf" opacity="0.5752033460622411" points="1298.4531858530495,1293.0 1258.5773159239388,1348.7589393462977 1204.7725155165333,1367.0841700421638 1162.0,1438.1360265302424 1088.984386902561,1419.466751630556 1078.5950274071492,1341.1538833782358 1052.1838270745943,1293.0 1031.9828585658568,1217.9345683937318 1104.7207777384576,1193.7894768249785 1162.0,1198.1903926079283 1237.1579803195907,1162.822559492207 1286.024135617316,1221.3946319153317" /><ellipse cx="592" cy="506" fill="#a8e6cf" opacity="0.5147004216774385" rx="197" ry="108" transform="rotate(190,592,506)" /><polygon fill="#c8e6e0" opacity="0.578353680923901" points="3510.6314752221724,-212.0 3435.904280011809,-103.04659100600742 3294.8029182814585,-76.55868145987043 3235.4328180230264,-211.99999999999997 3300.3741821211343,-337.79160650743984 3444.9723917562815,-336.6598392641307" /><polygon fill="#c8e6e0" opacity="0.1897163945271213" points="541.879832865974,2229.0 471.18252851204716,2341.020164039401 384.2274677705225,2435.904870803317 237.45069444168593,2473.8275881105474 194.3951109810603,2318.077666013637 173.77323125941618,2229.0 137.9547976148433,2098.9160460318567 255.2096805591758,2038.8289511001756 403.1606673134974,1963.8247326572148 444.81046521197226,2136.140261499352" /><rect fill="#a8e6cf" height="114" opacity="0.53196578969441" rx="38" ry="38" transform="rotate(52,1158,-127)" width="219" x="1049" y="-184" /><ellipse cx="4405" cy="741" fill="#c8e6e0" opacity="0.2543697683674" rx="153" ry="163" transform="rotate(67,4405,741)" /><polygon fill="#c8e6e0" opacity="0.3849782684983628" points="-168.03533190990754,754.0 -259.5706830110569,916.3309007956578 -358.89477188279864,1135.95661745369 -586.1884176689828,1071.5812942869925 -710.6820145298392,919.4206664178627 -728.9649391611499,754.0 -810.6341389300346,515.9598644409131 -561.6754785215484,511.86177497484545 -413.08573450361314,538.8260160680702 -214.31019846762683,558.7854323454109" /><rect fill="#a8e6cf" height="113" opacity="0.643033414434683" rx="35" ry="35" transform="rotate(62,1679,1330)" width="142" x="1608" y="1274" /><polygon fill="#b2dfdb" opacity="0.5499990374609821" points="2856.6936235987546,1989.0 2811.2808885093104,2122.652534801752 2674.9843375490805,2119.350655678056 2586.4259934271886,2102.577511039965 2474.7931461444155,2053.498020111394 2498.9582408745123,1933.2973550785846 2548.469485206246,1809.6798882434578 2683.296608272892,1811.5081144862488 2817.5041554706404,1850.1255241862784" /><polygon fill="#a8e6cf" opacity="0.49522849229144417" points="4774.056214124865,153.0 4700.4918621997695,375.67937237569106 4508.127827925928,504.2493371411989 4260.774105052405,563.0271436056541 4023.0835818828864,422.48655209750115 4109.961739282952,153.00000000000003 4081.4086812438773,-74.11088696160306 4314.110101516504,-92.87582534925721 4513.35563035143,-214.33885860176986 4642.097586987981,-27.253448042277938" /><polygon fill="#b2dfdb" opacity="0.44597969927749914" points="3582.0347193242633,1756.0 3486.1291328724,1872.2710688030393 3357.4643068972146,1862.5829469329906 3300.8292767011567,1756.0 3364.8998890642356,1662.2958591641436 3499.3703326580235,1616.7945004150913" /><circle cx="3686" cy="682" fill="#c8e6e0" opacity="0.40738867990419203" r="60" /><rect fill="#c5e8d1" height="177" opacity="0.5737480729600568" rx="75" ry="75" transform="rotate(314,4394,1811)" width="387" x="4201" y="1723" /><polygon fill="#c8e6e0" opacity="0.578532948661372" points="4875.275229884432,678.0 4808.234691027272,780.5974944298789 4645.386471061185,857.4638964735354 4553.889799597875,678.0 4652.812088882587,511.39765087072107 4838.176511847413,523.541750638513" /><rect fill="#e0f7e8" height="43" opacity="0.35955248250398264" rx="21" ry="21" transform="rotate(75,1767,1596)" width="85" x="1725" y="1575" /><circle cx="3771" cy="208" fill="#c8e6e0" opacity="0.5932160760374491" r="110" /><circle cx="2166" cy="1859" fill="#c8e6e0" opacity="0.242637452969444" r="56" /><polygon fill="#d4f1f9" opacity="0.48933181940066595" points="838.8499197966943,1860.0 730.184028206447,2024.6510754535739 595.4584322308676,2120.6016490510215 445.00000000000006,2347.5945064275284 313.0109185663373,2088.61179508745 167.71699105115692,2020.089419858324 68.92364662827623,1860.0 101.79067586960207,1661.8480043249251 235.29690464768987,1496.7835843453383 444.99999999999994,1481.1237007449567 587.5859846761431,1613.0338300936828 747.3850203794892,1685.4179270849913" /><rect fill="#b8e1d4" height="78" opacity="0.6441063608066112" rx="67" ry="67" transform="rotate(95,1813,2575)" width="158" x="1734" y="2536" /><circle cx="3361" cy="2697" fill="#c5e8d1" opacity="0.13312571353191263" r="189" /><rect fill="#b8e1d4" height="138" opacity="0.38198770938441784" rx="68" ry="68" transform="rotate(181,462,-232)" width="333" x="296" y="-301" /><polygon fill="#e0f7e8" opacity="0.12425658563621769" points="4240.486406502993,-21.0 4174.152160642615,140.23480712513583 4017.4072278572244,179.80436762973926 3900.423766437232,120.29418122081941 3708.1811036543577,78.66192784943655 3751.6666100938137,-104.83449788348315 3899.288921732553,-164.2597899080243 4021.7048530957386,-246.17741151245392 4197.445800363368,-201.78049162359648" /><rect fill="#c5e8d1" height="121" opacity="0.25014857336692" rx="54" ry="54" transform="rotate(338,900,-5)" width="188" x="806" y="-65" /><ellipse cx="2922" cy="1663" fill="#b2dfdb" opacity="0.34864133452900253" rx="231" ry="111" transform="rotate(180,2922,1663)" /><polygon fill="#d4f1f9" opacity="0.6293344004824777" points="881.2594205375244,2672.0 956.7907053044501,2808.7522826032964 853.5547158832871,2911.891365719513 719.4389162492424,2842.8260897268415 610.7736973432952,2825.7513494189875 599.7868602778735,2714.3447984522386 552.3090862378251,2615.7144692638617 578.6702101059068,2481.19925128542 719.9053665843666,2504.4181436143917 837.0582387372906,2468.2308805955595 967.5346817229648,2528.342983012907" /><ellipse cx="-628" cy="1664" fill="#a8e6cf" opacity="0.23031457589219598" rx="104" ry="118" transform="rotate(79,-628,1664)" /><polygon fill="#c8e6e0" opacity="0.4890686416321465" points="2923.3865924033175,-526.0 2924.87548125555,-344.8496277765148 2752.67732487347,-285.84015804130973 2587.7011275248396,-141.3878938284417 2448.329725096416,-301.33852654219106 2257.0324047075746,-412.6696886064301 2269.1538491191195,-635.7711341816605 2469.392853342892,-726.3533276464992 2604.924718768564,-790.8193977928738 2759.7387393797276,-781.6221829100588 2966.0734744054625,-733.6267147585827" /><rect fill="#d4f1f9" height="95" opacity="0.28287452484714626" rx="32" ry="32" transform="rotate(130,2631,195)" width="165" x="2549" y="148" /><polygon fill="#c5e8d1" opacity="0.30198991804157593" points="327.9581808097021,1458.0 237.65461064220813,1721.1874681069303 -5.790087298542602,1856.1802014607217 -256.41039071278055,1770.4799629278884 -292.601651353084,1536.8365537854284 -449.3708577401814,1322.1041214401332 -233.92028676531663,1184.474039776625 -39.633112819348696,1251.7531338962835 127.90143670265604,1286.9063796662838" /><ellipse cx="1504" cy="1560" fill="#c8e6e0" opacity="0.533194715624851" rx="249" ry="132" transform="rotate(332,1504,1560)" /><polygon fill="#b2dfdb" opacity="0.3596095054520263" points="1726.2804374878092,1721.0 1677.9071307589777,1779.2587591068484 1661.151122261964,1866.754019271662 1577.0,1941.2782594085495 1508.128805896169,1840.2884073657733 1466.0253258407188,1785.071257999092 1367.5520867259825,1721.0 1390.945408325347,1613.581331412673 1518.639872997763,1619.917294895953 1577.0,1552.0401337050473 1666.6703674965775,1565.6863675625552 1749.5929197995213,1621.3534312935228" /><circle cx="3500" cy="1398" fill="#a8e6cf" opacity="0.4152264409677391" r="135" /><rect fill="#b2dfdb" height="73" opacity="0.5356309692499766" rx="48" ry="48" transform="rotate(270,3229,382)" width="161" x="3149" y="346" /><rect fill="#b2dfdb" height="49" opacity="0.2769724370469111" rx="64" ry="64" transform="rotate(165,-347,2221)" width="113" x="-403" y="2197" /><polygon fill="#c5e8d1" opacity="0.35809461380280305" points="1063.1793044299902,-311.0 966.7156248703578,-79.39774395871979 692.8290499879681,-68.21679283396344 612.3640425844799,-311.0 739.0039804146186,-473.80588163111963 927.0250000675721,-473.856077298702" /><circle cx="-318" cy="-203" fill="#e0f7e8" opacity="0.3832990161368307" r="110" /><ellipse cx="3609" cy="532" fill="#c8e6e0" opacity="0.550166777622124" rx="247" ry="134" transform="rotate(218,3609,532)" /><polygon fill="#a8e6cf" opacity="0.5423580457347489" points="1473.0377881112413,-331.0 1439.886964914757,-223.74826005122526 1374.6107728930815,-108.50344305484043 1229.3291502052575,-27.262568004394097 1128.4944223296868,-164.23167330829733 1077.0196528939287,-273.4549779944004 1065.8009681185915,-391.8391250715629 1073.3164787202409,-561.4470681935042 1244.3054309145957,-530.5751117091947 1397.5694370140818,-603.7690189444202 1507.2601869682903,-481.5498806686777" /><rect fill="#c5e8d1" height="133" opacity="0.5180654812480978" rx="61" ry="61" transform="rotate(184,1262,-483)" width="152" x="1186" y="-549" /><ellipse cx="585" cy="508" fill="#c5e8d1" opacity="0.39004889212608695" rx="77" ry="43" transform="rotate(162,585,508)" /><rect fill="#b2dfdb" height="164" opacity="0.3244361839093467" rx="77" ry="77" transform="rotate(63,4365,1888)" width="264" x="4233" y="1806" /><rect fill="#b8e1d4" height="49" opacity="0.24996830942882273" rx="59" ry="59" transform="rotate(118,1388,496)" width="121" x="1328" y="472" /><polygon fill="#b8e1d4" opacity="0.6407561994750828" points="4157.601156671289,556.0 4115.010526035496,642.6207720067246 4035.9878680146635,606.2504866344973 3974.5724454150445,556.0 4017.100361877161,473.03539310707964 4100.167460960137,495.0881708438484" /><polygon fill="#a8e6cf" opacity="0.5390041089829979" points="877.2888932980419,2436.0 825.2096910369453,2509.1093294477737 732.5775054743697,2523.3343223627553 640.6728746224123,2436.0 728.592906500587,2341.7641497668665 836.3471591569921,2343.6000099006264" /><circle cx="2577" cy="1303" fill="#b8e1d4" opacity="0.3235291913055508" r="228" /><rect fill="#a8e6cf" height="119" opacity="0.5765068673144862" rx="22" ry="22" transform="rotate(59,4550,-238)" width="264" x="4418" y="-297" /><ellipse cx="1084" cy="-521" fill="#b8e1d4" opacity="0.1347678087394299" rx="375" ry="138" transform="rotate(5,1084,-521)" /><polygon fill="#c5e8d1" opacity="0.5078570321644924" points="-464.6421977534629,1832.0 -686.1808713021699,1989.5283178840411 -781.2192580563864,2206.8025846248474 -1043.8754543600708,2265.570066676074 -1168.6895715627884,2025.0347729878895 -1317.0613219503912,1832.0 -1144.9280286633339,1656.2289984595882 -1050.3980770685585,1378.355364794809 -793.2451152935042,1494.2091982142497 -574.526005059619,1593.3496733319953" /><polygon fill="#c8e6e0" opacity="0.39025039976750453" points="5031.36211287538,-319.0 4992.0544154825275,-182.72090213313956 4874.486868974206,-112.10261673326212 4733.682086753049,3.1481627022989755 4639.293505750867,-156.61604929797576 4574.072950644453,-258.53436269658465 4552.176649050171,-385.894971548865 4581.646273280764,-547.9124034609902 4752.187022590096,-512.4435069237659 4906.470363318359,-595.9314669375394 4973.197229270185,-443.1603201489912" /><ellipse cx="3775" cy="2433" fill="#c8e6e0" opacity="0.5534477558676327" rx="404" ry="121" transform="rotate(209,3775,2433)" /><circle cx="4758" cy="2629" fill="#b2dfdb" opacity="0.30682647324854384" r="223" /><ellipse cx="547" cy="2101" fill="#d4f1f9" opacity="0.6433562110341674" rx="226" ry="128" transform="rotate(227,547,2101)" /><polygon fill="#c5e8d1" opacity="0.4536589945965782" points="2239.5843997093493,1291.0 2307.465512237038,1416.553772029514 2215.0737021527075,1507.6340068192258 2090.0,1557.4537920211872 1991.550114035654,1461.5202044896096 1922.1677038071007,1387.8980213856835 1934.715380140044,1291.0 1866.17503345318,1161.7745953128344 1973.120689064979,1088.5590951069032 2090.0,1119.2608967603214 2212.5358270069282,1078.76172187653 2278.904044561622,1181.9361990213383" /><ellipse cx="3517" cy="2009" fill="#c8e6e0" opacity="0.3306712420923864" rx="290" ry="165" transform="rotate(151,3517,2009)" /><polygon fill="#b2dfdb" opacity="0.31276067910155925" points="16.367929282792545,1319.0 -241.39781386732975,1534.1823352665813 -509.5342012815139,1741.9439704221395 -684.9611461271456,1449.9695852766388 -770.2665336734657,1146.9495052335137 -468.52483111591323,1075.7298199246582 -227.7752056878825,1086.7354543808722" /><polygon fill="#a8e6cf" opacity="0.3852548594813928" points="4826.907880295611,733.0 4812.677843302237,789.5996848812501 4753.866532466252,778.2644935464048 4718.536181249894,733.0 4741.240018115685,665.8657420759182 4808.661981657895,683.3559915229193" /><rect fill="#a8e6cf" height="47" opacity="0.2631292467940728" rx="49" ry="49" transform="rotate(317,2083,320)" width="74" x="2046" y="297" /><rect fill="#b8e1d4" height="118" opacity="0.4599922286391871" rx="30" ry="30" transform="rotate(330,3426,1885)" width="225" x="3314" y="1826" /><circle cx="3502" cy="-438" fill="#b2dfdb" opacity="0.15212438181689356" r="153" /><polygon fill="#e0f7e8" opacity="0.6289265037498784" points="3934.4770408449317,265.0 3900.440275098452,310.86486421258917 3867.7047207580295,345.89494930622413 3821.0,351.64908879335695 3789.177029264518,320.1190021616326 3741.2701394340875,311.0320564601808 3722.977379423824,265.0 3757.9817325150375,228.61638630369313 3769.70158225277,176.14853411390527 3821.0,207.980170694587 3862.3854514491827,193.3182953958409 3888.6741147781786,225.92833161564897" /><rect fill="#c5e8d1" height="45" opacity="0.3829073713194415" rx="66" ry="66" transform="rotate(61,65,1037)" width="124" x="3" y="1015" /><circle cx="482" cy="1737" fill="#a8e6cf" opacity="0.169276976213235" r="132" /><polygon fill="#c8e6e0" opacity="0.41481724907416095" points="2736.538258113763,2113.0 2766.8624066099323,2344.6670989842537 2581.319054116418,2523.313858045877 2356.0719370012584,2395.925486095637 2173.721658206862,2312.274879823505 1989.3954542615181,2113.0 2068.545958425496,1837.3105013726085 2315.1710868344953,1704.1946406896454 2527.9625806690483,1866.9004818848211 2800.0662972878677,1857.2088623429856" /><ellipse cx="564" cy="2321" fill="#a8e6cf" opacity="0.1136355520142555" rx="165" ry="101" transform="rotate(202,564,2321)" /><rect fill="#b2dfdb" height="33" opacity="0.11804170099301811" rx="57" ry="57" transform="rotate(298,154,720)" width="62" x="123" y="704" /><ellipse cx="2096" cy="-517" fill="#a8e6cf" opacity="0.6326893190738175" rx="115" ry="60" transform="rotate(248,2096,-517)" /><ellipse cx="2822" cy="1711" fill="#e0f7e8" opacity="0.17339162387234422" rx="141" ry="119" transform="rotate(265,2822,1711)" /><circle cx="2892" cy="916" fill="#d4f1f9" opacity="0.4391687675001208" r="45" /><circle cx="4035" cy="-251" fill="#b2dfdb" opacity="0.6233808897403329" r="195" /><polygon fill="#b8e1d4" opacity="0.26684432856368734" points="42.96569261454863,138.0 -21.998241870491654,354.0017581295083 -237.99999999999997,464.7684165680922 -467.9712465830977,367.9712465830977 -524.6302240288961,138.00000000000003 -381.3745139993521,-5.374513999352018 -238.00000000000006,-147.7596843612149 -82.51363408337815,-17.486365916621935" /><ellipse cx="1328" cy="1111" fill="#c5e8d1" opacity="0.5116136251030303" rx="267" ry="211" transform="rotate(108,1328,1111)" /><polygon fill="#c5e8d1" opacity="0.19946562459998285" points="4984.798824363573,353.0 4944.572354115574,497.57235411557406 4800.0,594.0620155901838 4633.449774871073,519.5502251289277 4535.7781562996615,353.00000000000006 4604.94342016265,157.94342016264991 4800.0,182.1016474672325 4907.172622339104,245.82737766089576" /><ellipse cx="2989" cy="1743" fill="#c5e8d1" opacity="0.24653317879280343" rx="323" ry="178" transform="rotate(9,2989,1743)" /><polygon fill="#d4f1f9" opacity="0.20399562301720492" points="-99.5865150655433,294.0 -191.13563650962055,356.3841117158715 -242.09682540807148,401.42092583673195 -311.3445963962281,399.70179891959975 -364.5765712854443,357.6281034957684 -446.08652722591785,294.0 -415.2419418579341,193.56135008616644 -326.4112194850054,141.92790323924584 -241.21950503643285,183.8789596986473 -180.4518549379812,223.85366661241255" /><polygon fill="#c8e6e0" opacity="0.6036084858694573" points="2078.667277963897,-391.0 1957.4962115918029,-174.1043548678021 1772.7591487059394,-56.50412263167209 1562.9524539900945,5.774397753668552 1384.8206144573865,-119.58852072267263 1270.0360866873932,-288.24132347903253 1395.7215549605885,-456.8540932585927 1354.4457555158092,-697.4659351734198 1584.5316299681485,-637.6879321373183 1735.8047836780647,-644.5771051880542 1923.993032269806,-586.3644591708778" /><rect fill="#d4f1f9" height="161" opacity="0.20268718003634031" rx="64" ry="64" transform="rotate(231,3868,1959)" width="241" x="3748" y="1879" /><rect fill="#d4f1f9" height="121" opacity="0.18366320555148463" rx="66" ry="66" transform="rotate(312,1807,170)" width="190" x="1712" y="110" /><polygon fill="#c5e8d1" opacity="0.5228474107615924" points="-404.6522641225986,-420.0 -455.7134150900837,-313.7767618289769 -498.561896880134,-151.89795129565954 -657.3689880854743,-167.04813171071714 -787.5698222010068,-227.76817771579306 -934.5612551213335,-327.93010833737026 -916.159164790429,-506.66655041603116 -782.2715183976336,-606.1172537406403 -657.2573678987624,-672.1755328382877 -518.4857013919012,-644.4750022908543 -469.1502111339347,-517.5879336954705" /><polygon fill="#d4f1f9" opacity="0.3853429865558925" points="1022.6172819576702,1657.0 964.9188214187745,1864.9188214187745 757.0,1970.0862827451301 544.8841208197889,1869.115879180211 385.0656236438503,1657.0 478.50999445636614,1378.5099944563663 756.9999999999999,1256.7848428956904 1003.0104662409934,1410.9895337590065" /><circle cx="-178" cy="1942" fill="#a8e6cf" opacity="0.31472080932956903" r="141" /><ellipse cx="1117" cy="1525" fill="#a8e6cf" opacity="0.618018684438844" rx="43" ry="52" transform="rotate(160,1117,1525)" /><polygon fill="#b8e1d4" opacity="0.6391794788695435" points="4864.697404212844,-398.0 4839.175395888603,-296.82460411139726 4738.0,-256.5191441008561 4623.253727768566,-283.2537277685659 4592.5186501799335,-398.0 4614.100690850311,-521.8993091496883 4738.0,-540.4111133037575 4861.720844021994,-521.720844021994" /><polygon fill="#d4f1f9" opacity="0.5647842013572644" points="2585.8058614588676,-272.0 2350.192140575807,-133.8173213793022 2276.4909824243146,86.52237883668408 2029.344497568952,130.11628887339816 1822.1677472079027,-26.550501014683476 1843.9367452156907,-271.99999999999994 1925.8392814628821,-442.1277204055093 2050.8571198145273,-607.90724554672 2263.2046893752613,-589.6313734495284 2380.10967612862,-431.91904053292865" /><circle cx="4217" cy="902" fill="#b2dfdb" opacity="0.17618377274117308" r="160" /><polygon fill="#e0f7e8" opacity="0.4972484953317712" points="2120.5533381181663,1766.0 2084.589278489963,1829.589278489963 2021.0,1846.9117565752729 1973.5261156599568,1813.4738843400432 1924.5640708903854,1766.0 1952.551847479388,1697.551847479388 2021.0,1713.835010593353 2066.8075746861045,1720.1924253138957" /><rect fill="#a8e6cf" height="85" opacity="0.1588944287218369" rx="50" ry="50" transform="rotate(186,3013,1498)" width="121" x="2953" y="1456" /><rect fill="#d4f1f9" height="120" opacity="0.5392879562916529" rx="71" ry="71" transform="rotate(184,-453,1816)" width="291" x="-598" y="1756" /><circle cx="1330" cy="1572" fill="#c8e6e0" opacity="0.43137723979540554" r="78" /><ellipse cx="4561" cy="1023" fill="#b8e1d4" opacity="0.30865279426290404" rx="101" ry="51" transform="rotate(194,4561,1023)" /><circle cx="-834" cy="289" fill="#c5e8d1" opacity="0.35442922219780193" r="145" /><ellipse cx="1956" cy="-106" fill="#a8e6cf" opacity="0.6313588945505929" rx="238" ry="194" transform="rotate(128,1956,-106)" /><polygon fill="#e0f7e8" opacity="0.41179669748383685" points="2212.025962367917,-138.0 2102.195831794897,69.20690060885607 1921.9178565062134,184.9039597248887 1713.2052569530856,181.44737192082397 1498.374533484158,93.49495192930729 1415.9198033078558,-137.99999999999994 1638.973122490392,-267.34409763873134 1689.2296096457694,-531.2368269316712 1893.0817391760393,-372.1555161417575 2014.8773321664198,-281.76629714714727" /><rect fill="#b2dfdb" height="126" opacity="0.5934164183195447" rx="79" ry="79" transform="rotate(133,3125,-122)" width="184" x="3033" y="-185" /><circle cx="2089" cy="1417" fill="#d4f1f9" opacity="0.4443095358692968" r="121" /><ellipse cx="813" cy="1818" fill="#d4f1f9" opacity="0.22704317272038527" rx="124" ry="139" transform="rotate(124,813,1818)" /><ellipse cx="2888" cy="1405" fill="#c5e8d1" opacity="0.32589699034320374" rx="351" ry="98" transform="rotate(58,2888,1405)" /><ellipse cx="230" cy="2029" fill="#b2dfdb" opacity="0.3247644281560723" rx="427" ry="203" transform="rotate(158,230,2029)" /><circle cx="794" cy="2252" fill="#e0f7e8" opacity="0.5682881753393209" r="76" /><rect fill="#b8e1d4" height="107" opacity="0.44899145554222974" rx="79" ry="79" transform="rotate(106,923,-232)" width="299" x="774" y="-285" /><polygon fill="#b8e1d4" opacity="0.2805781956601493" points="1854.0898364774098,1461.0 1776.6908058038762,1697.5350970153825 1575.3781550401152,1821.9215517169441 1367.0,1806.682011853032 1119.0224685834094,1890.5096835490426 1093.2827907053763,1619.030704468084 1057.1378952640077,1461.0 1050.4071435997084,1278.2150291337791 1212.6702735422225,1193.693072656923 1367.0,1054.004279162033 1601.8302976795806,1054.2619932624427 1615.989243396742,1317.2459932995696" /><circle cx="-555" cy="232" fill="#e0f7e8" opacity="0.5868350463861486" r="187" /><polygon fill="#c8e6e0" opacity="0.6041611454427288" points="3222.332300802841,2479.0 3220.9532369946483,2562.111440129578 3186.6127821888253,2668.8549079100267 3077.0,2662.399035109682 3012.3525846222037,2590.972608012353 2874.8798486285477,2595.694123802956 2909.1846352422076,2479.0 2936.254640622158,2397.7406288760126 3004.506570564245,2353.4376970023636 3077.0,2242.695054112333 3162.538144373631,2330.843587959709 3251.707529081852,2378.132561055138" /><polygon fill="#e0f7e8" opacity="0.3134681842583298" points="3442.718491666534,267.0 3442.7490425735377,361.26819739765335 3357.330411222978,403.43497681716894 3276.878251559511,378.171310509278 3186.2510522952066,359.08850088746 3133.5110333739,267.0 3177.307348424234,168.4135178923924 3275.8323758682054,152.60981509365791 3371.0736860662214,88.26757245090596 3415.5631106210167,192.48353832931306" /><rect fill="#b8e1d4" height="39" opacity="0.4409213792751193" rx="32" ry="32" transform="rotate(56,-937,123)" width="83" x="-978" y="104" /><ellipse cx="2170" cy="510" fill="#b2dfdb" opacity="0.5561671461959601" rx="118" ry="41" transform="rotate(360,2170,510)" /><circle cx="-819" cy="1599" fill="#a8e6cf" opacity="0.10444811318255348" r="131" /><rect fill="#c8e6e0" height="46" opacity="0.4948591899565744" rx="20" ry="20" transform="rotate(143,2212,1523)" width="58" x="2183" y="1500" /><rect fill="#c5e8d1" height="142" opacity="0.5176394996249915" rx="80" ry="80" transform="rotate(159,1801,2213)" width="286" x="1658" y="2142" /><ellipse cx="169" cy="700" fill="#e0f7e8" opacity="0.16294918351047788" rx="159" ry="83" transform="rotate(304,169,700)" /><polygon fill="#a8e6cf" opacity="0.18809684765164209" points="327.11651134632496,-238.0 167.8984505793763,-62.10154942062374 -7.9999999999999885,-53.35663260846508 -205.49663236617369,-40.50336763382629 -252.80519496380333,-237.99999999999997 -207.55261819133665,-437.5526181913366 -8.000000000000043,-466.36756524661155 211.6816890353951,-457.68168903539515" /><circle cx="250" cy="2088" fill="#e0f7e8" opacity="0.2013638244731253" r="171" /><polygon fill="#a8e6cf" opacity="0.6341687936932198" points="889.5311632032773,442.0 865.8561821970294,541.7985633225459 799.8129920144395,627.0055290774579 693.0,626.8868416304982 621.2139912640382,566.3370144032692 519.3255294642311,542.2710023151919 519.9576464441349,442.0 531.0622735442877,348.50521003883847 631.9830131045236,336.3154785722706 693.0,258.07553906726355 776.5079486413966,297.3599901172487 857.367672544106,347.10228001058806" /><polygon fill="#c8e6e0" opacity="0.33482895036986055" points="577.4903376570262,-232.0 452.8300105680686,-29.071585304105838 247.1846308017417,-40.03232462470254 31.892128116902597,-107.22022536786737 119.68867159110917,-314.49918767592294 229.1844100458253,-502.8317953857901 446.01706074629533,-426.38524583690446" /><polygon fill="#a8e6cf" opacity="0.30622726614336804" points="1446.852068480664,-396.0 1366.8241993904878,-191.92250029454917 1137.4669447754097,-202.81908162762412 1058.3179721629501,-396.0 1113.6773476217686,-630.385709334078 1354.491454492814,-578.716558945894" /><circle cx="-345" cy="538" fill="#b8e1d4" opacity="0.539774575960253" r="56" /><rect fill="#b8e1d4" height="148" opacity="0.4907906297894872" rx="39" ry="39" transform="rotate(337,2569,-519)" width="323" x="2408" y="-593" /><ellipse cx="2044" cy="1745" fill="#d4f1f9" opacity="0.2511066299853508" rx="136" ry="101" transform="rotate(54,2044,1745)" /><polygon fill="#c5e8d1" opacity="0.3008877757359879" points="4640.44382239635,1017.0 4493.132637928971,1156.4018352127086 4367.059474777386,1244.188571008421 4234.338376445405,1177.4946399083797 3995.733778448759,1137.571044262485 4144.349701409859,950.5207280333545 4150.746192043276,711.7194495914664 4381.898329641505,705.6561011767521 4536.567787038536,841.1517471893256" /><polygon fill="#c5e8d1" opacity="0.13269047502821016" points="4052.6000546722116,2166.0 3952.5799693325794,2451.060868792155 3615.0312970425366,2465.590581641616 3435.532059338855,2166.0 3649.2490574650465,1925.6763179313914 3921.8968967763385,1934.0837718075768" /><rect fill="#e0f7e8" height="105" opacity="0.5340527096097837" rx="79" ry="79" transform="rotate(222,-552,-92)" width="183" x="-643" y="-144" /><polygon fill="#a8e6cf" opacity="0.1665218024780056" points="2706.6932929225013,1299.0 2713.97728532247,1438.7056508187027 2606.123776403671,1531.3091952341654 2472.0,1580.2120975029347 2358.85041919367,1494.9808228116838 2250.8906547815104,1426.6575399822368 2204.40225357483,1299.0 2225.3417738073585,1156.591806709843 2294.880252320031,992.2195979945145 2472.0,981.190871733987 2590.5093891865,1093.7357167550288 2739.6034119463366,1144.4990980767202" /><polygon fill="#c8e6e0" opacity="0.3751580749369604" points="3938.3667809484346,-443.0 3884.7922967367385,-327.3123484977523 3719.964233294294,-273.19707110674784 3677.972278821493,-443.0 3715.0691760840537,-621.2814166873445 3918.434372266173,-616.9574355912978" /><polygon fill="#d4f1f9" opacity="0.20575803121093011" points="148.6812746012335,1846.0 154.71292866855939,1888.6574396214535 119.78139888396713,1919.1916198361835 79.10628200024348,1897.993517769532 43.39915303221426,1884.2167523311982 19.84583819392661,1846.0 42.6220236748498,1807.2186301409151 82.3699257759559,1804.0509449501828 119.85434261719939,1772.5838824369073 138.67106281788833,1814.9976581476158" /><rect fill="#a8e6cf" height="129" opacity="0.15184375740661038" rx="45" ry="45" transform="rotate(185,3801,14)" width="146" x="3728" y="-50" /><rect fill="#a8e6cf" height="122" opacity="0.6346870332301797" rx="51" ry="51" transform="rotate(288,1735,-535)" width="209" x="1631" y="-596" /><ellipse cx="3725" cy="1845" fill="#d4f1f9" opacity="0.4247462183112922" rx="148" ry="46" transform="rotate(352,3725,1845)" /><ellipse cx="3703" cy="896" fill="#a8e6cf" opacity="0.11410296490225333" rx="36" ry="25" transform="rotate(238,3703,896)" /><rect fill="#c5e8d1" height="72" opacity="0.5270188937507172" rx="54" ry="54" transform="rotate(21,-906,2057)" width="87" x="-949" y="2021" /><rect fill="#d4f1f9" height="166" opacity="0.40254261516253287" rx="67" ry="67" transform="rotate(157,1939,791)" width="261" x="1809" y="708" /><circle cx="1865" cy="2619" fill="#c8e6e0" opacity="0.27137127950051204" r="79" /><rect fill="#b8e1d4" height="138" opacity="0.5321851373626793" rx="56" ry="56" transform="rotate(7,2072,-487)" width="216" x="1964" y="-556" /><rect fill="#b8e1d4" height="105" opacity="0.48071439823798856" rx="77" ry="77" transform="rotate(242,316,1209)" width="174" x="229" y="1157" /><polygon fill="#e0f7e8" opacity="0.6237720100507174" points="763.1028741062839,1239.0 666.8940985336615,1392.9500740180633 556.7418431655115,1552.1291957523613 359.05103717971593,1534.300543281029 300.6346190356799,1351.1530141223277 114.62656617409101,1239.0 214.77956079902398,1064.469634824365 394.33043232224463,1052.2782703506325 557.2599886856142,924.2761163105572 695.614715108084,1064.183176610083" /><rect fill="#b2dfdb" height="157" opacity="0.23611294640286495" rx="74" ry="74" transform="rotate(210,2461,594)" width="233" x="2345" y="516" /><ellipse cx="2961" cy="2366" fill="#b8e1d4" opacity="0.2526544423664794" rx="64" ry="72" transform="rotate(164,2961,2366)" /><circle cx="4629" cy="2447" fill="#b8e1d4" opacity="0.15021938558060882" r="89" /><circle cx="4785" cy="726" fill="#d4f1f9" opacity="0.19486715793830292" r="187" /><rect fill="#e0f7e8" height="87" opacity="0.1848742077016241" rx="27" ry="27" transform="rotate(306,204,1380)" width="235" x="87" y="1337" /><circle cx="2226" cy="2607" fill="#e0f7e8" opacity="0.6415576215344959" r="110" /><rect fill="#e0f7e8" height="63" opacity="0.3526153287451961" rx="39" ry="39" transform="rotate(269,4754,1941)" width="101" x="4704" y="1910" /><rect fill="#a8e6cf" height="141" opacity="0.49292669466986916" rx="79" ry="79" transform="rotate(3,858,1498)" width="329" x="694" y="1428" /><rect fill="#d4f1f9" height="138" opacity="0.4129303354648405" rx="57" ry="57" transform="rotate(54,38,2382)" width="333" x="-128" y="2313" /><circle cx="574" cy="175" fill="#d4f1f9" opacity="0.5011025798064696" r="103" /><ellipse cx="-275" cy="710" fill="#b8e1d4" opacity="0.44614927708522367" rx="58" ry="45" transform="rotate(124,-275,710)" /><ellipse cx="685" cy="2237" fill="#b8e1d4" opacity="0.2575796413103555" rx="167" ry="62" transform="rotate(33,685,2237)" /><rect fill="#e0f7e8" height="36" opacity="0.6255290210440885" rx="77" ry="77" transform="rotate(180,-231,2078)" width="81" x="-271" y="2060" /><rect fill="#a8e6cf" height="75" opacity="0.5999202430526224" rx="28" ry="28" transform="rotate(16,430,419)" width="115" x="373" y="382" /><rect fill="#a8e6cf" height="165" opacity="0.6023219558583429" rx="57" ry="57" transform="rotate(298,1266,917)" width="356" x="1088" y="835" /><ellipse cx="915" cy="2294" fill="#c5e8d1" opacity="0.4221528350855236" rx="145" ry="156" transform="rotate(181,915,2294)" /><circle cx="566" cy="2489" fill="#d4f1f9" opacity="0.4741445877058168" r="110" /><ellipse cx="-156" cy="308" fill="#c5e8d1" opacity="0.1800202317932948" rx="157" ry="142" transform="rotate(7,-156,308)" /><rect fill="#d4f1f9" height="58" opacity="0.1523586572056708" rx="43" ry="43" transform="rotate(160,689,2447)" width="112" x="633" y="2418" /><polygon fill="#e0f7e8" opacity="0.4756225777448905" points="717.0102957029574,822.0 574.4720015769249,1050.8126527113902 338.85194494949104,1054.85684373898 98.54159195586163,963.3221209897201 122.9352866599541,692.4252632387105 338.8144068104795,588.9786909280595 511.31509963810026,672.3835973695486" /><rect fill="#c5e8d1" height="163" opacity="0.2932585602018788" rx="66" ry="66" transform="rotate(255,3644,2530)" width="229" x="3530" y="2449" /><rect fill="#a8e6cf" height="157" opacity="0.1562234636718866" rx="60" ry="60" transform="rotate(136,665,1307)" width="215" x="558" y="1229" /><ellipse cx="1048" cy="1125" fill="#a8e6cf" opacity="0.6249394933847168" rx="115" ry="76" transform="rotate(75,1048,1125)" /><polygon fill="#c5e8d1" opacity="0.24329014845089034" points="-494.8822110382299,786.0 -547.2922529212137,854.5359497308312 -582.1840314363251,931.1735160378807 -666.0,891.1151248532748 -749.0528077266157,929.8516826937475 -754.7077819572185,837.2154617922147 -820.062363172137,786.0 -803.6751805348108,706.5131974574966 -751.9134027615248,637.1936213659108 -666.0,662.0750057526101 -599.0962053398762,670.1192284295104 -538.040022991376,712.1222728285725" /><polygon fill="#b2dfdb" opacity="0.2288852516831395" points="3940.1318798750135,907.0 3891.0938212818546,980.0938212818548 3818.0,994.1147758750062 3731.214421936719,993.7855780632808 3727.3757007948675,907.0 3720.6288131348215,809.6288131348216 3818.0,809.795633181107 3887.3369923221476,837.6630076778523" /><circle cx="3053" cy="533" fill="#c8e6e0" opacity="0.6312003223582056" r="201" /><ellipse cx="3611" cy="1277" fill="#c5e8d1" opacity="0.2809076706507364" rx="198" ry="165" transform="rotate(220,3611,1277)" /><polygon fill="#d4f1f9" opacity="0.13227050397398016" points="116.05440603236195,701.0 24.58357211149651,793.7906345730229 -57.63454603037579,861.8684834031327 -183.6416416346185,870.120284245592 -220.988702537147,750.1318696857361 -220.08504406651178,652.1970350995176 -145.27260397976465,598.3368384101385 -58.59589455141062,545.5835949865282 13.657295535104069,617.377600072369" /><polygon fill="#c8e6e0" opacity="0.24203202566876544" points="4333.176749212959,1819.0 4291.523048534422,1901.2857204370744 4219.543904241911,1941.1856263112643 4149.0,1997.9545383919383 4071.3888930006165,1953.4263805545968 4065.2462602890087,1867.3552441677787 3990.8110005934655,1819.0 4034.3868003177636,1752.8280383107765 4071.5235310478533,1684.8068193838499 4149.0,1671.5793821135064 4220.612349414406,1694.9637723648746 4282.642610655477,1741.8414027628555" /><ellipse cx="407" cy="-384" fill="#c5e8d1" opacity="0.5507788719008053" rx="122" ry="37" transform="rotate(10,407,-384)" /><ellipse cx="742" cy="445" fill="#c8e6e0" opacity="0.11708512025962475" rx="138" ry="56" transform="rotate(238,742,445)" /><circle cx="4525" cy="1624" fill="#c8e6e0" opacity="0.11130655491686967" r="237" /><polygon fill="#a8e6cf" opacity="0.10651124442251227" points="1756.9048460654312,-78.0 1610.1561488085194,81.61913196623357 1358.8323261812118,197.68649797669173 1224.4821892844911,-77.99999999999996 1407.4615359742024,-269.45823588330563 1612.7769012860622,-242.15840841139968" /><polygon fill="#b8e1d4" opacity="0.2512746880656745" points="1044.9146137554108,1763.0 943.9334361999272,1846.100008135416 888.3779916208988,1916.0751717582932 800.0,1979.9435981692409 680.8594847478169,1969.3574256567163 620.2158685208032,1866.7984167055374 655.4683214715703,1763.0 672.011278642328,1689.105677270912 675.0470164104134,1546.5750838655163 800.0,1586.4534767370997 901.8855233830694,1586.529096944777 1030.2174172485707,1630.0839121793972" /><rect fill="#e0f7e8" height="145" opacity="0.5517659832866944" rx="41" ry="41" transform="rotate(78,-337,1564)" width="181" x="-427" y="1492" /><circle cx="4628" cy="412" fill="#c8e6e0" opacity="0.35752599415871644" r="63" /><ellipse cx="4167" cy="487" fill="#c5e8d1" opacity="0.24434693264333954" rx="120" ry="44" transform="rotate(208,4167,487)" /><circle cx="4787" cy="526" fill="#b2dfdb" opacity="0.2227495921840621" r="47" /><rect fill="#e0f7e8" height="66" opacity="0.29404109821747637" rx="60" ry="60" transform="rotate(233,4031,1979)" width="162" x="3950" y="1946" /><rect fill="#d4f1f9" height="162" opacity="0.12198908378012469" rx="51" ry="51" transform="rotate(136,3,2366)" width="209" x="-101" y="2285" /><circle cx="4046" cy="-458" fill="#c8e6e0" opacity="0.35462121974528094" r="146" /><rect fill="#a8e6cf" height="162" opacity="0.5657909193926657" rx="42" ry="42" transform="rotate(0,1922,1027)" width="239" x="1803" y="946" /><rect fill="#a8e6cf" height="154" opacity="0.29635600052444566" rx="47" ry="47" transform="rotate(130,2124,1422)" width="261" x="1994" y="1345" /><circle cx="4695" cy="146" fill="#c8e6e0" opacity="0.6489545802169906" r="65" /><polygon fill="#b8e1d4" opacity="0.40695449657738003" points="-106.66066617831461,-405.0 -202.41656207660142,-251.41656207660145 -356.0,-165.5149636453384 -482.6417425824304,-278.3582574175695 -502.6430467810877,-405.0 -518.8944922479868,-567.8944922479868 -356.00000000000006,-631.2215458088731 -188.50492054877455,-572.4950794512256" /><circle cx="-402" cy="523" fill="#a8e6cf" opacity="0.1562154430175645" r="206" /><polygon fill="#e0f7e8" opacity="0.13823903689819028" points="2892.6546783303697,-129.0 2830.518129112509,-90.75002098532397 2803.4405340317926,-57.965139010102135 2758.8105146009175,-44.22026684007946 2703.406453989835,-50.992889513291175 2680.773891633471,-102.50722422885906 2668.6294069071105,-159.0587182298858 2721.5739034295916,-186.0407561620571 2760.3849470914874,-202.82931465916238 2803.197644938919,-199.50300806382347 2829.8261713523602,-166.80528476437956" /><rect fill="#d4f1f9" height="97" opacity="0.48632830221949674" rx="73" ry="73" transform="rotate(264,-688,-282)" width="140" x="-758" y="-330" /><rect fill="#b2dfdb" height="82" opacity="0.11620117144318144" rx="52" ry="52" transform="rotate(260,4663,1948)" width="140" x="4593" y="1907" /><polygon fill="#a8e6cf" opacity="0.11393024189085567" points="1435.3902517740546,587.0 1389.169632180718,688.7834993772908 1265.682341329063,772.4057768092023 1192.1454335973735,642.7926186524563 1183.1117471482216,526.8569872393666 1270.370548303269,422.13460002624765 1417.9333242025873,449.14797166254004" /><polygon fill="#c5e8d1" opacity="0.4962121950685444" points="953.5742731197349,1496.0 803.4498617390733,1722.0952796060255 577.2390732829124,1741.2209702064986 400.45891653911804,1727.2999414520436 317.24117232450175,1574.8937612883185 248.98555398281997,1392.2632253138752 399.87510441899207,1263.688866293824 598.2869138916869,1131.4107940067458 855.1383499170527,1226.5329290277205" /><ellipse cx="3903" cy="1667" fill="#d4f1f9" opacity="0.154438027313424" rx="167" ry="69" transform="rotate(281,3903,1667)" /><ellipse cx="499" cy="688" fill="#b2dfdb" opacity="0.5849123701360719" rx="246" ry="104" transform="rotate(216,499,688)" /><rect fill="#b2dfdb" height="88" opacity="0.311976133842313" rx="56" ry="56" transform="rotate(26,3590,674)" width="134" x="3523" y="630" /><rect fill="#e0f7e8" height="82" opacity="0.29131107020406266" rx="44" ry="44" transform="rotate(231,1914,452)" width="154" x="1837" y="411" /><circle cx="1401" cy="950" fill="#b8e1d4" opacity="0.5270918623389427" r="117" /><rect fill="#b2dfdb" height="126" opacity="0.5169042654544339" rx="78" ry="78" transform="rotate(159,726,2573)" width="175" x="639" y="2510" /><circle cx="-497" cy="-512" fill="#b8e1d4" opacity="0.4946698775986863" r="42" /><ellipse cx="634" cy="416" fill="#e0f7e8" opacity="0.33803971268064614" rx="160" ry="147" transform="rotate(21,634,416)" /><ellipse cx="4710" cy="-320" fill="#b8e1d4" opacity="0.6176359779912197" rx="163" ry="144" transform="rotate(51,4710,-320)" /><circle cx="4155" cy="428" fill="#b8e1d4" opacity="0.296062332223447" r="165" /><rect fill="#e0f7e8" height="194" opacity="0.19180004738564316" rx="46" ry="46" transform="rotate(283,3929,588)" width="416" x="3721" y="491" /><circle cx="4445" cy="2146" fill="#d4f1f9" opacity="0.6188444726766581" r="52" /><rect fill="#b2dfdb" height="80" opacity="0.16381012744308096" rx="66" ry="66" transform="rotate(331,-767,-341)" width="156" x="-845" y="-381" /><ellipse cx="2474" cy="1185" fill="#d4f1f9" opacity="0.3225074064555724" rx="151" ry="66" transform="rotate(27,2474,1185)" /><rect fill="#d4f1f9" height="57" opacity="0.44146110237894787" rx="68" ry="68" transform="rotate(312,4102,1643)" width="97" x="4054" y="1615" /><ellipse cx="156" cy="31" fill="#a8e6cf" opacity="0.5007075681954015" rx="139" ry="182" transform="rotate(62,156,31)" /><polygon fill="#c5e8d1" opacity="0.25955166495946663" points="2356.361869855968,1532.0 2321.812280572333,1644.4749226298813 2207.5591134574793,1671.53247752106 2127.0,1838.5266546524515 2010.9576832630107,1732.9911884164658 1950.5973018405289,1633.8461452681468 1902.0400579552522,1532.0 1966.285431277269,1439.2114004852367 2030.4508577784266,1364.7719802450415 2127.0,1352.3710192582305 2250.454019127069,1318.171366473337 2342.043228517348,1407.844734128103" /><rect fill="#b2dfdb" height="227" opacity="0.27353517840571795" rx="25" ry="25" transform="rotate(342,2136,129)" width="375" x="1949" y="16" /><ellipse cx="163" cy="766" fill="#c8e6e0" opacity="0.44825450470775385" rx="126" ry="93" transform="rotate(161,163,766)" /><circle cx="4120" cy="301" fill="#d4f1f9" opacity="0.28272174694695906" r="85" /><ellipse cx="4421" cy="1384" fill="#e0f7e8" opacity="0.31734796445786795" rx="317" ry="133" transform="rotate(61,4421,1384)" /><rect fill="#b8e1d4" height="88" opacity="0.20262030930675745" rx="53" ry="53" transform="rotate(263,425,1192)" width="238" x="306" y="1148" /><rect fill="#c5e8d1" height="224" opacity="0.33786362582570795" rx="52" ry="52" transform="rotate(76,975,1702)" width="333" x="809" y="1590" /><ellipse cx="3185" cy="1302" fill="#b8e1d4" opacity="0.45922444575400945" rx="182" ry="129" transform="rotate(153,3185,1302)" /><rect fill="#c8e6e0" height="63" opacity="0.27940372084202886" rx="69" ry="69" transform="rotate(39,3171,-486)" width="107" x="3118" y="-517" /><polygon fill="#c8e6e0" opacity="0.3557788552965806" points="2757.0269527094288,1317.0 2734.915766982364,1370.8146696562587 2673.912192009966,1396.2478647565426 2608.1591022482457,1357.375648375282 2598.1307839109327,1271.794968044146 2676.0643866460414,1247.1815160475558 2732.466485072351,1266.2566327146521" /><rect fill="#c5e8d1" height="168" opacity="0.34695341006009284" rx="29" ry="29" transform="rotate(212,2231,223)" width="310" x="2076" y="139" /><circle cx="-526" cy="245" fill="#a8e6cf" opacity="0.3536275274096621" r="224" /><rect fill="#d4f1f9" height="183" opacity="0.2970230354150101" rx="31" ry="31" transform="rotate(244,3893,-102)" width="364" x="3711" y="-193" /><circle cx="229" cy="571" fill="#e0f7e8" opacity="0.162345724176522" r="173" /><rect fill="#e0f7e8" height="177" opacity="0.47810194903463055" rx="28" ry="28" transform="rotate(240,-611,2358)" width="351" x="-786" y="2270" /><polygon fill="#b2dfdb" opacity="0.6037996043115564" points="3575.2729823191903,764.0 3394.571523054843,979.571523054843 3179.0,1026.587809558824 2859.224647782717,1083.7753522172832 2862.057048599125,764.0 2945.174183804625,530.174183804625 3179.0,299.4554983791214 3354.3196485106882,588.6803514893114" /><circle cx="3740" cy="2507" fill="#a8e6cf" opacity="0.4746102535536464" r="205" /><ellipse cx="1858" cy="2416" fill="#b2dfdb" opacity="0.31585667927814126" rx="200" ry="99" transform="rotate(103,1858,2416)" /><ellipse cx="3284" cy="832" fill="#c5e8d1" opacity="0.3239007796404694" rx="453" ry="134" transform="rotate(123,3284,832)" /><circle cx="-669" cy="2288" fill="#b8e1d4" opacity="0.4694126363924367" r="148" /><circle cx="1669" cy="1626" fill="#a8e6cf" opacity="0.2777019009687991" r="94" /><rect fill="#e0f7e8" height="169" opacity="0.1564013688686295" rx="69" ry="69" transform="rotate(3,3852,2408)" width="354" x="3675" y="2324" /><polygon fill="#c8e6e0" opacity="0.44458097485913994" points="2229.5422303361315,759.0 2211.653753935271,861.0796200584177 2108.6592140987473,864.8216616865793 2022.6941441679498,875.5771619480171 1940.0689362149544,813.570444409624 1945.2543902647935,706.3169065156726 2029.9580223058776,655.0042440468629 2107.7610456559,658.2721046742939 2195.0373009901296,670.8632394793252" /><polygon fill="#c8e6e0" opacity="0.34494289324336647" points="3988.198735643227,328.0 3884.1345526140067,508.21096797508017 3750.434518506768,637.0576518778118 3572.0,670.5820573198571 3398.995137165358,627.6532123860848 3266.9391811090036,504.1269459059246 3217.2160312447277,328.00000000000006 3262.745951824458,149.4520920378694 3413.745330630755,53.894872117453644 3572.0,-58.10940096978197 3696.880324688119,111.70093277448044 3865.0703365387053,158.79576230788402" /><ellipse cx="4062" cy="2268" fill="#b8e1d4" opacity="0.33685602328984543" rx="263" ry="159" transform="rotate(213,4062,2268)" /><circle cx="3973" cy="434" fill="#b2dfdb" opacity="0.6002243935180888" r="80" /><rect fill="#b8e1d4" height="76" opacity="0.3417381994155033" rx="64" ry="64" transform="rotate(249,2113,1081)" width="108" x="2059" y="1043" /><polygon fill="#c5e8d1" opacity="0.271194291398401" points="-589.7468005891245,511.0 -552.5607707667436,747.1555534484434 -794.0885916684512,737.3488444660519 -1000.1959921230806,798.8599023714926 -1126.270159360562,617.3776383714841 -1081.4409652990012,420.93885389306735 -1016.8584681687586,194.27984253749423 -773.6289276857307,168.6186351532578 -676.2589220724718,378.63951968950437" /></svg>