<svg xmlns="http://www.w3.org/2000/svg" width="3840" height="2160" viewBox="0 0 3840 2160">
<rect width="3840" height="2160" fill="transparent"/>
<polyline points="-192.0,849.3 -182.0,854.3 -172.0,859.3 -162.0,864.2 -152.0,869.2 -142.0,874.2 -132.0,879.2 -122.0,884.1 -112.0,889.0 -102.0,893.9 -92.0,898.8 -82.0,903.6 -72.0,908.3 -62.0,913.0 -52.0,917.7 -42.0,922.2 -32.0,926.7 -22.0,931.1 -12.0,935.5 -2.0,939.7 8.0,943.8 18.0,947.9 28.0,951.8 38.0,955.6 48.0,959.3 58.0,962.8 68.0,966.2 78.0,969.5 88.0,972.7 98.0,975.6 108.0,978.5 118.0,981.1 128.0,983.6 138.0,986.0 148.0,988.1 158.0,990.1 168.0,991.9 178.0,993.5 188.0,994.9 198.0,996.1 208.0,997.1 218.0,998.0 228.0,998.6 238.0,999.0 248.0,999.2 258.0,999.1 268.0,998.9 278.0,998.4 288.0,997.8 298.0,996.9 308.0,995.8 318.0,994.4 328.0,992.9 338.0,991.1 348.0,989.1 358.0,986.9 368.0,984.5 378.0,981.9 388.0,979.0 398.0,976.0 408.0,972.7 418.0,969.2 428.0,965.5 438.0,961.7 448.0,957.6 458.0,953.4 468.0,948.9 478.0,944.3 488.0,939.6 498.0,934.6 508.0,929.5 518.0,924.3 528.0,918.9 538.0,913.3 548.0,907.7 558.0,901.9 568.0,896.0 578.0,890.1 588.0,884.0 598.0,877.8 608.0,871.6 618.0,865.3 628.0,859.0 638.0,852.6 648.0,846.2 658.0,839.8 668.0,833.4 678.0,827.0 688.0,820.6 698.0,814.3 708.0,808.0 718.0,801.7 728.0,795.5 738.0,789.4 748.0,783.5 758.0,777.6 768.0,771.8 778.0,766.2 788.0,760.7 798.0,755.4 808.0,750.2 818.0,745.2 828.0,740.5 838.0,735.9 848.0,731.5 858.0,727.4 868.0,723.6 878.0,719.9 888.0,716.6 898.0,713.5 908.0,710.7 918.0,708.2 928.0,706.0 938.0,704.1 948.0,702.5 958.0,701.2 968.0,700.3 978.0,699.7 988.0,699.4 998.0,699.5 1008.0,699.9 1018.0,700.7 1028.0,701.9 1038.0,703.3 1048.0,705.2 1058.0,707.3 1068.0,709.9 1078.0,712.7 1088.0,716.0 1098.0,719.5 1108.0,723.4 1118.0,727.6 1128.0,732.2 1138.0,737.0 1148.0,742.2 1158.0,747.6 1168.0,753.3 1178.0,759.3 1188.0,765.6 1198.0,772.1 1208.0,778.8 1218.0,785.7 1228.0,792.9 1238.0,800.2 1248.0,807.6 1258.0,815.3 1268.0,823.0 1278.0,830.8 1288.0,838.7 1298.0,846.7 1308.0,854.7 1318.0,862.7 1328.0,870.7 1338.0,878.7 1348.0,886.6 1358.0,894.5 1368.0,902.2 1378.0,909.8 1388.0,917.3 1398.0,924.5 1408.0,931.6 1418.0,938.4 1428.0,945.0 1438.0,951.3 1448.0,957.3 1458.0,963.0 1468.0,968.4 1478.0,973.4 1488.0,978.0 1498.0,982.1 1508.0,985.9 1518.0,989.2 1528.0,992.1 1538.0,994.5 1548.0,996.4 1558.0,997.9 1568.0,998.8 1578.0,999.2 1588.0,999.0 1598.0,998.4 1608.0,997.2 1618.0,995.5 1628.0,993.2 1638.0,990.4 1648.0,987.1 1658.0,983.2 1668.0,978.9 1678.0,974.0 1688.0,968.7 1698.0,962.8 1708.0,956.6 1718.0,949.8 1728.0,942.7 1738.0,935.1 1748.0,927.2 1758.0,919.0 1768.0,910.4 1778.0,901.6 1788.0,892.5 1798.0,883.1 1808.0,873.7 1818.0,864.0 1828.0,854.3 1838.0,844.5 1848.0,834.7 1858.0,824.9 1868.0,815.2 1878.0,805.6 1888.0,796.1 1898.0,786.9 1908.0,777.9 1918.0,769.2 1928.0,760.8 1938.0,752.8 1948.0,745.2 1958.0,738.0 1968.0,731.4 1978.0,725.3 1988.0,719.7 1998.0,714.8 2008.0,710.5 2018.0,706.9 2028.0,703.9 2038.0,701.7 2048.0,700.2 2058.0,699.5 2068.0,699.5 2078.0,700.4 2088.0,701.9 2098.0,704.3 2108.0,707.5 2118.0,711.4 2128.0,716.1 2138.0,721.5 2148.0,727.7 2158.0,734.6 2168.0,742.1 2178.0,750.3 2188.0,759.0 2198.0,768.4 2208.0,778.2 2218.0,788.5 2228.0,799.2 2238.0,810.2 2248.0,821.5 2258.0,833.0 2268.0,844.7 2278.0,856.5 2288.0,868.3 2298.0,880.0 2308.0,891.5 2318.0,902.9 2328.0,913.9 2338.0,924.6 2348.0,934.8 2358.0,944.5 2368.0,953.7 2378.0,962.1 2388.0,969.9 2398.0,976.8 2408.0,982.9 2418.0,988.1 2428.0,992.4 2438.0,995.6 2448.0,997.8 2458.0,999.0 2468.0,999.1 2478.0,998.1 2488.0,995.9 2498.0,992.7 2508.0,988.3 2518.0,982.9 2528.0,976.5 2538.0,969.0 2548.0,960.5 2558.0,951.1 2568.0,940.9 2578.0,929.9 2588.0,918.2 2598.0,905.8 2608.0,892.9 2618.0,879.6 2628.0,866.0 2638.0,852.2 2648.0,838.3 2658.0,824.4 2668.0,810.6 2678.0,797.2 2688.0,784.1 2698.0,771.6 2708.0,759.7 2718.0,748.6 2728.0,738.4 2738.0,729.1 2748.0,721.0 2758.0,714.0 2768.0,708.3 2778.0,704.0 2788.0,701.1 2798.0,699.6 2808.0,699.6 2818.0,701.2 2828.0,704.3 2838.0,708.9 2848.0,714.9 2858.0,722.5 2868.0,731.4 2878.0,741.6 2888.0,753.1 2898.0,765.7 2908.0,779.3 2918.0,793.7 2928.0,808.8 2938.0,824.5 2948.0,840.5 2958.0,856.8 2968.0,873.0 2978.0,889.0 2988.0,904.6 2998.0,919.6 3008.0,933.9 3018.0,947.2 3028.0,959.3 3038.0,970.0 3048.0,979.3 3058.0,987.0 3068.0,992.8 3078.0,996.8 3088.0,998.9 3098.0,998.9 3108.0,996.9 3118.0,992.9 3128.0,986.8 3138.0,978.8 3148.0,968.8 3158.0,957.1 3168.0,943.7 3178.0,928.9 3188.0,912.8 3198.0,895.7 3208.0,877.7 3218.0,859.3 3228.0,840.5 3238.0,821.8 3248.0,803.5 3258.0,785.8 3268.0,769.0 3278.0,753.4 3288.0,739.4 3298.0,727.1 3308.0,716.8 3318.0,708.8 3328.0,703.1 3338.0,700.0 3348.0,699.6 3358.0,701.8 3368.0,706.7 3378.0,714.3 3388.0,724.5 3398.0,737.0 3408.0,751.8 3418.0,768.6 3428.0,787.0 3438.0,806.7 3448.0,827.5 3458.0,848.8 3468.0,870.2 3478.0,891.3 3488.0,911.7 3498.0,930.8 3508.0,948.3 3518.0,963.8 3528.0,976.9 3538.0,987.2 3548.0,994.4 3558.0,998.4 3568.0,999.0 3578.0,996.1 3588.0,989.7 3598.0,979.9 3608.0,966.8 3618.0,950.8 3628.0,932.2 3638.0,911.4 3648.0,888.9 3658.0,865.2 3668.0,841.0 3678.0,816.8 3688.0,793.4 3698.0,771.3 3708.0,751.2 3718.0,733.7 3728.0,719.4 3738.0,708.6 3748.0,701.9 3758.0,699.4 3768.0,701.4 3778.0,707.8 3788.0,718.6 3798.0,733.4 3808.0,752.0 3818.0,773.8 3828.0,798.1 3838.0,824.3 3848.0,851.4 3858.0,878.7 3868.0,905.1 3878.0,929.8 3888.0,951.9 3898.0,970.5 3908.0,985.0 3918.0,994.6 3928.0,998.9 3938.0,997.8 3948.0,991.0 3958.0,978.8 3968.0,961.5 3978.0,939.6 3988.0,914.0 3998.0,885.7 4008.0,855.6 4018.0,825.1 4028.0,795.3" stroke="#000000" stroke-width="0.9" fill="none" opacity="0.43" stroke-linecap="round" stroke-linejoin="round"/>
<polyline points="244.0,398.8 254.0,398.9 264.0,399.4 274.0,400.1 284.0,401.1 294.0,402.4 304.0,403.9 314.0,405.7 324.0,407.6 334.0,409.8 344.0,412.2 354.0,414.6 364.0,417.2 374.0,419.9 384.0,422.6 394.0,425.4 404.0,428.1 414.0,430.7 424.0,433.3 434.0,435.7 444.0,438.0 454.0,440.1 464.0,442.0 474.0,443.6 484.0,444.9 494.0,445.8 504.0,446.5 514.0,446.7 524.0,446.6 534.0,446.1 544.0,445.1 554.0,443.8 564.0,441.9 574.0,439.6 584.0,436.9 594.0,433.7 604.0,430.1 614.0,426.1 624.0,421.6 634.0,416.8 644.0,411.5 654.0,405.9 664.0,400.0 674.0,393.9 684.0,387.4 694.0,380.8 704.0,374.0 714.0,367.0 724.0,360.0 734.0,352.9 744.0,345.9 754.0,338.9 764.0,332.0 774.0,325.4 784.0,318.9 794.0,312.7 804.0,306.8 814.0,301.3 824.0,296.3 834.0,291.7 844.0,287.6 854.0,284.1 864.0,281.1 874.0,278.8 884.0,277.2 894.0,276.3 904.0,276.0 914.0,276.6 924.0,277.8 934.0,279.9 944.0,282.7 954.0,286.2 964.0,290.6 974.0,295.7 984.0,301.5 994.0,308.1 1004.0,315.4 1014.0,323.3 1024.0,331.9 1034.0,341.0 1044.0,350.7 1054.0,360.9 1064.0,371.6 1074.0,382.6 1084.0,394.0 1094.0,405.6 1104.0,417.4 1114.0,429.4 1124.0,441.4 1134.0,453.4 1144.0,465.3 1154.0,477.1 1164.0,488.6 1174.0,499.8 1184.0,510.7 1194.0,521.0 1204.0,530.9 1214.0,540.1 1224.0,548.7 1234.0,556.6 1244.0,563.7 1254.0,569.9 1264.0,575.3 1274.0,579.7 1284.0,583.2 1294.0,585.7 1304.0,587.1 1314.0,587.4 1324.0,586.7 1334.0,584.9 1344.0,582.0 1354.0,578.0 1364.0,572.9 1374.0,566.8 1384.0,559.6 1394.0,551.4 1404.0,542.2 1414.0,532.1 1424.0,521.1 1434.0,509.3 1444.0,496.7 1454.0,483.4 1464.0,469.4 1474.0,454.9 1484.0,439.9 1494.0,424.5 1504.0,408.7 1514.0,392.8 1524.0,376.7 1534.0,360.5 1544.0,344.4 1554.0,328.5 1564.0,312.7 1574.0,297.3 1584.0,282.4 1594.0,267.9 1604.0,254.1 1614.0,240.9 1624.0,228.5 1634.0,217.0 1644.0,206.4 1654.0,196.8 1664.0,188.2 1674.0,180.8 1684.0,174.5 1694.0,169.5 1704.0,165.7 1714.0,163.2 1724.0,162.0 1734.0,162.1 1744.0,163.6 1754.0,166.4 1764.0,170.5 1774.0,175.9 1784.0,182.7 1794.0,190.7 1804.0,199.9 1814.0,210.3 1824.0,221.9 1834.0,234.5 1844.0,248.1 1854.0,262.6 1864.0,278.0 1874.0,294.1 1884.0,311.0 1894.0,328.4 1904.0,346.3 1914.0,364.6 1924.0,383.2 1934.0,401.9 1944.0,420.8 1954.0,439.6 1964.0,458.2 1974.0,476.6 1984.0,494.7 1994.0,512.3 2004.0,529.3 2014.0,545.6 2024.0,561.2 2034.0,576.0 2044.0,589.8 2054.0,602.6 2064.0,614.2 2074.0,624.8 2084.0,634.0 2094.0,642.0 2104.0,648.7 2114.0,653.9 2124.0,657.8 2134.0,660.2 2144.0,661.1 2154.0,660.6 2164.0,658.6 2174.0,655.2 2184.0,650.3 2194.0,644.0 2204.0,636.3 2214.0,627.3 2224.0,617.0 2234.0,605.4 2244.0,592.7 2254.0,578.8 2264.0,564.0 2274.0,548.2 2284.0,531.5 2294.0,514.1 2304.0,496.1 2314.0,477.4 2324.0,458.4 2334.0,439.0 2344.0,419.3 2354.0,399.6 2364.0,379.8 2374.0,360.2 2384.0,340.7 2394.0,321.6 2404.0,303.0 2414.0,284.9 2424.0,267.4 2434.0,250.7 2444.0,234.8 2454.0,219.9 2464.0,205.9 2474.0,193.1 2484.0,181.4 2494.0,171.0 2504.0,161.9 2514.0,154.1 2524.0,147.6 2534.0,142.6 2544.0,139.1 2554.0,136.9 2564.0,136.3 2574.0,137.1 2584.0,139.4 2594.0,143.2 2604.0,148.3 2614.0,154.8 2624.0,162.7 2634.0,171.9 2644.0,182.3 2654.0,193.9 2664.0,206.6 2674.0,220.3 2684.0,235.0 2694.0,250.5 2704.0,266.8 2714.0,283.8 2724.0,301.4 2734.0,319.4 2744.0,337.8 2754.0,356.4 2764.0,375.3 2774.0,394.1 2784.0,412.9 2794.0,431.5 2804.0,449.8 2814.0,467.8 2824.0,485.3 2834.0,502.2 2844.0,518.4 2854.0,533.9 2864.0,548.5 2874.0,562.2 2884.0,574.9 2894.0,586.5 2904.0,597.0 2914.0,606.4 2924.0,614.5 2934.0,621.4 2944.0,626.9 2954.0,631.2 2964.0,634.1 2974.0,635.7 2984.0,635.9 2994.0,634.8 3004.0,632.4 3014.0,628.7 3024.0,623.8 3034.0,617.6 3044.0,610.3 3054.0,601.8 3064.0,592.2 3074.0,581.7 3084.0,570.2 3094.0,557.9 3104.0,544.8 3114.0,531.0 3124.0,516.5 3134.0,501.6 3144.0,486.2 3154.0,470.5 3164.0,454.5 3174.0,438.4 3184.0,422.2 3194.0,406.1 3204.0,390.1 3214.0,374.3 3224.0,358.9 3234.0,343.8 3244.0,329.2 3254.0,315.1 3264.0,301.7 3274.0,289.0 3284.0,277.1 3294.0,266.0 3304.0,255.8 3314.0,246.5 3324.0,238.2 3334.0,231.0 3344.0,224.7 3354.0,219.5 3364.0,215.4 3374.0,212.4 3384.0,210.5 3394.0,209.7 3404.0,210.0 3414.0,211.3 3424.0,213.7 3434.0,217.1 3444.0,221.4 3454.0,226.7 3464.0,232.9 3474.0,240.0 3484.0,247.8 3494.0,256.3 3504.0,265.6 3514.0,275.4 3524.0,285.7 3534.0,296.6 3544.0,307.8 3554.0,319.3 3564.0,331.1 3574.0,343.0 3584.0,355.0 3594.0,367.1 3604.0,379.1 3614.0,391.0 3624.0,402.7 3634.0,414.1 3644.0,425.2 3654.0,435.9 3664.0,446.2 3674.0,456.0 3684.0,465.2 3694.0,473.9 3704.0,481.9 3714.0,489.2 3724.0,495.9 3734.0,501.8 3744.0,507.0 3754.0,511.4 3764.0,515.1 3774.0,518.0 3784.0,520.1 3794.0,521.5 3804.0,522.0 3814.0,521.9 3824.0,521.0 3834.0,519.4 3844.0,517.2 3854.0,514.3 3864.0,510.8 3874.0,506.8 3884.0,502.2 3894.0,497.2 3904.0,491.7 3914.0,485.8 3924.0,479.6 3934.0,473.2 3944.0,466.5 3954.0,459.6 3964.0,452.6 3974.0,445.5 3984.0,438.4 3994.0,431.3 4004.0,424.3 4014.0,417.5 4024.0,410.7" stroke="#000000" stroke-width="3.8" fill="none" opacity="0.62" stroke-linecap="round" stroke-linejoin="round"/>
<polyline points="-192.0,541.2 -182.0,550.0 -172.0,558.8 -162.0,567.7 -152.0,576.5 -142.0,585.3 -132.0,594.1 -122.0,602.8 -112.0,611.5 -102.0,620.1 -92.0,628.7 -82.0,637.1 -72.0,645.5 -62.0,653.7 -52.0,661.8 -42.0,669.8 -32.0,677.6 -22.0,685.3 -12.0,692.8 -2.0,700.1 8.0,707.2 18.0,714.1 28.0,720.8 38.0,727.2 48.0,733.4 58.0,739.4 68.0,745.1 78.0,750.5 88.0,755.6 98.0,760.4 108.0,764.9 118.0,769.1 128.0,773.0 138.0,776.6 148.0,779.8 158.0,782.6 168.0,785.1 178.0,787.3 188.0,789.0 198.0,790.4 208.0,791.4 218.0,792.1 228.0,792.3 238.0,792.1 248.0,791.6 258.0,790.6 268.0,789.2 278.0,787.4 288.0,785.3 298.0,782.7 308.0,779.7 318.0,776.3 328.0,772.5 338.0,768.3 348.0,763.7 358.0,758.7 368.0,753.3 378.0,747.6 388.0,741.5 398.0,735.0 408.0,728.1 418.0,720.9 428.0,713.3 438.0,705.5 448.0,697.3 458.0,688.8 468.0,680.0 478.0,670.9 488.0,661.5 498.0,651.9 508.0,642.1 518.0,632.0 528.0,621.8 538.0,611.3 548.0,600.7 558.0,590.0 568.0,579.1 578.0,568.1 588.0,557.0 598.0,545.8 608.0,534.6 618.0,523.4 628.0,512.2 638.0,501.0 648.0,489.8 658.0,478.7 668.0,467.8 678.0,456.9 688.0,446.1 698.0,435.6 708.0,425.2 718.0,415.0 728.0,405.1 738.0,395.4 748.0,386.1 758.0,377.0 768.0,368.2 778.0,359.9 788.0,351.8 798.0,344.2 808.0,337.0 818.0,330.3 828.0,324.0 838.0,318.2 848.0,312.9 858.0,308.1 868.0,303.8 878.0,300.1 888.0,297.0 898.0,294.4 908.0,292.4 918.0,291.0 928.0,290.2 938.0,290.1 948.0,290.5 958.0,291.6 968.0,293.3 978.0,295.7 988.0,298.7 998.0,302.3 1008.0,306.5 1018.0,311.4 1028.0,316.9 1038.0,323.0 1048.0,329.7 1058.0,337.0 1068.0,344.9 1078.0,353.3 1088.0,362.3 1098.0,371.8 1108.0,381.8 1118.0,392.3 1128.0,403.2 1138.0,414.6 1148.0,426.4 1158.0,438.5 1168.0,451.0 1178.0,463.8 1188.0,476.8 1198.0,490.1 1208.0,503.6 1218.0,517.2 1228.0,531.0 1238.0,544.9 1248.0,558.8 1258.0,572.6 1268.0,586.5 1278.0,600.2 1288.0,613.8 1298.0,627.3 1308.0,640.5 1318.0,653.4 1328.0,666.0 1338.0,678.3 1348.0,690.1 1358.0,701.5 1368.0,712.4 1378.0,722.8 1388.0,732.5 1398.0,741.7 1408.0,750.2 1418.0,758.1 1428.0,765.2 1438.0,771.5 1448.0,777.0 1458.0,781.8 1468.0,785.6 1478.0,788.7 1488.0,790.8 1498.0,792.0 1508.0,792.3 1518.0,791.6 1528.0,790.0 1538.0,787.5 1548.0,784.0 1558.0,779.6 1568.0,774.2 1578.0,767.9 1588.0,760.7 1598.0,752.6 1608.0,743.6 1618.0,733.8 1628.0,723.1 1638.0,711.7 1648.0,699.5 1658.0,686.6 1668.0,673.1 1678.0,658.9 1688.0,644.2 1698.0,629.0 1708.0,613.4 1718.0,597.4 1728.0,581.1 1738.0,564.5 1748.0,547.8 1758.0,530.9 1768.0,514.1 1778.0,497.3 1788.0,480.7 1798.0,464.2 1808.0,448.1 1818.0,432.3 1828.0,417.0 1838.0,402.2 1848.0,388.0 1858.0,374.5 1868.0,361.8 1878.0,349.9 1888.0,338.9 1898.0,328.9 1908.0,319.9 1918.0,312.0 1928.0,305.2 1938.0,299.6 1948.0,295.3 1958.0,292.2 1968.0,290.5 1978.0,290.1 1988.0,291.0 1998.0,293.3 2008.0,296.9 2018.0,302.0 2028.0,308.3 2038.0,316.1 2048.0,325.1 2058.0,335.4 2068.0,346.9 2078.0,359.6 2088.0,373.4 2098.0,388.2 2108.0,404.1 2118.0,420.8 2128.0,438.3 2138.0,456.5 2148.0,475.3 2158.0,494.6 2168.0,514.3 2178.0,534.3 2188.0,554.3 2198.0,574.4 2208.0,594.3 2218.0,614.0 2228.0,633.3 2238.0,652.0 2248.0,670.1 2258.0,687.4 2268.0,703.8 2278.0,719.1 2288.0,733.3 2298.0,746.1 2308.0,757.6 2318.0,767.6 2328.0,776.0 2338.0,782.7 2348.0,787.7 2358.0,790.9 2368.0,792.2 2378.0,791.7 2388.0,789.3 2398.0,784.9 2408.0,778.6 2418.0,770.5 2428.0,760.5 2438.0,748.8 2448.0,735.3 2458.0,720.2 2468.0,703.5 2478.0,685.5 2488.0,666.1 2498.0,645.7 2508.0,624.2 2518.0,601.9 2528.0,579.1 2538.0,555.7 2548.0,532.2 2558.0,508.6 2568.0,485.2 2578.0,462.2 2588.0,439.8 2598.0,418.2 2608.0,397.7 2618.0,378.4 2628.0,360.6 2638.0,344.4 2648.0,330.0 2658.0,317.6 2668.0,307.4 2678.0,299.4 2688.0,293.8 2698.0,290.7 2708.0,290.1 2718.0,292.2 2728.0,296.8 2738.0,304.0 2748.0,313.8 2758.0,326.0 2768.0,340.7 2778.0,357.6 2788.0,376.6 2798.0,397.5 2808.0,420.2 2818.0,444.4 2828.0,469.8 2838.0,496.1 2848.0,523.1 2858.0,550.5 2868.0,577.8 2878.0,604.9 2888.0,631.3 2898.0,656.8 2908.0,680.9 2918.0,703.4 2928.0,724.0 2938.0,742.3 2948.0,758.1 2958.0,771.2 2968.0,781.2 2978.0,788.1 2988.0,791.7 2998.0,792.0 3008.0,788.7 3018.0,782.0 3028.0,771.8 3038.0,758.4 3048.0,741.7 3058.0,722.0 3068.0,699.6 3078.0,674.7 3088.0,647.7 3098.0,618.9 3108.0,588.7 3118.0,557.7 3128.0,526.2 3138.0,494.8 3148.0,464.0 3158.0,434.3 3168.0,406.1 3178.0,380.1 3188.0,356.5 3198.0,336.0 3208.0,318.8 3218.0,305.4 3228.0,296.1 3238.0,291.0 3248.0,290.3 3258.0,294.2 3268.0,302.6 3278.0,315.4 3288.0,332.5 3298.0,353.7 3308.0,378.5 3318.0,406.6 3328.0,437.5 3338.0,470.7 3348.0,505.4 3358.0,541.0 3368.0,576.8 3378.0,612.2 3388.0,646.2 3398.0,678.2 3408.0,707.5 3418.0,733.3 3428.0,755.1 3438.0,772.2 3448.0,784.3 3458.0,791.0 3468.0,792.0 3478.0,787.1 3488.0,776.5 3498.0,760.2 3508.0,738.5 3518.0,711.9 3528.0,680.9 3538.0,646.3 3548.0,608.8 3558.0,569.3 3568.0,528.9 3578.0,488.6 3588.0,449.4 3598.0,412.4 3608.0,378.7 3618.0,349.3 3628.0,325.0 3638.0,306.6 3648.0,294.9 3658.0,290.1 3668.0,292.7 3678.0,302.6 3688.0,319.8 3698.0,343.8 3708.0,374.0 3718.0,409.6 3728.0,449.6 3738.0,492.7 3748.0,537.7 3758.0,583.1 3768.0,627.4 3778.0,669.1 3788.0,706.7 3798.0,738.8 3808.0,764.2 3818.0,781.9 3828.0,791.1 3838.0,791.2 3848.0,782.1 3858.0,763.9 3868.0,737.2 3878.0,702.8 3888.0,661.9 3898.0,615.9 3908.0,566.7 3918.0,516.0 3928.0,466.1 3938.0,419.0 3948.0,376.7 3958.0,341.1 3968.0,314.0 3978.0,296.6 3988.0,290.1 3998.0,294.8 4008.0,310.9 4018.0,337.8 4028.0,374.5" stroke="#000000" stroke-width="1.7" fill="none" opacity="0.59" stroke-linecap="round" stroke-linejoin="round"/>
<path d="M -384.0,303.8 C -166.8,463.1 57.1,313.6 274.3,338.5 C 491.5,567.0 715.3,357.1 932.6,300.6 C 1149.8,502.3 1373.6,204.0 1590.9,226.1 C 1808.1,289.0 2031.9,337.2 2249.1,122.7 C 2466.4,-78.1 2690.2,2.4 2907.4,120.8 C 3124.7,-65.1 3348.5,64.9 3565.7,211.0 C 3782.9,128.1 4006.8,251.0 4224.0,104.2" stroke="#000000" stroke-width="2.0" fill="none" opacity="0.32" stroke-linecap="round" stroke-linejoin="round"/>
<path d="M -384.0,895.4 C -166.8,652.1 57.1,711.5 274.3,897.6 C 491.5,832.8 715.3,1044.1 932.6,937.8 C 1149.8,709.8 1373.6,712.3 1590.9,910.0 C 1808.1,738.8 2031.9,1132.7 2249.1,957.5 C 2466.4,833.9 2690.2,1147.6 2907.4,1059.7 C 3124.7,827.9 3348.5,1139.7 3565.7,1153.4 C 3782.9,1007.8 4006.8,1389.9 4224.0,1235.5" stroke="#000000" stroke-width="3.2" fill="none" opacity="0.34" stroke-linecap="round" stroke-linejoin="round"/>
<polyline points="264.8,1655.6 274.8,1655.7 284.8,1655.9 294.8,1656.3 304.8,1656.8 314.8,1657.4 324.8,1658.2 334.8,1659.1 344.8,1660.2 354.8,1661.4 364.8,1662.7 374.8,1664.1 384.8,1665.7 394.8,1667.4 404.8,1669.2 414.8,1671.1 424.8,1673.1 434.8,1675.1 444.8,1677.3 454.8,1679.6 464.8,1681.9 474.8,1684.3 484.8,1686.8 494.8,1689.3 504.8,1691.9 514.8,1694.5 524.8,1697.1 534.8,1699.8 544.8,1702.4 554.8,1705.1 564.8,1707.8 574.8,1710.4 584.8,1713.1 594.8,1715.7 604.8,1718.3 614.8,1720.8 624.8,1723.3 634.8,1725.7 644.8,1728.0 654.8,1730.3 664.8,1732.4 674.8,1734.5 684.8,1736.5 694.8,1738.3 704.8,1740.0 714.8,1741.6 724.8,1743.1 734.8,1744.4 744.8,1745.6 754.8,1746.6 764.8,1747.5 774.8,1748.2 784.8,1748.7 794.8,1749.0 804.8,1749.2 814.8,1749.1 824.8,1748.9 834.8,1748.5 844.8,1747.9 854.8,1747.0 864.8,1746.0 874.8,1744.7 884.8,1743.3 894.8,1741.6 904.8,1739.8 914.8,1737.7 924.8,1735.4 934.8,1732.9 944.8,1730.1 954.8,1727.2 964.8,1724.1 974.8,1720.7 984.8,1717.2 994.8,1713.4 1004.8,1709.5 1014.8,1705.4 1024.8,1701.1 1034.8,1696.6 1044.8,1691.9 1054.8,1687.1 1064.8,1682.1 1074.8,1676.9 1084.8,1671.6 1094.8,1666.2 1104.8,1660.6 1114.8,1654.9 1124.8,1649.1 1134.8,1643.1 1144.8,1637.1 1154.8,1631.0 1164.8,1624.8 1174.8,1618.6 1184.8,1612.3 1194.8,1605.9 1204.8,1599.5 1214.8,1593.1 1224.8,1586.7 1234.8,1580.2 1244.8,1573.8 1254.8,1567.4 1264.8,1561.0 1274.8,1554.7 1284.8,1548.4 1294.8,1542.2 1304.8,1536.1 1314.8,1530.1 1324.8,1524.2 1334.8,1518.3 1344.8,1512.7 1354.8,1507.1 1364.8,1501.7 1374.8,1496.5 1384.8,1491.4 1394.8,1486.5 1404.8,1481.8 1414.8,1477.3 1424.8,1473.1 1434.8,1469.0 1444.8,1465.2 1454.8,1461.6 1464.8,1458.3 1474.8,1455.2 1484.8,1452.4 1494.8,1449.8 1504.8,1447.6 1514.8,1445.6 1524.8,1443.9 1534.8,1442.5 1544.8,1441.4 1554.8,1440.6 1564.8,1440.2 1574.8,1440.0 1584.8,1440.2 1594.8,1440.7 1604.8,1441.5 1614.8,1442.6 1624.8,1444.1 1634.8,1445.9 1644.8,1448.0 1654.8,1450.4 1664.8,1453.2 1674.8,1456.3 1684.8,1459.7 1694.8,1463.4 1704.8,1467.4 1714.8,1471.8 1724.8,1476.4 1734.8,1481.4 1744.8,1486.6 1754.8,1492.1 1764.8,1497.9 1774.8,1504.0 1784.8,1510.3 1794.8,1516.9 1804.8,1523.8 1814.8,1530.8 1824.8,1538.1 1834.8,1545.7 1844.8,1553.4 1854.8,1561.3 1864.8,1569.4 1874.8,1577.7 1884.8,1586.2 1894.8,1594.8 1904.8,1603.5 1914.8,1612.3 1924.8,1621.3 1934.8,1630.4 1944.8,1639.5 1954.8,1648.7 1964.8,1658.0 1974.8,1667.3 1984.8,1676.6 1994.8,1686.0 2004.8,1695.3 2014.8,1704.6 2024.8,1713.9 2034.8,1723.2 2044.8,1732.4 2054.8,1741.5 2064.8,1750.5 2074.8,1759.4 2084.8,1768.2 2094.8,1776.9 2104.8,1785.4 2114.8,1793.7 2124.8,1801.9 2134.8,1809.9 2144.8,1817.7 2154.8,1825.3 2164.8,1832.7 2174.8,1839.8 2184.8,1846.7 2194.8,1853.3 2204.8,1859.6 2214.8,1865.7 2224.8,1871.5 2234.8,1877.0 2244.8,1882.2 2254.8,1887.0 2264.8,1891.6 2274.8,1895.8 2284.8,1899.6 2294.8,1903.2 2304.8,1906.3 2314.8,1909.2 2324.8,1911.6 2334.8,1913.7 2344.8,1915.5 2354.8,1916.8 2364.8,1917.8 2374.8,1918.4 2384.8,1918.7 2394.8,1918.5 2404.8,1918.0 2414.8,1917.1 2424.8,1915.9 2434.8,1914.3 2444.8,1912.3 2454.8,1909.9 2464.8,1907.2 2474.8,1904.1 2484.8,1900.7 2494.8,1896.9 2504.8,1892.8 2514.8,1888.4 2524.8,1883.6 2534.8,1878.5 2544.8,1873.1 2554.8,1867.4 2564.8,1861.5 2574.8,1855.2 2584.8,1848.7 2594.8,1841.9 2604.8,1834.8 2614.8,1827.6 2624.8,1820.0 2634.8,1812.3 2644.8,1804.4 2654.8,1796.3 2664.8,1788.0 2674.8,1779.6 2684.8,1771.0 2694.8,1762.2 2704.8,1753.4 2714.8,1744.4 2724.8,1735.4 2734.8,1726.2 2744.8,1717.0 2754.8,1707.8 2764.8,1698.5 2774.8,1689.2 2784.8,1679.9 2794.8,1670.6 2804.8,1661.3 2814.8,1652.1 2824.8,1642.9 2834.8,1633.8 2844.8,1624.7 2854.8,1615.8 2864.8,1606.9 2874.8,1598.2 2884.8,1589.6 2894.8,1581.2 2904.8,1572.9 2914.8,1564.8 2924.8,1556.9 2934.8,1549.1 2944.8,1541.6 2954.8,1534.3 2964.8,1527.2 2974.8,1520.3 2984.8,1513.7 2994.8,1507.3 3004.8,1501.2 3014.8,1495.4 3024.8,1489.8 3034.8,1484.5 3044.8,1479.5 3054.8,1474.9 3064.8,1470.5 3074.8,1466.4 3084.8,1462.6 3094.8,1459.2 3104.8,1456.0 3114.8,1453.2 3124.8,1450.7 3134.8,1448.5 3144.8,1446.6 3154.8,1445.1 3164.8,1443.9 3174.8,1443.0 3184.8,1442.4 3194.8,1442.2 3204.8,1442.3 3214.8,1442.7 3224.8,1443.3 3234.8,1444.3 3244.8,1445.6 3254.8,1447.2 3264.8,1449.1 3274.8,1451.3 3284.8,1453.7 3294.8,1456.5 3304.8,1459.5 3314.8,1462.7 3324.8,1466.2 3334.8,1469.9 3344.8,1473.9 3354.8,1478.1 3364.8,1482.4 3374.8,1487.0 3384.8,1491.8 3394.8,1496.8 3404.8,1501.9 3414.8,1507.2 3424.8,1512.7 3434.8,1518.3 3444.8,1524.0 3454.8,1529.8 3464.8,1535.7 3474.8,1541.8 3484.8,1547.9 3494.8,1554.0 3504.8,1560.3 3514.8,1566.5 3524.8,1572.9 3534.8,1579.2 3544.8,1585.5 3554.8,1591.9 3564.8,1598.2 3574.8,1604.5 3584.8,1610.8 3594.8,1617.0 3604.8,1623.2 3614.8,1629.3 3624.8,1635.3 3634.8,1641.3 3644.8,1647.1 3654.8,1652.9 3664.8,1658.5 3674.8,1664.0 3684.8,1669.4 3694.8,1674.6 3704.8,1679.7 3714.8,1684.6 3724.8,1689.4 3734.8,1694.0 3744.8,1698.5 3754.8,1702.7 3764.8,1706.8 3774.8,1710.7 3784.8,1714.4 3794.8,1717.9 3804.8,1721.2 3814.8,1724.3 3824.8,1727.2 3834.8,1729.9 3844.8,1732.3 3854.8,1734.6 3864.8,1736.7 3874.8,1738.5 3884.8,1740.2 3894.8,1741.6 3904.8,1742.8 3914.8,1743.9 3924.8,1744.7 3934.8,1745.3 3944.8,1745.7 3954.8,1745.9 3964.8,1746.0 3974.8,1745.8 3984.8,1745.5 3994.8,1745.0 4004.8,1744.3 4014.8,1743.5 4024.8,1742.5" stroke="#000000" stroke-width="2.6" fill="none" opacity="0.60" stroke-linecap="round" stroke-linejoin="round"/>
<path d="M -384.0,775.6 C 122.9,691.3 645.1,934.4 1152.0,758.7 C 1658.9,895.8 2181.1,503.4 2688.0,655.0 C 3194.9,681.1 3717.1,566.6 4224.0,554.8" stroke="#000000" stroke-width="0.8" fill="none" opacity="0.57" stroke-linecap="round" stroke-linejoin="round"/>
<polyline points="6.9,1304.0 18.9,1311.5 30.9,1318.8 42.9,1326.0 54.9,1333.1 66.9,1339.8 78.9,1346.3 90.9,1352.4 102.9,1358.1 114.9,1363.3 126.9,1368.0 138.9,1372.1 150.9,1375.7 162.9,1378.6 174.9,1380.9 186.9,1382.5 198.9,1383.4 210.9,1383.7 222.9,1383.2 234.9,1382.1 246.9,1380.3 258.9,1377.8 270.9,1374.7 282.9,1371.0 294.9,1366.7 306.9,1361.8 318.9,1356.4 330.9,1350.6 342.9,1344.4 354.9,1337.8 366.9,1331.0 378.9,1323.9 390.9,1316.6 402.9,1309.2 414.9,1301.8 426.9,1294.4 438.9,1287.1 450.9,1279.9 462.9,1273.0 474.9,1266.3 486.9,1259.9 498.9,1253.9 510.9,1248.4 522.9,1243.3 534.9,1238.8 546.9,1234.8 558.9,1231.4 570.9,1228.7 582.9,1226.6 594.9,1225.2 606.9,1224.5 618.9,1224.4 630.9,1225.1 642.9,1226.4 654.9,1228.5 666.9,1231.1 678.9,1234.4 690.9,1238.3 702.9,1242.8 714.9,1247.8 726.9,1253.3 738.9,1259.3 750.9,1265.6 762.9,1272.2 774.9,1279.2 786.9,1286.3 798.9,1293.6 810.9,1301.0 822.9,1308.5 834.9,1315.9 846.9,1323.1 858.9,1330.2 870.9,1337.1 882.9,1343.7 894.9,1350.0 906.9,1355.9 918.9,1361.3 930.9,1366.2 942.9,1370.5 954.9,1374.3 966.9,1377.5 978.9,1380.1 990.9,1381.9 1002.9,1383.2 1014.9,1383.7 1026.9,1383.5 1038.9,1382.6 1050.9,1381.1 1062.9,1378.9 1074.9,1376.0 1086.9,1372.5 1098.9,1368.5 1110.9,1363.8 1122.9,1358.7 1134.9,1353.0 1146.9,1347.0 1158.9,1340.5 1170.9,1333.8 1182.9,1326.8 1194.9,1319.6 1206.9,1312.2 1218.9,1304.8 1230.9,1297.4 1242.9,1290.0 1254.9,1282.8 1266.9,1275.7 1278.9,1268.9 1290.9,1262.4 1302.9,1256.3 1314.9,1250.6 1326.9,1245.3 1338.9,1240.5 1350.9,1236.3 1362.9,1232.7 1374.9,1229.7 1386.9,1227.4 1398.9,1225.7 1410.9,1224.7 1422.9,1224.4 1434.9,1224.7 1446.9,1225.8 1458.9,1227.6 1470.9,1230.0 1482.9,1233.0 1494.9,1236.7 1506.9,1240.9 1518.9,1245.7 1530.9,1251.0 1542.9,1256.8 1554.9,1263.0 1566.9,1269.5 1578.9,1276.4 1590.9,1283.4 1602.9,1290.7 1614.9,1298.1 1626.9,1305.5 1638.9,1312.9 1650.9,1320.2 1662.9,1327.4 1674.9,1334.4 1686.9,1341.1 1698.9,1347.5 1710.9,1353.5 1722.9,1359.1 1734.9,1364.3 1746.9,1368.8 1758.9,1372.9 1770.9,1376.3 1782.9,1379.1 1794.9,1381.3 1806.9,1382.8 1818.9,1383.5 1830.9,1383.7 1842.9,1383.1 1854.9,1381.8 1866.9,1379.9 1878.9,1377.3 1890.9,1374.0 1902.9,1370.2 1914.9,1365.8 1926.9,1360.8 1938.9,1355.3 1950.9,1349.4 1962.9,1343.2 1974.9,1336.5 1986.9,1329.6 1998.9,1322.5 2010.9,1315.2 2022.9,1307.8 2034.9,1300.4 2046.9,1293.0 2058.9,1285.7 2070.9,1278.6 2082.9,1271.6 2094.9,1265.0 2106.9,1258.7 2118.9,1252.8 2130.9,1247.4 2142.9,1242.4 2154.9,1238.0 2166.9,1234.1 2178.9,1230.9 2190.9,1228.2 2202.9,1226.3 2214.9,1225.0 2226.9,1224.4 2238.9,1224.5 2250.9,1225.3 2262.9,1226.8 2274.9,1228.9 2286.9,1231.7 2298.9,1235.1 2310.9,1239.2 2322.9,1243.7 2334.9,1248.9 2346.9,1254.4 2358.9,1260.5 2370.9,1266.9 2382.9,1273.6 2394.9,1280.6 2406.9,1287.7 2418.9,1295.1 2430.9,1302.5 2442.9,1309.9 2454.9,1317.3 2466.9,1324.5 2478.9,1331.6 2490.9,1338.4 2502.9,1345.0 2514.9,1351.2 2526.9,1356.9 2538.9,1362.3 2550.9,1367.1 2562.9,1371.3 2574.9,1375.0 2586.9,1378.1 2598.9,1380.5 2610.9,1382.2 2622.9,1383.3 2634.9,1383.7 2646.9,1383.4 2658.9,1382.4 2670.9,1380.7 2682.9,1378.4 2694.9,1375.4 2706.9,1371.8 2718.9,1367.6 2730.9,1362.9 2742.9,1357.6 2754.9,1351.9 2766.9,1345.7 2778.9,1339.2 2790.9,1332.4 2802.9,1325.4 2814.9,1318.1 2826.9,1310.8 2838.9,1303.4 2850.9,1296.0 2862.9,1288.6 2874.9,1281.4 2886.9,1274.4 2898.9,1267.6 2910.9,1261.2 2922.9,1255.1 2934.9,1249.5 2946.9,1244.3 2958.9,1239.7 2970.9,1235.6 2982.9,1232.1 2994.9,1229.2 3006.9,1227.0 3018.9,1225.4 3030.9,1224.6 3042.9,1224.4 3054.9,1224.9 3066.9,1226.1 3078.9,1228.0 3090.9,1230.5 3102.9,1233.7 3114.9,1237.5 3126.9,1241.8 3138.9,1246.7 3150.9,1252.1 3162.9,1258.0 3174.9,1264.2 3186.9,1270.8 3198.9,1277.7 3210.9,1284.8 3222.9,1292.1 3234.9,1299.5 3246.9,1306.9 3258.9,1314.3 3270.9,1321.6 3282.9,1328.8 3294.9,1335.7 3306.9,1342.4 3318.9,1348.7 3330.9,1354.7 3342.9,1360.2 3354.9,1365.2 3366.9,1369.7 3378.9,1373.6 3390.9,1376.9 3402.9,1379.6 3414.9,1381.6 3426.9,1383.0 3438.9,1383.6 3450.9,1383.6 3462.9,1382.9 3474.9,1381.5 3486.9,1379.4 3498.9,1376.7 3510.9,1373.3 3522.9,1369.4 3534.9,1364.8 3546.9,1359.8 3558.9,1354.2 3570.9,1348.3 3582.9,1341.9 3594.9,1335.2 3606.9,1328.2 3618.9,1321.1 3630.9,1313.8 3642.9,1306.4 3654.9,1298.9 3666.9,1291.6 3678.9,1284.3 3690.9,1277.2 3702.9,1270.3 3714.9,1263.8 3726.9,1257.5 3738.9,1251.7 3750.9,1246.3 3762.9,1241.5 3774.9,1237.2 3786.9,1233.4 3798.9,1230.3 3810.9,1227.8 3822.9,1226.0 3834.9,1224.8 3846.9,1224.4 3858.9,1224.6 3870.9,1225.5 3882.9,1227.1 3894.9,1229.4 3906.9,1232.3 3918.9,1235.9 3930.9,1240.0 3942.9,1244.7 3954.9,1249.9 3966.9,1255.6 3978.9,1261.7 3990.9,1268.1 4002.9,1274.9 4014.9,1281.9 4026.9,1289.2 4038.9,1296.5 4050.9,1303.9 4062.9,1311.3 4074.9,1318.7 4086.9,1325.9 4098.9,1333.0 4110.9,1339.7 4122.9,1346.2 4134.9,1352.3 4146.9,1358.0 4158.9,1363.2 4170.9,1367.9 4182.9,1372.1 4194.9,1375.6 4206.9,1378.6 4218.9,1380.9" stroke="#000000" stroke-width="3.2" fill="none" opacity="0.56" stroke-linecap="round" stroke-linejoin="round"/>
<path d="M -384.0,1501.9 C 122.9,1383.7 645.1,1473.5 1152.0,1591.8 C 1658.9,1637.4 2181.1,1794.7 2688.0,1671.2 C 3194.9,1563.2 3717.1,1872.5 4224.0,1637.6" stroke="#000000" stroke-width="1.2" fill="none" opacity="0.26" stroke-linecap="round" stroke-linejoin="round"/>
<polyline points="-192.0,1020.7 -182.0,1027.9 -172.0,1035.1 -162.0,1042.3 -152.0,1049.4 -142.0,1056.6 -132.0,1063.7 -122.0,1070.8 -112.0,1077.8 -102.0,1084.8 -92.0,1091.7 -82.0,1098.5 -72.0,1105.3 -62.0,1111.9 -52.0,1118.4 -42.0,1124.8 -32.0,1131.1 -22.0,1137.2 -12.0,1143.2 -2.0,1149.0 8.0,1154.7 18.0,1160.1 28.0,1165.4 38.0,1170.4 48.0,1175.3 58.0,1179.9 68.0,1184.3 78.0,1188.4 88.0,1192.3 98.0,1196.0 108.0,1199.4 118.0,1202.5 128.0,1205.3 138.0,1207.8 148.0,1210.1 158.0,1212.0 168.0,1213.7 178.0,1215.0 188.0,1216.0 198.0,1216.7 208.0,1217.0 218.0,1217.1 228.0,1216.8 238.0,1216.1 248.0,1215.2 258.0,1213.9 268.0,1212.2 278.0,1210.2 288.0,1207.9 298.0,1205.2 308.0,1202.2 318.0,1198.9 328.0,1195.2 338.0,1191.3 348.0,1186.9 358.0,1182.3 368.0,1177.4 378.0,1172.1 388.0,1166.6 398.0,1160.7 408.0,1154.6 418.0,1148.2 428.0,1141.6 438.0,1134.7 448.0,1127.5 458.0,1120.1 468.0,1112.5 478.0,1104.7 488.0,1096.7 498.0,1088.5 508.0,1080.2 518.0,1071.7 528.0,1063.1 538.0,1054.4 548.0,1045.6 558.0,1036.6 568.0,1027.7 578.0,1018.7 588.0,1009.6 598.0,1000.6 608.0,991.6 618.0,982.6 628.0,973.6 638.0,964.8 648.0,956.0 658.0,947.4 668.0,938.8 678.0,930.5 688.0,922.3 698.0,914.3 708.0,906.5 718.0,899.0 728.0,891.7 738.0,884.7 748.0,878.0 758.0,871.6 768.0,865.6 778.0,859.9 788.0,854.5 798.0,849.6 808.0,845.0 818.0,840.9 828.0,837.2 838.0,833.9 848.0,831.1 858.0,828.8 868.0,827.0 878.0,825.6 888.0,824.7 898.0,824.4 908.0,824.5 918.0,825.2 928.0,826.4 938.0,828.1 948.0,830.3 958.0,833.1 968.0,836.3 978.0,840.1 988.0,844.4 998.0,849.2 1008.0,854.5 1018.0,860.3 1028.0,866.6 1038.0,873.3 1048.0,880.4 1058.0,888.0 1068.0,896.0 1078.0,904.4 1088.0,913.2 1098.0,922.3 1108.0,931.8 1118.0,941.5 1128.0,951.6 1138.0,961.8 1148.0,972.3 1158.0,983.0 1168.0,993.8 1178.0,1004.8 1188.0,1015.8 1198.0,1026.9 1208.0,1038.0 1218.0,1049.1 1228.0,1060.1 1238.0,1071.1 1248.0,1081.9 1258.0,1092.6 1268.0,1103.0 1278.0,1113.3 1288.0,1123.2 1298.0,1132.8 1308.0,1142.1 1318.0,1151.0 1328.0,1159.5 1338.0,1167.5 1348.0,1175.0 1358.0,1182.0 1368.0,1188.4 1378.0,1194.3 1388.0,1199.5 1398.0,1204.1 1408.0,1208.0 1418.0,1211.3 1428.0,1213.8 1438.0,1215.7 1448.0,1216.8 1458.0,1217.1 1468.0,1216.7 1478.0,1215.5 1488.0,1213.5 1498.0,1210.8 1508.0,1207.3 1518.0,1203.0 1528.0,1198.0 1538.0,1192.3 1548.0,1185.8 1558.0,1178.6 1568.0,1170.7 1578.0,1162.2 1588.0,1153.0 1598.0,1143.2 1608.0,1132.9 1618.0,1122.0 1628.0,1110.7 1638.0,1098.9 1648.0,1086.7 1658.0,1074.2 1668.0,1061.4 1678.0,1048.3 1688.0,1035.1 1698.0,1021.8 1708.0,1008.4 1718.0,995.0 1728.0,981.7 1738.0,968.5 1748.0,955.5 1758.0,942.8 1768.0,930.4 1778.0,918.4 1788.0,906.8 1798.0,895.8 1808.0,885.4 1818.0,875.6 1828.0,866.5 1838.0,858.2 1848.0,850.7 1858.0,844.0 1868.0,838.2 1878.0,833.4 1888.0,829.6 1898.0,826.8 1908.0,825.1 1918.0,824.4 1928.0,824.8 1938.0,826.3 1948.0,828.8 1958.0,832.5 1968.0,837.3 1978.0,843.2 1988.0,850.1 1998.0,858.0 2008.0,867.0 2018.0,876.9 2028.0,887.7 2038.0,899.3 2048.0,911.7 2058.0,924.9 2068.0,938.7 2078.0,953.1 2088.0,968.0 2098.0,983.2 2108.0,998.8 2118.0,1014.6 2128.0,1030.5 2138.0,1046.4 2148.0,1062.1 2158.0,1077.7 2168.0,1093.0 2178.0,1107.8 2188.0,1122.1 2198.0,1135.8 2208.0,1148.7 2218.0,1160.7 2228.0,1171.9 2238.0,1181.9 2248.0,1190.9 2258.0,1198.6 2268.0,1205.1 2278.0,1210.3 2288.0,1214.0 2298.0,1216.3 2308.0,1217.1 2318.0,1216.4 2328.0,1214.2 2338.0,1210.4 2348.0,1205.2 2358.0,1198.4 2368.0,1190.2 2378.0,1180.6 2388.0,1169.6 2398.0,1157.3 2408.0,1143.9 2418.0,1129.3 2428.0,1113.8 2438.0,1097.4 2448.0,1080.2 2458.0,1062.5 2468.0,1044.3 2478.0,1025.8 2488.0,1007.2 2498.0,988.6 2508.0,970.3 2518.0,952.3 2528.0,934.8 2538.0,918.1 2548.0,902.3 2558.0,887.6 2568.0,874.0 2578.0,861.9 2588.0,851.2 2598.0,842.2 2608.0,834.9 2618.0,829.5 2628.0,825.9 2638.0,824.4 2648.0,824.9 2658.0,827.5 2668.0,832.2 2678.0,838.9 2688.0,847.5 2698.0,858.2 2708.0,870.6 2718.0,884.8 2728.0,900.6 2738.0,917.8 2748.0,936.3 2758.0,955.9 2768.0,976.3 2778.0,997.3 2788.0,1018.7 2798.0,1040.3 2808.0,1061.7 2818.0,1082.7 2828.0,1103.1 2838.0,1122.5 2848.0,1140.7 2858.0,1157.5 2868.0,1172.6 2878.0,1185.8 2888.0,1196.9 2898.0,1205.7 2908.0,1212.1 2918.0,1215.9 2928.0,1217.1 2938.0,1215.5 2948.0,1211.2 2958.0,1204.2 2968.0,1194.6 2978.0,1182.3 2988.0,1167.7 2998.0,1150.8 3008.0,1131.9 3018.0,1111.3 3028.0,1089.1 3038.0,1065.8 3048.0,1041.6 3058.0,1017.0 3068.0,992.4 3078.0,968.0 3088.0,944.4 3098.0,921.9 3108.0,900.9 3118.0,881.8 3128.0,865.0 3138.0,850.7 3148.0,839.3 3158.0,831.0 3168.0,825.9 3178.0,824.4 3188.0,826.3 3198.0,831.8 3208.0,840.9 3218.0,853.3 3228.0,868.9 3238.0,887.5 3248.0,908.8 3258.0,932.4 3268.0,957.8 3278.0,984.7 3288.0,1012.4 3298.0,1040.4 3308.0,1068.2 3318.0,1095.2 3328.0,1120.7 3338.0,1144.3 3348.0,1165.3 3358.0,1183.3 3368.0,1197.8 3378.0,1208.5 3388.0,1215.0 3398.0,1217.1 3408.0,1214.7 3418.0,1207.7 3428.0,1196.3 3438.0,1180.6 3448.0,1161.0 3458.0,1137.8 3468.0,1111.6 3478.0,1083.0 3488.0,1052.6 3498.0,1021.2 3508.0,989.6 3518.0,958.7 3528.0,929.2 3538.0,902.0 3548.0,877.8 3558.0,857.5 3568.0,841.6 3578.0,830.6 3588.0,825.1 3598.0,825.1 3608.0,830.9 3618.0,842.3 3628.0,859.2 3638.0,881.0 3648.0,907.4 3658.0,937.4 3668.0,970.2 3678.0,1004.8 3688.0,1040.2 3698.0,1075.1 3708.0,1108.5 3718.0,1139.1 3728.0,1165.9 3738.0,1187.9 3748.0,1204.2 3758.0,1214.1 3768.0,1217.1 3778.0,1213.0 3788.0,1201.8 3798.0,1183.8 3808.0,1159.5 3818.0,1129.8 3828.0,1095.7 3838.0,1058.3 3848.0,1019.3 3858.0,980.0 3868.0,942.2 3878.0,907.3 3888.0,877.0 3898.0,852.6 3908.0,835.2 3918.0,825.9 3928.0,825.1 3938.0,833.1 3948.0,849.7 3958.0,874.3 3968.0,905.9 3978.0,943.2 3988.0,984.5 3998.0,1027.8 4008.0,1071.0 4018.0,1112.1 4028.0,1148.8" stroke="#000000" stroke-width="2.3" fill="none" opacity="0.51" stroke-linecap="round" stroke-linejoin="round"/>
<path d="M -384.0,1350.7 C 122.9,1463.6 645.1,1242.6 1152.0,1257.4 C 1658.9,1174.6 2181.1,1234.0 2688.0,1332.6 C 3194.9,1327.1 3717.1,1239.9 4224.0,1396.4" stroke="#000000" stroke-width="4.0" fill="none" opacity="0.69" stroke-linecap="round" stroke-linejoin="round"/>
<polyline points="222.7,439.3 234.7,458.1 246.7,476.8 258.7,495.4 270.7,513.9 282.7,532.1 294.7,550.0 306.7,567.7 318.7,584.9 330.7,601.7 342.7,618.1 354.7,633.9 366.7,649.1 378.7,663.7 390.7,677.7 402.7,690.9 414.7,703.4 426.7,715.1 438.7,726.0 450.7,736.1 462.7,745.2 474.7,753.5 486.7,760.8 498.7,767.2 510.7,772.6 522.7,777.1 534.7,780.5 546.7,782.9 558.7,784.3 570.7,784.7 582.7,784.1 594.7,782.4 606.7,779.7 618.7,776.0 630.7,771.4 642.7,765.7 654.7,759.1 666.7,751.5 678.7,743.0 690.7,733.6 702.7,723.3 714.7,712.2 726.7,700.3 738.7,687.6 750.7,674.2 762.7,660.1 774.7,645.3 786.7,629.9 798.7,614.0 810.7,597.5 822.7,580.6 834.7,563.2 846.7,545.5 858.7,527.5 870.7,509.2 882.7,490.7 894.7,472.0 906.7,453.3 918.7,434.5 930.7,415.7 942.7,397.0 954.7,378.4 966.7,360.0 978.7,341.9 990.7,324.0 1002.7,306.4 1014.7,289.3 1026.7,272.6 1038.7,256.4 1050.7,240.7 1062.7,225.6 1074.7,211.2 1086.7,197.4 1098.7,184.4 1110.7,172.1 1122.7,160.6 1134.7,149.9 1146.7,140.0 1158.7,131.1 1170.7,123.1 1182.7,116.0 1194.7,109.8 1206.7,104.7 1218.7,100.5 1230.7,97.3 1242.7,95.2 1254.7,94.0 1266.7,93.9 1278.7,94.8 1290.7,96.7 1302.7,99.6 1314.7,103.6 1326.7,108.5 1338.7,114.4 1350.7,121.3 1362.7,129.1 1374.7,137.8 1386.7,147.5 1398.7,158.0 1410.7,169.3 1422.7,181.4 1434.7,194.3 1446.7,207.9 1458.7,222.2 1470.7,237.1 1482.7,252.6 1494.7,268.7 1506.7,285.3 1518.7,302.3 1530.7,319.8 1542.7,337.6 1554.7,355.7 1566.7,374.1 1578.7,392.6 1590.7,411.3 1602.7,430.0 1614.7,448.8 1626.7,467.6 1638.7,486.3 1650.7,504.8 1662.7,523.2 1674.7,541.3 1686.7,559.1 1698.7,576.5 1710.7,593.5 1722.7,610.1 1734.7,626.2 1746.7,641.7 1758.7,656.6 1770.7,670.9 1782.7,684.5 1794.7,697.4 1806.7,709.5 1818.7,720.8 1830.7,731.2 1842.7,740.9 1854.7,749.6 1866.7,757.4 1878.7,764.2 1890.7,770.1 1902.7,775.0 1914.7,778.9 1926.7,781.9 1938.7,783.8 1950.7,784.6 1962.7,784.5 1974.7,783.3 1986.7,781.2 1998.7,778.0 2010.7,773.8 2022.7,768.6 2034.7,762.4 2046.7,755.3 2058.7,747.3 2070.7,738.3 2082.7,728.5 2094.7,717.8 2106.7,706.3 2118.7,693.9 2130.7,680.9 2142.7,667.1 2154.7,652.6 2166.7,637.5 2178.7,621.9 2190.7,605.6 2202.7,588.9 2214.7,571.8 2226.7,554.2 2238.7,536.4 2250.7,518.2 2262.7,499.8 2274.7,481.2 2286.7,462.5 2298.7,443.7 2310.7,424.9 2322.7,406.2 2334.7,387.5 2346.7,369.0 2358.7,350.7 2370.7,332.7 2382.7,315.0 2394.7,297.7 2406.7,280.7 2418.7,264.3 2430.7,248.3 2442.7,233.0 2454.7,218.2 2466.7,204.1 2478.7,190.7 2490.7,178.0 2502.7,166.1 2514.7,155.0 2526.7,144.8 2538.7,135.4 2550.7,126.9 2562.7,119.3 2574.7,112.7 2586.7,107.1 2598.7,102.4 2610.7,98.8 2622.7,96.1 2634.7,94.4 2646.7,93.8 2658.7,94.2 2670.7,95.6 2682.7,98.1 2694.7,101.5 2706.7,106.0 2718.7,111.4 2730.7,117.8 2742.7,125.2 2754.7,133.4 2766.7,142.6 2778.7,152.7 2790.7,163.6 2802.7,175.3 2814.7,187.9 2826.7,201.1 2838.7,215.1 2850.7,229.7 2862.7,244.9 2874.7,260.8 2886.7,277.1 2898.7,293.9 2910.7,311.2 2922.7,328.8 2934.7,346.8 2946.7,365.0 2958.7,383.5 2970.7,402.1 2982.7,420.8 2994.7,439.6 3006.7,458.4 3018.7,477.1 3030.7,495.7 3042.7,514.2 3054.7,532.4 3066.7,550.4 3078.7,568.0 3090.7,585.2 3102.7,602.0 3114.7,618.4 3126.7,634.2 3138.7,649.4 3150.7,664.0 3162.7,677.9 3174.7,691.1 3186.7,703.6 3198.7,715.3 3210.7,726.2 3222.7,736.2 3234.7,745.4 3246.7,753.7 3258.7,761.0 3270.7,767.3 3282.7,772.7 3294.7,777.1 3306.7,780.6 3318.7,783.0 3330.7,784.3 3342.7,784.7 3354.7,784.0 3366.7,782.4 3378.7,779.7 3390.7,776.0 3402.7,771.3 3414.7,765.6 3426.7,758.9 3438.7,751.4 3450.7,742.8 3462.7,733.4 3474.7,723.1 3486.7,712.0 3498.7,700.1 3510.7,687.4 3522.7,673.9 3534.7,659.8 3546.7,645.0 3558.7,629.6 3570.7,613.7 3582.7,597.2 3594.7,580.3 3606.7,562.9 3618.7,545.2 3630.7,527.1 3642.7,508.8 3654.7,490.3 3666.7,471.7 3678.7,452.9 3690.7,434.1 3702.7,415.4 3714.7,396.7 3726.7,378.1 3738.7,359.7 3750.7,341.5 3762.7,323.7 3774.7,306.1 3786.7,289.0 3798.7,272.3 3810.7,256.1 3822.7,240.4 3834.7,225.4 3846.7,210.9 3858.7,197.2 3870.7,184.1 3882.7,171.9 3894.7,160.4 3906.7,149.7 3918.7,139.9 3930.7,130.9 3942.7,122.9 3954.7,115.9 3966.7,109.7 3978.7,104.6 3990.7,100.4 4002.7,97.3 4014.7,95.1 4026.7,94.0 4038.7,93.9 4050.7,94.8 4062.7,96.8 4074.7,99.7 4086.7,103.7 4098.7,108.6 4110.7,114.5 4122.7,121.4 4134.7,129.3 4146.7,138.0 4158.7,147.7 4170.7,158.2 4182.7,169.5 4194.7,181.6 4206.7,194.5 4218.7,208.1" stroke="#000000" stroke-width="3.3" fill="none" opacity="0.60" stroke-linecap="round" stroke-linejoin="round"/>
<polyline points="-192.0,1156.4 -182.0,1163.6 -172.0,1170.7 -162.0,1177.9 -152.0,1185.0 -142.0,1192.1 -132.0,1199.2 -122.0,1206.3 -112.0,1213.3 -102.0,1220.3 -92.0,1227.2 -82.0,1234.0 -72.0,1240.7 -62.0,1247.3 -52.0,1253.8 -42.0,1260.2 -32.0,1266.5 -22.0,1272.6 -12.0,1278.6 -2.0,1284.4 8.0,1290.0 18.0,1295.5 28.0,1300.8 38.0,1305.8 48.0,1310.7 58.0,1315.3 68.0,1319.8 78.0,1323.9 88.0,1327.9 98.0,1331.6 108.0,1335.0 118.0,1338.1 128.0,1341.0 138.0,1343.6 148.0,1345.9 158.0,1347.9 168.0,1349.6 178.0,1351.0 188.0,1352.1 198.0,1352.9 208.0,1353.3 218.0,1353.4 228.0,1353.2 238.0,1352.7 248.0,1351.8 258.0,1350.6 268.0,1349.0 278.0,1347.1 288.0,1344.9 298.0,1342.4 308.0,1339.5 318.0,1336.3 328.0,1332.7 338.0,1328.9 348.0,1324.7 358.0,1320.1 368.0,1315.3 378.0,1310.2 388.0,1304.8 398.0,1299.0 408.0,1293.0 418.0,1286.8 428.0,1280.2 438.0,1273.4 448.0,1266.4 458.0,1259.1 468.0,1251.6 478.0,1243.9 488.0,1236.0 498.0,1227.9 508.0,1219.7 518.0,1211.3 528.0,1202.7 538.0,1194.0 548.0,1185.3 558.0,1176.4 568.0,1167.5 578.0,1158.5 588.0,1149.5 598.0,1140.5 608.0,1131.5 618.0,1122.5 628.0,1113.5 638.0,1104.7 648.0,1095.9 658.0,1087.2 668.0,1078.6 678.0,1070.2 688.0,1061.9 698.0,1053.8 708.0,1045.9 718.0,1038.3 728.0,1030.9 738.0,1023.7 748.0,1016.9 758.0,1010.3 768.0,1004.1 778.0,998.2 788.0,992.7 798.0,987.5 808.0,982.7 818.0,978.4 828.0,974.4 838.0,970.9 848.0,967.8 858.0,965.2 868.0,963.1 878.0,961.4 888.0,960.3 898.0,959.6 908.0,959.4 918.0,959.8 928.0,960.6 938.0,962.0 948.0,963.9 958.0,966.3 968.0,969.2 978.0,972.7 988.0,976.6 998.0,981.1 1008.0,986.1 1018.0,991.5 1028.0,997.4 1038.0,1003.8 1048.0,1010.7 1058.0,1018.0 1068.0,1025.7 1078.0,1033.8 1088.0,1042.3 1098.0,1051.2 1108.0,1060.4 1118.0,1069.9 1128.0,1079.7 1138.0,1089.8 1148.0,1100.1 1158.0,1110.6 1168.0,1121.3 1178.0,1132.2 1188.0,1143.2 1198.0,1154.2 1208.0,1165.3 1218.0,1176.4 1228.0,1187.5 1238.0,1198.5 1248.0,1209.4 1258.0,1220.2 1268.0,1230.8 1278.0,1241.2 1288.0,1251.4 1298.0,1261.2 1308.0,1270.8 1318.0,1280.0 1328.0,1288.8 1338.0,1297.2 1348.0,1305.1 1358.0,1312.5 1368.0,1319.4 1378.0,1325.7 1388.0,1331.5 1398.0,1336.6 1408.0,1341.1 1418.0,1344.9 1428.0,1348.0 1438.0,1350.5 1448.0,1352.2 1458.0,1353.2 1468.0,1353.4 1478.0,1352.9 1488.0,1351.6 1498.0,1349.5 1508.0,1346.7 1518.0,1343.1 1528.0,1338.7 1538.0,1333.6 1548.0,1327.8 1558.0,1321.2 1568.0,1314.0 1578.0,1306.0 1588.0,1297.4 1598.0,1288.2 1608.0,1278.3 1618.0,1267.9 1628.0,1257.0 1638.0,1245.7 1648.0,1233.8 1658.0,1221.6 1668.0,1209.1 1678.0,1196.2 1688.0,1183.2 1698.0,1169.9 1708.0,1156.6 1718.0,1143.2 1728.0,1129.8 1738.0,1116.5 1748.0,1103.3 1758.0,1090.3 1768.0,1077.6 1778.0,1065.2 1788.0,1053.3 1798.0,1041.7 1808.0,1030.7 1818.0,1020.3 1828.0,1010.5 1838.0,1001.5 1848.0,993.2 1858.0,985.7 1868.0,979.0 1878.0,973.3 1888.0,968.5 1898.0,964.7 1908.0,961.9 1918.0,960.1 1928.0,959.4 1938.0,959.8 1948.0,961.3 1958.0,963.9 1968.0,967.6 1978.0,972.3 1988.0,978.2 1998.0,985.1 2008.0,993.0 2018.0,1001.9 2028.0,1011.8 2038.0,1022.6 2048.0,1034.2 2058.0,1046.6 2068.0,1059.8 2078.0,1073.6 2088.0,1087.9 2098.0,1102.8 2108.0,1118.1 2118.0,1133.6 2128.0,1149.4 2138.0,1165.3 2148.0,1181.2 2158.0,1197.1 2168.0,1212.7 2178.0,1228.0 2188.0,1242.8 2198.0,1257.2 2208.0,1270.9 2218.0,1283.9 2228.0,1296.0 2238.0,1307.2 2248.0,1317.4 2258.0,1326.5 2268.0,1334.3 2278.0,1340.9 2288.0,1346.2 2298.0,1350.0 2308.0,1352.5 2318.0,1353.4 2328.0,1352.8 2338.0,1350.8 2348.0,1347.2 2358.0,1342.0 2368.0,1335.4 2378.0,1327.3 2388.0,1317.8 2398.0,1307.0 2408.0,1294.8 2418.0,1281.5 2428.0,1267.0 2438.0,1251.6 2448.0,1235.2 2458.0,1218.1 2468.0,1200.4 2478.0,1182.3 2488.0,1163.8 2498.0,1145.1 2508.0,1126.5 2518.0,1108.1 2528.0,1090.0 2538.0,1072.5 2548.0,1055.6 2558.0,1039.7 2568.0,1024.7 2578.0,1011.0 2588.0,998.6 2598.0,987.7 2608.0,978.4 2618.0,970.9 2628.0,965.2 2638.0,961.4 2648.0,959.6 2658.0,959.8 2668.0,962.1 2678.0,966.4 2688.0,972.8 2698.0,981.2 2708.0,991.6 2718.0,1003.8 2728.0,1017.7 2738.0,1033.3 2748.0,1050.3 2758.0,1068.7 2768.0,1088.1 2778.0,1108.5 2788.0,1129.5 2798.0,1150.9 2808.0,1172.5 2818.0,1194.0 2828.0,1215.1 2838.0,1235.7 2848.0,1255.3 2858.0,1273.8 2868.0,1290.9 2878.0,1306.3 2888.0,1319.9 2898.0,1331.4 2908.0,1340.7 2918.0,1347.5 2928.0,1351.8 2938.0,1353.4 2948.0,1352.3 2958.0,1348.5 2968.0,1342.0 2978.0,1332.7 2988.0,1320.9 2998.0,1306.7 3008.0,1290.2 3018.0,1271.5 3028.0,1251.1 3038.0,1229.2 3048.0,1206.0 3058.0,1181.9 3068.0,1157.3 3078.0,1132.5 3088.0,1108.0 3098.0,1084.2 3108.0,1061.4 3118.0,1040.0 3128.0,1020.5 3138.0,1003.1 3148.0,988.3 3158.0,976.3 3168.0,967.4 3178.0,961.7 3188.0,959.4 3198.0,960.7 3208.0,965.6 3218.0,974.0 3228.0,985.8 3238.0,1000.9 3248.0,1019.0 3258.0,1039.9 3268.0,1063.1 3278.0,1088.3 3288.0,1115.0 3298.0,1142.7 3308.0,1170.8 3318.0,1198.8 3328.0,1226.0 3338.0,1252.0 3348.0,1276.0 3358.0,1297.7 3368.0,1316.3 3378.0,1331.6 3388.0,1343.1 3398.0,1350.4 3408.0,1353.4 3418.0,1351.8 3428.0,1345.7 3438.0,1335.1 3448.0,1320.1 3458.0,1301.1 3468.0,1278.5 3478.0,1252.7 3488.0,1224.4 3498.0,1194.2 3508.0,1162.8 3518.0,1131.1 3528.0,1099.9 3538.0,1069.9 3548.0,1042.1 3558.0,1017.3 3568.0,996.1 3578.0,979.3 3588.0,967.3 3598.0,960.7 3608.0,959.7 3618.0,964.5 3628.0,974.9 3638.0,990.9 3648.0,1011.9 3658.0,1037.6 3668.0,1067.1 3678.0,1099.6 3688.0,1134.1 3698.0,1169.6 3708.0,1204.9 3718.0,1238.7 3728.0,1270.1 3738.0,1297.7 3748.0,1320.7 3758.0,1338.1 3768.0,1349.1 3778.0,1353.4 3788.0,1350.5 3798.0,1340.5 3808.0,1323.5 3818.0,1300.2 3828.0,1271.2 3838.0,1237.5 3848.0,1200.5 3858.0,1161.5 3868.0,1122.0 3878.0,1083.6 3888.0,1048.0 3898.0,1016.7 3908.0,991.2 3918.0,972.5 3928.0,961.8 3938.0,959.7 3948.0,966.4 3958.0,981.7 3968.0,1005.3 3978.0,1036.0 3988.0,1072.7 3998.0,1113.7 4008.0,1157.0 4018.0,1200.6 4028.0,1242.3" stroke="#000000" stroke-width="1.4" fill="none" opacity="0.47" stroke-linecap="round" stroke-linejoin="round"/>
<path d="M -384.0,226.7 C -130.6,35.5 130.6,310.7 384.0,333.2 C 637.4,238.3 898.6,394.0 1152.0,378.9 C 1405.4,303.0 1666.6,440.4 1920.0,342.1 C 2173.4,588.2 2434.6,126.6 2688.0,293.4 C 2941.4,182.5 3202.6,303.1 3456.0,216.4 C 3709.4,392.2 3970.6,69.1 4224.0,168.3" stroke="#000000" stroke-width="2.7" fill="none" opacity="0.21" stroke-linecap="round" stroke-linejoin="round"/>
<polyline points="144.7,746.3 154.7,746.4 164.7,746.7 174.7,747.3 184.7,748.0 194.7,749.0 204.7,750.2 214.7,751.6 224.7,753.2 234.7,755.0 244.7,757.0 254.7,759.1 264.7,761.5 274.7,764.0 284.7,766.6 294.7,769.4 304.7,772.3 314.7,775.4 324.7,778.5 334.7,781.8 344.7,785.1 354.7,788.5 364.7,792.0 374.7,795.5 384.7,799.1 394.7,802.6 404.7,806.2 414.7,809.7 424.7,813.2 434.7,816.7 444.7,820.1 454.7,823.4 464.7,826.7 474.7,829.8 484.7,832.8 494.7,835.7 504.7,838.4 514.7,841.0 524.7,843.4 534.7,845.6 544.7,847.6 554.7,849.4 564.7,850.9 574.7,852.2 584.7,853.3 594.7,854.1 604.7,854.6 614.7,854.9 624.7,854.8 634.7,854.5 644.7,853.9 654.7,852.9 664.7,851.6 674.7,850.1 684.7,848.2 694.7,845.9 704.7,843.4 714.7,840.5 724.7,837.3 734.7,833.7 744.7,829.9 754.7,825.7 764.7,821.2 774.7,816.4 784.7,811.3 794.7,805.9 804.7,800.1 814.7,794.2 824.7,787.9 834.7,781.4 844.7,774.6 854.7,767.5 864.7,760.3 874.7,752.8 884.7,745.1 894.7,737.3 904.7,729.2 914.7,721.1 924.7,712.7 934.7,704.3 944.7,695.8 954.7,687.1 964.7,678.5 974.7,669.7 984.7,661.0 994.7,652.2 1004.7,643.5 1014.7,634.8 1024.7,626.2 1034.7,617.6 1044.7,609.1 1054.7,600.8 1064.7,592.6 1074.7,584.6 1084.7,576.7 1094.7,569.1 1104.7,561.7 1114.7,554.5 1124.7,547.6 1134.7,541.0 1144.7,534.7 1154.7,528.7 1164.7,523.0 1174.7,517.7 1184.7,512.8 1194.7,508.3 1204.7,504.2 1214.7,500.5 1224.7,497.2 1234.7,494.4 1244.7,492.0 1254.7,490.2 1264.7,488.7 1274.7,487.8 1284.7,487.4 1294.7,487.5 1304.7,488.0 1314.7,489.1 1324.7,490.7 1334.7,492.9 1344.7,495.5 1354.7,498.7 1364.7,502.4 1374.7,506.6 1384.7,511.3 1394.7,516.6 1404.7,522.3 1414.7,528.5 1424.7,535.2 1434.7,542.4 1444.7,550.1 1454.7,558.2 1464.7,566.8 1474.7,575.8 1484.7,585.2 1494.7,595.0 1504.7,605.2 1514.7,615.8 1524.7,626.7 1534.7,638.0 1544.7,649.5 1554.7,661.3 1564.7,673.4 1574.7,685.8 1584.7,698.3 1594.7,711.1 1604.7,724.0 1614.7,737.1 1624.7,750.3 1634.7,763.5 1644.7,776.9 1654.7,790.2 1664.7,803.6 1674.7,817.0 1684.7,830.4 1694.7,843.6 1704.7,856.8 1714.7,869.8 1724.7,882.7 1734.7,895.5 1744.7,908.0 1754.7,920.3 1764.7,932.3 1774.7,944.0 1784.7,955.5 1794.7,966.6 1804.7,977.3 1814.7,987.7 1824.7,997.7 1834.7,1007.2 1844.7,1016.3 1854.7,1025.0 1864.7,1033.1 1874.7,1040.8 1884.7,1047.9 1894.7,1054.5 1904.7,1060.5 1914.7,1066.0 1924.7,1070.9 1934.7,1075.2 1944.7,1078.9 1954.7,1082.0 1964.7,1084.5 1974.7,1086.4 1984.7,1087.6 1994.7,1088.2 2004.7,1088.1 2014.7,1087.5 2024.7,1086.1 2034.7,1084.2 2044.7,1081.6 2054.7,1078.3 2064.7,1074.5 2074.7,1070.0 2084.7,1064.9 2094.7,1059.2 2104.7,1052.9 2114.7,1046.0 2124.7,1038.5 2134.7,1030.5 2144.7,1022.0 2154.7,1012.9 2164.7,1003.3 2174.7,993.2 2184.7,982.7 2194.7,971.7 2204.7,960.3 2214.7,948.4 2224.7,936.2 2234.7,923.6 2244.7,910.7 2254.7,897.5 2264.7,884.0 2274.7,870.3 2284.7,856.3 2294.7,842.1 2304.7,827.8 2314.7,813.3 2324.7,798.7 2334.7,784.0 2344.7,769.2 2354.7,754.4 2364.7,739.7 2374.7,724.9 2384.7,710.2 2394.7,695.6 2404.7,681.1 2414.7,666.8 2424.7,652.6 2434.7,638.6 2444.7,624.9 2454.7,611.4 2464.7,598.2 2474.7,585.3 2484.7,572.7 2494.7,560.5 2504.7,548.7 2514.7,537.3 2524.7,526.3 2534.7,515.7 2544.7,505.6 2554.7,496.0 2564.7,486.9 2574.7,478.3 2584.7,470.2 2594.7,462.7 2604.7,455.7 2614.7,449.3 2624.7,443.5 2634.7,438.3 2644.7,433.6 2654.7,429.6 2664.7,426.2 2674.7,423.4 2684.7,421.2 2694.7,419.7 2704.7,418.7 2714.7,418.4 2724.7,418.7 2734.7,419.6 2744.7,421.1 2754.7,423.3 2764.7,426.0 2774.7,429.3 2784.7,433.1 2794.7,437.6 2804.7,442.6 2814.7,448.1 2824.7,454.1 2834.7,460.7 2844.7,467.7 2854.7,475.3 2864.7,483.2 2874.7,491.7 2884.7,500.5 2894.7,509.8 2904.7,519.4 2914.7,529.3 2924.7,539.6 2934.7,550.2 2944.7,561.1 2954.7,572.3 2964.7,583.7 2974.7,595.3 2984.7,607.0 2994.7,619.0 3004.7,631.1 3014.7,643.2 3024.7,655.5 3034.7,667.8 3044.7,680.2 3054.7,692.5 3064.7,704.8 3074.7,717.1 3084.7,729.3 3094.7,741.5 3104.7,753.5 3114.7,765.3 3124.7,777.0 3134.7,788.5 3144.7,799.8 3154.7,810.9 3164.7,821.7 3174.7,832.2 3184.7,842.4 3194.7,852.4 3204.7,862.0 3214.7,871.2 3224.7,880.1 3234.7,888.6 3244.7,896.8 3254.7,904.5 3264.7,911.8 3274.7,918.7 3284.7,925.2 3294.7,931.2 3304.7,936.8 3314.7,941.9 3324.7,946.6 3334.7,950.8 3344.7,954.5 3354.7,957.8 3364.7,960.6 3374.7,962.9 3384.7,964.7 3394.7,966.1 3404.7,967.1 3414.7,967.6 3424.7,967.6 3434.7,967.2 3444.7,966.3 3454.7,965.0 3464.7,963.4 3474.7,961.3 3484.7,958.8 3494.7,955.9 3504.7,952.6 3514.7,949.0 3524.7,945.1 3534.7,940.8 3544.7,936.2 3554.7,931.3 3564.7,926.1 3574.7,920.7 3584.7,915.0 3594.7,909.1 3604.7,903.0 3614.7,896.7 3624.7,890.2 3634.7,883.6 3644.7,876.9 3654.7,870.0 3664.7,863.0 3674.7,856.0 3684.7,848.9 3694.7,841.7 3704.7,834.6 3714.7,827.4 3724.7,820.3 3734.7,813.2 3744.7,806.1 3754.7,799.1 3764.7,792.3 3774.7,785.5 3784.7,778.8 3794.7,772.3 3804.7,765.9 3814.7,759.6 3824.7,753.6 3834.7,747.7 3844.7,742.1 3854.7,736.6 3864.7,731.4 3874.7,726.4 3884.7,721.7 3894.7,717.2 3904.7,712.9 3914.7,708.9 3924.7,705.2 3934.7,701.7 3944.7,698.6 3954.7,695.7 3964.7,693.1 3974.7,690.7 3984.7,688.6 3994.7,686.9 4004.7,685.4 4014.7,684.1 4024.7,683.2" stroke="#000000" stroke-width="3.0" fill="none" opacity="0.65" stroke-linecap="round" stroke-linejoin="round"/>
<path d="M -384.0,1721.7 C 122.9,1630.9 645.1,1842.4 1152.0,1795.6 C 1658.9,2018.4 2181.1,1575.5 2688.0,1839.7 C 3194.9,1629.3 3717.1,1970.3 4224.0,1752.3" stroke="#000000" stroke-width="4.4" fill="none" opacity="0.35" stroke-linecap="round" stroke-linejoin="round"/>
<polyline points="-192.0,1091.1 -182.0,1104.9 -172.0,1118.7 -162.0,1132.5 -152.0,1146.2 -142.0,1159.8 -132.0,1173.3 -122.0,1186.6 -112.0,1199.7 -102.0,1212.6 -92.0,1225.2 -82.0,1237.5 -72.0,1249.4 -62.0,1261.0 -52.0,1272.2 -42.0,1283.0 -32.0,1293.3 -22.0,1303.1 -12.0,1312.3 -2.0,1321.1 8.0,1329.2 18.0,1336.7 28.0,1343.5 38.0,1349.7 48.0,1355.2 58.0,1360.0 68.0,1364.1 78.0,1367.4 88.0,1370.0 98.0,1371.8 108.0,1372.8 118.0,1373.0 128.0,1372.3 138.0,1370.9 148.0,1368.7 158.0,1365.6 168.0,1361.8 178.0,1357.1 188.0,1351.6 198.0,1345.4 208.0,1338.3 218.0,1330.5 228.0,1321.9 238.0,1312.6 248.0,1302.6 258.0,1291.9 268.0,1280.5 278.0,1268.6 288.0,1256.0 298.0,1242.8 308.0,1229.2 318.0,1215.0 328.0,1200.4 338.0,1185.5 348.0,1170.1 358.0,1154.5 368.0,1138.6 378.0,1122.4 388.0,1106.2 398.0,1089.8 408.0,1073.4 418.0,1057.0 428.0,1040.6 438.0,1024.4 448.0,1008.4 458.0,992.6 468.0,977.1 478.0,961.9 488.0,947.2 498.0,932.9 508.0,919.2 518.0,906.0 528.0,893.5 538.0,881.7 548.0,870.6 558.0,860.3 568.0,850.8 578.0,842.2 588.0,834.5 598.0,827.8 608.0,822.1 618.0,817.4 628.0,813.7 638.0,811.1 648.0,809.7 658.0,809.3 668.0,810.0 678.0,811.9 688.0,815.0 698.0,819.1 708.0,824.4 718.0,830.8 728.0,838.4 738.0,847.0 748.0,856.6 758.0,867.3 768.0,879.0 778.0,891.6 788.0,905.1 798.0,919.5 808.0,934.7 818.0,950.6 828.0,967.2 838.0,984.4 848.0,1002.1 858.0,1020.4 868.0,1038.9 878.0,1057.8 888.0,1077.0 898.0,1096.2 908.0,1115.5 918.0,1134.7 928.0,1153.8 938.0,1172.6 948.0,1191.2 958.0,1209.3 968.0,1226.9 978.0,1243.8 988.0,1260.1 998.0,1275.6 1008.0,1290.3 1018.0,1303.9 1028.0,1316.6 1038.0,1328.1 1048.0,1338.4 1058.0,1347.5 1068.0,1355.3 1078.0,1361.7 1088.0,1366.8 1098.0,1370.3 1108.0,1372.4 1118.0,1373.0 1128.0,1372.0 1138.0,1369.5 1148.0,1365.4 1158.0,1359.8 1168.0,1352.7 1178.0,1344.1 1188.0,1334.0 1198.0,1322.4 1208.0,1309.6 1218.0,1295.4 1228.0,1279.9 1238.0,1263.3 1248.0,1245.6 1258.0,1226.9 1268.0,1207.3 1278.0,1187.0 1288.0,1166.0 1298.0,1144.5 1308.0,1122.5 1318.0,1100.3 1328.0,1078.0 1338.0,1055.6 1348.0,1033.4 1358.0,1011.5 1368.0,990.0 1378.0,969.1 1388.0,948.9 1398.0,929.6 1408.0,911.3 1418.0,894.2 1428.0,878.3 1438.0,863.7 1448.0,850.7 1458.0,839.3 1468.0,829.6 1478.0,821.8 1488.0,815.7 1498.0,811.7 1508.0,809.6 1518.0,809.5 1528.0,811.5 1538.0,815.5 1548.0,821.6 1558.0,829.7 1568.0,839.8 1578.0,851.9 1588.0,865.8 1598.0,881.5 1608.0,898.8 1618.0,917.8 1628.0,938.1 1638.0,959.8 1648.0,982.6 1658.0,1006.3 1668.0,1030.8 1678.0,1055.9 1688.0,1081.4 1698.0,1107.1 1708.0,1132.7 1718.0,1158.1 1728.0,1183.1 1738.0,1207.3 1748.0,1230.6 1758.0,1252.8 1768.0,1273.7 1778.0,1293.0 1788.0,1310.7 1798.0,1326.4 1808.0,1340.1 1818.0,1351.6 1828.0,1360.7 1838.0,1367.4 1848.0,1371.5 1858.0,1373.0 1868.0,1371.8 1878.0,1368.0 1888.0,1361.4 1898.0,1352.3 1908.0,1340.5 1918.0,1326.2 1928.0,1309.6 1938.0,1290.7 1948.0,1269.6 1958.0,1246.7 1968.0,1222.1 1978.0,1196.1 1988.0,1168.8 1998.0,1140.6 2008.0,1111.8 2018.0,1082.6 2028.0,1053.4 2038.0,1024.5 2048.0,996.2 2058.0,968.8 2068.0,942.7 2078.0,918.1 2088.0,895.4 2098.0,874.8 2108.0,856.7 2118.0,841.2 2128.0,828.6 2138.0,819.0 2148.0,812.6 2158.0,809.5 2168.0,809.9 2178.0,813.7 2188.0,820.9 2198.0,831.5 2208.0,845.5 2218.0,862.6 2228.0,882.7 2238.0,905.5 2248.0,930.9 2258.0,958.5 2268.0,988.0 2278.0,1018.9 2288.0,1051.0 2298.0,1083.8 2308.0,1116.8 2318.0,1149.6 2328.0,1181.7 2338.0,1212.7 2348.0,1242.1 2358.0,1269.5 2368.0,1294.4 2378.0,1316.5 2388.0,1335.3 2398.0,1350.6 2408.0,1362.1 2418.0,1369.6 2428.0,1372.8 2438.0,1371.8 2448.0,1366.3 2458.0,1356.6 2468.0,1342.6 2478.0,1324.5 2488.0,1302.6 2498.0,1277.1 2508.0,1248.5 2518.0,1217.2 2528.0,1183.6 2538.0,1148.3 2548.0,1111.8 2558.0,1074.9 2568.0,1038.0 2578.0,1001.9 2588.0,967.2 2598.0,934.5 2608.0,904.6 2618.0,877.8 2628.0,854.9 2638.0,836.2 2648.0,822.2 2658.0,813.1 2668.0,809.4 2678.0,811.0 2688.0,818.1 2698.0,830.6 2708.0,848.2 2718.0,870.8 2728.0,898.0 2738.0,929.2 2748.0,964.0 2758.0,1001.5 2768.0,1041.1 2778.0,1081.9 2788.0,1123.1 2798.0,1163.9 2808.0,1203.2 2818.0,1240.3 2828.0,1274.3 2838.0,1304.3 2848.0,1329.6 2858.0,1349.5 2868.0,1363.6 2878.0,1371.4 2888.0,1372.6 2898.0,1367.1 2908.0,1355.0 2918.0,1336.3 2928.0,1311.5 2938.0,1281.1 2948.0,1245.8 2958.0,1206.4 2968.0,1163.8 2978.0,1119.2 2988.0,1073.5 2998.0,1028.1 3008.0,984.2 3018.0,942.9 3028.0,905.4 3038.0,872.9 3048.0,846.2 3058.0,826.3 3068.0,813.9 3078.0,809.3 3088.0,812.9 3098.0,824.6 3108.0,844.4 3118.0,871.6 3128.0,905.7 3138.0,945.6 3148.0,990.2 3158.0,1038.2 3168.0,1088.1 3178.0,1138.4 3188.0,1187.5 3198.0,1233.7 3208.0,1275.4 3218.0,1311.2 3228.0,1339.7 3238.0,1359.9 3248.0,1371.0 3258.0,1372.3 3268.0,1363.8 3278.0,1345.4 3288.0,1317.8 3298.0,1281.7 3308.0,1238.4 3318.0,1189.4 3328.0,1136.4 3338.0,1081.3 3348.0,1026.4 3358.0,973.6 3368.0,925.2 3378.0,883.1 3388.0,849.2 3398.0,825.1 3408.0,811.7 3418.0,810.0 3428.0,820.2 3438.0,842.0 3448.0,874.8 3458.0,917.2 3468.0,967.7 3478.0,1023.9 3488.0,1083.5 3498.0,1143.8 3508.0,1202.1 3518.0,1255.4 3528.0,1301.2 3538.0,1337.2 3548.0,1361.4 3558.0,1372.4 3568.0,1369.4 3578.0,1352.3 3588.0,1321.7 3598.0,1279.0 3608.0,1226.1 3618.0,1165.8 3628.0,1101.0 3638.0,1035.4 3648.0,972.4 3658.0,915.6 3668.0,868.5 3678.0,833.7 3688.0,813.7 3698.0,809.9 3708.0,822.7 3718.0,851.8 3728.0,895.6 3738.0,951.8 3748.0,1017.1 3758.0,1087.5 3768.0,1158.5 3778.0,1225.6 3788.0,1284.3 3798.0,1330.5 3808.0,1360.8 3818.0,1372.8 3828.0,1365.4 3838.0,1338.6 3848.0,1294.0 3858.0,1234.5 3868.0,1164.1 3878.0,1087.8 3888.0,1011.3 3898.0,940.3 3908.0,880.5 3918.0,836.8 3928.0,813.0 3938.0,811.4 3948.0,832.5 3958.0,875.2 3968.0,936.2 3978.0,1010.8 3988.0,1092.8 3998.0,1175.2 4008.0,1250.8 4018.0,1312.5 4028.0,1354.5" stroke="#000000" stroke-width="5.3" fill="none" opacity="0.39" stroke-linecap="round" stroke-linejoin="round"/>
<polyline points="615.1,955.1 627.1,963.8 639.1,972.5 651.1,981.1 663.1,989.6 675.1,997.9 687.1,1006.1 699.1,1014.1 711.1,1021.9 723.1,1029.5 735.1,1036.7 747.1,1043.6 759.1,1050.2 771.1,1056.5 783.1,1062.3 795.1,1067.8 807.1,1072.8 819.1,1077.3 831.1,1081.4 843.1,1085.1 855.1,1088.2 867.1,1090.8 879.1,1092.9 891.1,1094.5 903.1,1095.6 915.1,1096.1 927.1,1096.0 939.1,1095.5 951.1,1094.4 963.1,1092.8 975.1,1090.6 987.1,1088.0 999.1,1084.8 1011.1,1081.1 1023.1,1077.0 1035.1,1072.4 1047.1,1067.4 1059.1,1061.9 1071.1,1056.0 1083.1,1049.7 1095.1,1043.1 1107.1,1036.2 1119.1,1028.9 1131.1,1021.3 1143.1,1013.5 1155.1,1005.5 1167.1,997.3 1179.1,988.9 1191.1,980.4 1203.1,971.8 1215.1,963.2 1227.1,954.5 1239.1,945.8 1251.1,937.1 1263.1,928.5 1275.1,920.1 1287.1,911.7 1299.1,903.5 1311.1,895.5 1323.1,887.8 1335.1,880.3 1347.1,873.0 1359.1,866.1 1371.1,859.6 1383.1,853.3 1395.1,847.5 1407.1,842.1 1419.1,837.1 1431.1,832.6 1443.1,828.5 1455.1,825.0 1467.1,821.9 1479.1,819.3 1491.1,817.2 1503.1,815.7 1515.1,814.7 1527.1,814.2 1539.1,814.3 1551.1,814.9 1563.1,816.0 1575.1,817.7 1587.1,819.8 1599.1,822.5 1611.1,825.7 1623.1,829.4 1635.1,833.6 1647.1,838.2 1659.1,843.3 1671.1,848.8 1683.1,854.7 1695.1,861.0 1707.1,867.7 1719.1,874.7 1731.1,882.0 1743.1,889.5 1755.1,897.4 1767.1,905.4 1779.1,913.6 1791.1,922.0 1803.1,930.5 1815.1,939.1 1827.1,947.8 1839.1,956.5 1851.1,965.2 1863.1,973.8 1875.1,982.4 1887.1,990.9 1899.1,999.2 1911.1,1007.4 1923.1,1015.4 1935.1,1023.1 1947.1,1030.6 1959.1,1037.8 1971.1,1044.7 1983.1,1051.2 1995.1,1057.4 2007.1,1063.2 2019.1,1068.6 2031.1,1073.5 2043.1,1078.0 2055.1,1082.0 2067.1,1085.6 2079.1,1088.6 2091.1,1091.2 2103.1,1093.2 2115.1,1094.7 2127.1,1095.7 2139.1,1096.1 2151.1,1096.0 2163.1,1095.4 2175.1,1094.2 2187.1,1092.5 2199.1,1090.3 2211.1,1087.5 2223.1,1084.3 2235.1,1080.5 2247.1,1076.3 2259.1,1071.7 2271.1,1066.5 2283.1,1061.0 2295.1,1055.1 2307.1,1048.7 2319.1,1042.1 2331.1,1035.1 2343.1,1027.7 2355.1,1020.2 2367.1,1012.3 2379.1,1004.3 2391.1,996.0 2403.1,987.6 2415.1,979.1 2427.1,970.5 2439.1,961.8 2451.1,953.1 2463.1,944.4 2475.1,935.8 2487.1,927.2 2499.1,918.8 2511.1,910.4 2523.1,902.3 2535.1,894.3 2547.1,886.6 2559.1,879.1 2571.1,871.9 2583.1,865.1 2595.1,858.6 2607.1,852.4 2619.1,846.7 2631.1,841.3 2643.1,836.4 2655.1,831.9 2667.1,828.0 2679.1,824.4 2691.1,821.4 2703.1,818.9 2715.1,816.9 2727.1,815.5 2739.1,814.6 2751.1,814.2 2763.1,814.3 2775.1,815.0 2787.1,816.2 2799.1,818.0 2811.1,820.2 2823.1,823.0 2835.1,826.3 2847.1,830.0 2859.1,834.3 2871.1,839.0 2883.1,844.1 2895.1,849.7 2907.1,855.7 2919.1,862.0 2931.1,868.7 2943.1,875.8 2955.1,883.1 2967.1,890.7 2979.1,898.6 2991.1,906.6 3003.1,914.9 3015.1,923.3 3027.1,931.8 3039.1,940.5 3051.1,949.1 3063.1,957.8 3075.1,966.5 3087.1,975.2 3099.1,983.7 3111.1,992.2 3123.1,1000.5 3135.1,1008.6 3147.1,1016.6 3159.1,1024.3 3171.1,1031.7 3183.1,1038.9 3195.1,1045.7 3207.1,1052.2 3219.1,1058.3 3231.1,1064.0 3243.1,1069.4 3255.1,1074.2 3267.1,1078.7 3279.1,1082.6 3291.1,1086.1 3303.1,1089.1 3315.1,1091.5 3327.1,1093.5 3339.1,1094.9 3351.1,1095.8 3363.1,1096.1 3375.1,1095.9 3387.1,1095.2 3399.1,1094.0 3411.1,1092.2 3423.1,1089.9 3435.1,1087.0 3447.1,1083.7 3459.1,1079.9 3471.1,1075.6 3483.1,1070.9 3495.1,1065.7 3507.1,1060.1 3519.1,1054.1 3531.1,1047.7 3543.1,1041.0 3555.1,1033.9 3567.1,1026.6 3579.1,1019.0 3591.1,1011.1 3603.1,1003.0 3615.1,994.7 3627.1,986.3 3639.1,977.8 3651.1,969.2 3663.1,960.5 3675.1,951.8 3687.1,943.1 3699.1,934.5 3711.1,925.9 3723.1,917.5 3735.1,909.2 3747.1,901.0 3759.1,893.1 3771.1,885.4 3783.1,878.0 3795.1,870.9 3807.1,864.1 3819.1,857.6 3831.1,851.5 3843.1,845.8 3855.1,840.5 3867.1,835.7 3879.1,831.3 3891.1,827.4 3903.1,823.9 3915.1,821.0 3927.1,818.6 3939.1,816.7 3951.1,815.3 3963.1,814.5 3975.1,814.2 3987.1,814.4 3999.1,815.2 4011.1,816.4 4023.1,818.3 4035.1,820.6 4047.1,823.5 4059.1,826.8 4071.1,830.7 4083.1,835.0 4095.1,839.8 4107.1,845.0 4119.1,850.6 4131.1,856.6 4143.1,863.1 4155.1,869.8 4167.1,876.9 4179.1,884.3 4191.1,891.9 4203.1,899.8 4215.1,907.9" stroke="#000000" stroke-width="1.4" fill="none" opacity="0.42" stroke-linecap="round" stroke-linejoin="round"/>
<polyline points="-192.0,1063.3 -182.0,1072.5 -172.0,1081.8 -162.0,1091.0 -152.0,1100.1 -142.0,1109.1 -132.0,1117.9 -122.0,1126.6 -112.0,1135.1 -102.0,1143.3 -92.0,1151.2 -82.0,1158.7 -72.0,1165.9 -62.0,1172.8 -52.0,1179.2 -42.0,1185.1 -32.0,1190.6 -22.0,1195.6 -12.0,1200.0 -2.0,1203.9 8.0,1207.2 18.0,1209.9 28.0,1212.0 38.0,1213.4 48.0,1214.3 58.0,1214.4 68.0,1214.0 78.0,1212.8 88.0,1211.1 98.0,1208.6 108.0,1205.5 118.0,1201.8 128.0,1197.4 138.0,1192.4 148.0,1186.8 158.0,1180.7 168.0,1173.9 178.0,1166.7 188.0,1158.9 198.0,1150.7 208.0,1142.0 218.0,1133.0 228.0,1123.5 238.0,1113.8 248.0,1103.8 258.0,1093.5 268.0,1083.1 278.0,1072.6 288.0,1062.0 298.0,1051.3 308.0,1040.7 318.0,1030.1 328.0,1019.7 338.0,1009.5 348.0,999.5 358.0,989.8 368.0,980.5 378.0,971.6 388.0,963.1 398.0,955.2 408.0,947.7 418.0,940.9 428.0,934.7 438.0,929.2 448.0,924.4 458.0,920.4 468.0,917.1 478.0,914.6 488.0,913.0 498.0,912.2 508.0,912.2 518.0,913.1 528.0,914.9 538.0,917.5 548.0,921.0 558.0,925.3 568.0,930.4 578.0,936.4 588.0,943.1 598.0,950.6 608.0,958.7 618.0,967.5 628.0,977.0 638.0,987.0 648.0,997.5 658.0,1008.4 668.0,1019.8 678.0,1031.4 688.0,1043.3 698.0,1055.3 708.0,1067.4 718.0,1079.6 728.0,1091.7 738.0,1103.6 748.0,1115.3 758.0,1126.7 768.0,1137.7 778.0,1148.2 788.0,1158.2 798.0,1167.6 808.0,1176.3 818.0,1184.3 828.0,1191.4 838.0,1197.7 848.0,1203.0 858.0,1207.4 868.0,1210.7 878.0,1213.0 888.0,1214.3 898.0,1214.4 908.0,1213.4 918.0,1211.3 928.0,1208.1 938.0,1203.8 948.0,1198.4 958.0,1192.0 968.0,1184.6 978.0,1176.2 988.0,1166.9 998.0,1156.8 1008.0,1145.9 1018.0,1134.3 1028.0,1122.1 1038.0,1109.4 1048.0,1096.3 1058.0,1082.9 1068.0,1069.2 1078.0,1055.5 1088.0,1041.8 1098.0,1028.2 1108.0,1014.8 1118.0,1001.9 1128.0,989.4 1138.0,977.5 1148.0,966.3 1158.0,955.9 1168.0,946.4 1178.0,937.9 1188.0,930.5 1198.0,924.2 1208.0,919.2 1218.0,915.5 1228.0,913.1 1238.0,912.1 1248.0,912.5 1258.0,914.3 1268.0,917.5 1278.0,922.1 1288.0,928.1 1298.0,935.4 1308.0,944.0 1318.0,953.7 1328.0,964.6 1338.0,976.5 1348.0,989.3 1358.0,1002.9 1368.0,1017.1 1378.0,1031.9 1388.0,1047.0 1398.0,1062.4 1408.0,1077.8 1418.0,1093.2 1428.0,1108.2 1438.0,1122.9 1448.0,1137.0 1458.0,1150.3 1468.0,1162.7 1478.0,1174.1 1488.0,1184.3 1498.0,1193.2 1508.0,1200.6 1518.0,1206.6 1528.0,1210.9 1538.0,1213.5 1548.0,1214.5 1558.0,1213.6 1568.0,1211.0 1578.0,1206.6 1588.0,1200.5 1598.0,1192.8 1608.0,1183.4 1618.0,1172.6 1628.0,1160.3 1638.0,1146.8 1648.0,1132.2 1658.0,1116.7 1668.0,1100.5 1678.0,1083.7 1688.0,1066.6 1698.0,1049.3 1708.0,1032.2 1718.0,1015.5 1728.0,999.3 1738.0,983.9 1748.0,969.5 1758.0,956.3 1768.0,944.5 1778.0,934.4 1788.0,925.9 1798.0,919.4 1808.0,914.9 1818.0,912.5 1828.0,912.2 1838.0,914.1 1848.0,918.3 1858.0,924.5 1868.0,932.9 1878.0,943.2 1888.0,955.3 1898.0,969.2 1908.0,984.6 1918.0,1001.2 1928.0,1018.9 1938.0,1037.3 1948.0,1056.2 1958.0,1075.3 1968.0,1094.3 1978.0,1112.9 1988.0,1130.7 1998.0,1147.5 2008.0,1163.0 2018.0,1176.8 2028.0,1188.8 2038.0,1198.7 2048.0,1206.4 2058.0,1211.5 2068.0,1214.1 2078.0,1214.1 2088.0,1211.4 2098.0,1206.0 2108.0,1198.0 2118.0,1187.6 2128.0,1174.8 2138.0,1159.8 2148.0,1143.1 2158.0,1124.7 2168.0,1105.1 2178.0,1084.6 2188.0,1063.6 2198.0,1042.5 2208.0,1021.8 2218.0,1001.7 2228.0,982.9 2238.0,965.5 2248.0,950.1 2258.0,936.9 2268.0,926.3 2278.0,918.5 2288.0,913.7 2298.0,912.1 2308.0,913.7 2318.0,918.5 2328.0,926.6 2338.0,937.6 2348.0,951.5 2358.0,968.0 2368.0,986.7 2378.0,1007.3 2388.0,1029.2 2398.0,1052.0 2408.0,1075.2 2418.0,1098.2 2428.0,1120.4 2438.0,1141.4 2448.0,1160.6 2458.0,1177.5 2468.0,1191.6 2478.0,1202.6 2488.0,1210.1 2498.0,1214.0 2508.0,1214.0 2518.0,1210.0 2528.0,1202.3 2538.0,1190.8 2548.0,1175.9 2558.0,1157.9 2568.0,1137.2 2578.0,1114.4 2588.0,1090.1 2598.0,1064.9 2608.0,1039.6 2618.0,1014.8 2628.0,991.3 2638.0,969.8 2648.0,950.9 2658.0,935.2 2668.0,923.3 2678.0,915.5 2688.0,912.2 2698.0,913.5 2708.0,919.4 2718.0,929.9 2728.0,944.6 2738.0,963.2 2748.0,985.1 2758.0,1009.6 2768.0,1036.0 2778.0,1063.5 2788.0,1091.1 2798.0,1117.8 2808.0,1142.9 2818.0,1165.3 2828.0,1184.3 2838.0,1199.1 2848.0,1209.1 2858.0,1214.0 2868.0,1213.5 2878.0,1207.4 2888.0,1196.0 2898.0,1179.6 2908.0,1158.7 2918.0,1134.0 2928.0,1106.6 2938.0,1077.3 2948.0,1047.3 2958.0,1017.7 2968.0,989.9 2978.0,964.9 2988.0,943.8 2998.0,927.5 3008.0,916.8 3018.0,912.2 3028.0,914.1 3038.0,922.4 3048.0,936.8 3058.0,956.9 3068.0,981.9 3078.0,1010.6 3088.0,1041.9 3098.0,1074.3 3108.0,1106.4 3118.0,1136.6 3128.0,1163.5 3138.0,1185.8 3148.0,1202.2 3158.0,1211.9 3168.0,1214.3 3178.0,1209.2 3188.0,1196.7 3198.0,1177.2 3208.0,1151.8 3218.0,1121.6 3228.0,1088.2 3238.0,1053.3 3248.0,1018.7 3258.0,986.3 3268.0,958.0 3278.0,935.5 3288.0,920.0 3298.0,912.6 3308.0,913.9 3318.0,923.9 3328.0,942.2 3338.0,967.8 3348.0,999.3 3358.0,1034.9 3368.0,1072.5 3378.0,1109.7 3388.0,1144.1 3398.0,1173.6 3408.0,1196.2 3418.0,1210.1 3428.0,1214.4 3438.0,1208.6 3448.0,1193.0 3458.0,1168.3 3468.0,1136.3 3478.0,1098.9 3488.0,1058.7 3498.0,1018.7 3508.0,981.7 3518.0,950.4 3528.0,927.4 3538.0,914.5 3548.0,912.8 3558.0,922.8 3568.0,943.8 3578.0,974.3 3588.0,1012.2 3598.0,1054.4 3608.0,1097.6 3618.0,1138.3 3628.0,1172.8 3638.0,1198.3 3648.0,1212.2 3658.0,1213.3 3668.0,1201.1 3678.0,1176.5 3688.0,1141.5 3698.0,1099.1 3708.0,1053.1 3718.0,1007.8 3728.0,967.5 3738.0,936.2 3748.0,917.1 3758.0,912.3 3768.0,922.7 3778.0,947.4 3788.0,984.1 3798.0,1029.4 3808.0,1078.5 3818.0,1126.3 3828.0,1167.5 3838.0,1197.6 3848.0,1213.0 3858.0,1211.5 3868.0,1193.1 3878.0,1159.6 3888.0,1114.6 3898.0,1063.1 3908.0,1011.4 3918.0,965.6 3928.0,931.6 3938.0,913.9 3948.0,915.1 3958.0,935.4 3968.0,972.6 3978.0,1022.0 3988.0,1077.2 3998.0,1131.0 4008.0,1175.7 4018.0,1205.0 4028.0,1214.4" stroke="#000000" stroke-width="3.3" fill="none" opacity="0.63" stroke-linecap="round" stroke-linejoin="round"/>
<path d="M -384.0,1524.3 C -166.8,1326.7 57.1,1361.4 274.3,1474.5 C 491.5,1655.7 715.3,1333.7 932.6,1546.8 C 1149.8,1676.2 1373.6,1632.5 1590.9,1575.7 C 1808.1,1351.3 2031.9,1769.5 2249.1,1673.6 C 2466.4,1718.0 2690.2,1712.3 2907.4,1655.2 C 3124.7,1813.7 3348.5,1717.6 3565.7,1644.3 C 3782.9,1743.3 4006.8,1436.4 4224.0,1590.5" stroke="#000000" stroke-width="2.2" fill="none" opacity="0.60" stroke-linecap="round" stroke-linejoin="round"/>
<polyline points="-192.0,569.1 -182.0,581.0 -172.0,593.0 -162.0,604.9 -152.0,616.8 -142.0,628.7 -132.0,640.5 -122.0,652.2 -112.0,663.8 -102.0,675.2 -92.0,686.5 -82.0,697.6 -72.0,708.5 -62.0,719.2 -52.0,729.6 -42.0,739.7 -32.0,749.6 -22.0,759.1 -12.0,768.3 -2.0,777.2 8.0,785.7 18.0,793.8 28.0,801.4 38.0,808.7 48.0,815.4 58.0,821.7 68.0,827.6 78.0,832.9 88.0,837.7 98.0,842.0 108.0,845.7 118.0,848.9 128.0,851.5 138.0,853.5 148.0,854.9 158.0,855.7 168.0,856.0 178.0,855.6 188.0,854.6 198.0,852.9 208.0,850.7 218.0,847.8 228.0,844.3 238.0,840.2 248.0,835.5 258.0,830.2 268.0,824.2 278.0,817.7 288.0,810.5 298.0,802.8 308.0,794.6 318.0,785.8 328.0,776.4 338.0,766.6 348.0,756.2 358.0,745.4 368.0,734.1 378.0,722.3 388.0,710.2 398.0,697.7 408.0,684.8 418.0,671.6 428.0,658.1 438.0,644.4 448.0,630.4 458.0,616.2 468.0,601.8 478.0,587.3 488.0,572.8 498.0,558.1 508.0,543.5 518.0,528.8 528.0,514.3 538.0,499.8 548.0,485.5 558.0,471.3 568.0,457.4 578.0,443.7 588.0,430.4 598.0,417.3 608.0,404.7 618.0,392.5 628.0,380.7 638.0,369.4 648.0,358.7 658.0,348.5 668.0,339.0 678.0,330.1 688.0,321.8 698.0,314.3 708.0,307.5 718.0,301.4 728.0,296.2 738.0,291.7 748.0,288.1 758.0,285.3 768.0,283.4 778.0,282.4 788.0,282.2 798.0,283.0 808.0,284.7 818.0,287.3 828.0,290.8 838.0,295.2 848.0,300.6 858.0,306.8 868.0,313.9 878.0,321.9 888.0,330.7 898.0,340.4 908.0,350.9 918.0,362.1 928.0,374.2 938.0,386.9 948.0,400.3 958.0,414.3 968.0,429.0 978.0,444.1 988.0,459.8 998.0,476.0 1008.0,492.5 1018.0,509.3 1028.0,526.5 1038.0,543.8 1048.0,561.3 1058.0,578.9 1068.0,596.5 1078.0,614.1 1088.0,631.6 1098.0,648.9 1108.0,665.9 1118.0,682.6 1128.0,698.9 1138.0,714.8 1148.0,730.2 1158.0,744.9 1168.0,759.0 1178.0,772.3 1188.0,784.9 1198.0,796.6 1208.0,807.4 1218.0,817.3 1228.0,826.1 1238.0,833.9 1248.0,840.6 1258.0,846.1 1268.0,850.4 1278.0,853.5 1288.0,855.4 1298.0,856.0 1308.0,855.3 1318.0,853.3 1328.0,850.0 1338.0,845.4 1348.0,839.6 1358.0,832.4 1368.0,824.0 1378.0,814.4 1388.0,803.6 1398.0,791.6 1408.0,778.4 1418.0,764.3 1428.0,749.1 1438.0,733.0 1448.0,716.0 1458.0,698.2 1468.0,679.7 1478.0,660.5 1488.0,640.8 1498.0,620.7 1508.0,600.2 1518.0,579.5 1528.0,558.7 1538.0,537.8 1548.0,517.1 1558.0,496.5 1568.0,476.2 1578.0,456.4 1588.0,437.1 1598.0,418.5 1608.0,400.7 1618.0,383.7 1628.0,367.7 1638.0,352.8 1648.0,339.1 1658.0,326.7 1668.0,315.7 1678.0,306.1 1688.0,298.0 1698.0,291.6 1708.0,286.7 1718.0,283.6 1728.0,282.2 1738.0,282.6 1748.0,284.8 1758.0,288.8 1768.0,294.6 1778.0,302.1 1788.0,311.4 1798.0,322.4 1808.0,335.0 1818.0,349.3 1828.0,365.0 1838.0,382.2 1848.0,400.7 1858.0,420.5 1868.0,441.3 1878.0,463.1 1888.0,485.7 1898.0,509.0 1908.0,532.8 1918.0,557.0 1928.0,581.4 1938.0,605.7 1948.0,629.9 1958.0,653.8 1968.0,677.1 1978.0,699.7 1988.0,721.4 1998.0,742.1 2008.0,761.4 2018.0,779.4 2028.0,795.8 2038.0,810.5 2048.0,823.4 2058.0,834.3 2068.0,843.0 2078.0,849.6 2088.0,853.9 2098.0,855.8 2108.0,855.4 2118.0,852.6 2128.0,847.3 2138.0,839.6 2148.0,829.6 2158.0,817.3 2168.0,802.7 2178.0,786.0 2188.0,767.2 2198.0,746.7 2208.0,724.4 2218.0,700.6 2228.0,675.4 2238.0,649.2 2248.0,622.1 2258.0,594.4 2268.0,566.3 2278.0,538.1 2288.0,510.1 2298.0,482.6 2308.0,455.8 2318.0,430.0 2328.0,405.5 2338.0,382.5 2348.0,361.4 2358.0,342.3 2368.0,325.6 2378.0,311.3 2388.0,299.7 2398.0,290.9 2408.0,285.1 2418.0,282.4 2428.0,282.8 2438.0,286.5 2448.0,293.3 2458.0,303.2 2468.0,316.3 2478.0,332.4 2488.0,351.2 2498.0,372.7 2508.0,396.7 2518.0,422.8 2528.0,450.8 2538.0,480.4 2548.0,511.2 2558.0,542.9 2568.0,575.1 2578.0,607.3 2588.0,639.2 2598.0,670.3 2608.0,700.3 2618.0,728.7 2628.0,755.0 2638.0,779.1 2648.0,800.4 2658.0,818.6 2668.0,833.5 2678.0,844.8 2688.0,852.2 2698.0,855.7 2708.0,855.1 2718.0,850.3 2728.0,841.5 2738.0,828.5 2748.0,811.6 2758.0,791.0 2768.0,767.0 2778.0,739.7 2788.0,709.7 2798.0,677.4 2808.0,643.2 2818.0,607.6 2828.0,571.2 2838.0,534.7 2848.0,498.5 2858.0,463.3 2868.0,429.7 2878.0,398.2 2888.0,369.6 2898.0,344.2 2908.0,322.7 2918.0,305.4 2928.0,292.7 2938.0,284.9 2948.0,282.2 2958.0,284.8 2968.0,292.6 2978.0,305.7 2988.0,323.9 2998.0,346.8 3008.0,374.1 3018.0,405.4 3028.0,440.1 3038.0,477.6 3048.0,517.1 3058.0,557.8 3068.0,599.0 3078.0,639.8 3088.0,679.3 3098.0,716.7 3108.0,751.1 3118.0,781.8 3128.0,807.9 3138.0,828.9 3148.0,844.2 3158.0,853.3 3168.0,855.9 3178.0,852.0 3188.0,841.3 3198.0,824.2 3208.0,800.9 3218.0,771.8 3228.0,737.7 3238.0,699.1 3248.0,657.1 3258.0,612.7 3268.0,566.9 3278.0,520.8 3288.0,475.8 3298.0,433.0 3308.0,393.6 3318.0,358.8 3328.0,329.4 3338.0,306.6 3348.0,290.9 3358.0,283.1 3368.0,283.4 3378.0,291.9 3388.0,308.6 3398.0,333.1 3408.0,364.9 3418.0,403.0 3428.0,446.4 3438.0,493.9 3448.0,544.0 3458.0,595.2 3468.0,645.9 3478.0,694.4 3488.0,739.0 3498.0,778.2 3508.0,810.6 3518.0,835.0 3528.0,850.3 3538.0,855.9 3548.0,851.4 3558.0,836.8 3568.0,812.4 3578.0,778.9 3588.0,737.4 3598.0,689.3 3608.0,636.4 3618.0,580.5 3628.0,523.9 3638.0,468.7 3648.0,417.2 3658.0,371.5 3668.0,333.6 3678.0,305.2 3688.0,287.8 3698.0,282.2 3708.0,288.9 3718.0,307.9 3728.0,338.6 3738.0,379.8 3748.0,429.8 3758.0,486.5 3768.0,547.5 3778.0,609.8 3788.0,670.6 3798.0,726.9 3808.0,775.8 3818.0,814.8 3828.0,841.6 3838.0,854.8 3848.0,853.3 3858.0,836.8 3868.0,806.1 3878.0,762.5 3888.0,708.0 3898.0,645.4 3908.0,578.2 3918.0,510.0 3928.0,444.8 3938.0,386.3 3948.0,338.3 3958.0,303.8 3968.0,285.1 3978.0,283.8 3988.0,300.3 3998.0,333.9 4008.0,382.9 4018.0,444.3 4028.0,514.4" stroke="#000000" stroke-width="0.6" fill="none" opacity="0.71" stroke-linecap="round" stroke-linejoin="round"/>
<polyline points="-124.2,1363.9 -112.2,1416.3 -100.2,1466.9 -88.2,1513.7 -76.2,1555.0 -64.2,1589.4 -52.2,1615.6 -40.2,1632.7 -28.2,1640.0 -16.2,1637.2 -4.2,1624.5 7.8,1602.3 19.8,1571.5 31.8,1533.1 43.8,1488.6 55.8,1439.5 67.8,1387.7 79.8,1335.0 91.8,1283.3 103.8,1234.6 115.8,1190.6 127.8,1152.9 139.8,1122.8 151.8,1101.5 163.8,1089.8 175.8,1088.0 187.8,1096.2 199.8,1114.2 211.8,1141.3 223.8,1176.4 235.8,1218.4 247.8,1265.6 259.8,1316.4 271.8,1369.0 283.8,1421.3 295.8,1471.6 307.8,1517.9 319.8,1558.7 331.8,1592.3 343.8,1617.7 355.8,1633.8 367.8,1640.1 379.8,1636.4 391.8,1622.8 403.8,1599.7 415.8,1568.1 427.8,1529.0 439.8,1484.0 451.8,1434.6 463.8,1382.6 475.8,1329.9 487.8,1278.5 499.8,1230.1 511.8,1186.6 523.8,1149.6 535.8,1120.4 547.8,1100.0 559.8,1089.2 571.8,1088.4 583.8,1097.6 595.8,1116.4 607.8,1144.3 619.8,1180.2 631.8,1222.7 643.8,1270.4 655.8,1321.5 667.8,1374.1 679.8,1426.3 691.8,1476.3 703.8,1522.1 715.8,1562.3 727.8,1595.2 739.8,1619.7 751.8,1634.9 763.8,1640.2 775.8,1635.5 787.8,1620.9 799.8,1597.0 811.8,1564.6 823.8,1524.9 835.8,1479.4 847.8,1429.6 859.8,1377.5 871.8,1324.8 883.8,1273.6 895.8,1225.7 907.8,1182.8 919.8,1146.4 931.8,1118.0 943.8,1098.5 955.8,1088.7 967.8,1088.8 979.8,1099.0 991.8,1118.8 1003.8,1147.5 1015.8,1184.0 1027.8,1227.1 1039.8,1275.2 1051.8,1326.5 1063.8,1379.2 1075.8,1431.3 1087.8,1480.9 1099.8,1526.3 1111.8,1565.8 1123.8,1597.9 1135.8,1621.6 1147.8,1635.8 1159.8,1640.2 1171.8,1634.5 1183.8,1619.0 1195.8,1594.2 1207.8,1561.1 1219.8,1520.8 1231.8,1474.7 1243.8,1424.6 1255.8,1372.4 1267.8,1319.8 1279.8,1268.8 1291.8,1221.3 1303.8,1178.9 1315.8,1143.3 1327.8,1115.7 1339.8,1097.1 1351.8,1088.2 1363.8,1089.4 1375.8,1100.5 1387.8,1121.2 1399.8,1150.7 1411.8,1187.9 1423.8,1231.6 1435.8,1280.1 1447.8,1331.6 1459.8,1384.3 1471.8,1436.2 1483.8,1485.5 1495.8,1530.4 1507.8,1569.2 1519.8,1600.6 1531.8,1623.4 1543.8,1636.7 1555.8,1640.1 1567.8,1633.5 1579.8,1617.0 1591.8,1591.4 1603.8,1557.5 1615.8,1516.5 1627.8,1470.0 1639.8,1419.7 1651.8,1367.3 1663.8,1314.8 1675.8,1264.0 1687.8,1216.9 1699.8,1175.2 1711.8,1140.3 1723.8,1113.5 1735.8,1095.8 1747.8,1087.9 1759.8,1090.0 1771.8,1102.1 1783.8,1123.7 1795.8,1154.0 1807.8,1191.9 1819.8,1236.1 1831.8,1284.9 1843.8,1336.6 1855.8,1389.3 1867.8,1441.1 1879.8,1490.1 1891.8,1534.4 1903.8,1572.6 1915.8,1603.2 1927.8,1625.1 1939.8,1637.5 1951.8,1639.9 1963.8,1632.3 1975.8,1614.9 1987.8,1588.5 1999.8,1553.8 2011.8,1512.2 2023.8,1465.3 2035.8,1414.6 2047.8,1362.2 2059.8,1309.7 2071.8,1259.3 2083.8,1212.6 2095.8,1171.5 2107.8,1137.3 2119.8,1111.4 2131.8,1094.6 2143.8,1087.7 2155.8,1090.7 2167.8,1103.8 2179.8,1126.2 2191.8,1157.3 2203.8,1195.9 2215.8,1240.7 2227.8,1289.8 2239.8,1341.7 2251.8,1394.4 2263.8,1446.0 2275.8,1494.6 2287.8,1538.4 2299.8,1575.9 2311.8,1605.7 2323.8,1626.7 2335.8,1638.1 2347.8,1639.6 2359.8,1631.0 2371.8,1612.8 2383.8,1585.4 2395.8,1550.1 2407.8,1507.9 2419.8,1460.5 2431.8,1409.6 2443.8,1357.1 2455.8,1304.7 2467.8,1254.6 2479.8,1208.4 2491.8,1167.8 2503.8,1134.4 2515.8,1109.3 2527.8,1093.5 2539.8,1087.5 2551.8,1091.6 2563.8,1105.5 2575.8,1128.9 2587.8,1160.7 2599.8,1200.0 2611.8,1245.2 2623.8,1294.8 2635.8,1346.8 2647.8,1399.5 2659.8,1450.9 2671.8,1499.1 2683.8,1542.4 2695.8,1579.2 2707.8,1608.1 2719.8,1628.2 2731.8,1638.7 2743.8,1639.2 2755.8,1629.7 2767.8,1610.5 2779.8,1582.3 2791.8,1546.3 2803.8,1503.5 2815.8,1455.7 2827.8,1404.6 2839.8,1352.0 2851.8,1299.8 2863.8,1249.9 2875.8,1204.2 2887.8,1164.3 2899.8,1131.6 2911.8,1107.4 2923.8,1092.5 2935.8,1087.5 2947.8,1092.5 2959.8,1107.4 2971.8,1131.6 2983.8,1164.2 2995.8,1204.2 3007.8,1249.9 3019.8,1299.7 3031.8,1351.9 3043.8,1404.5 3055.8,1455.7 3067.8,1503.5 3079.8,1546.2 3091.8,1582.3 3103.8,1610.5 3115.8,1629.7 3127.8,1639.2 3139.8,1638.7 3151.8,1628.2 3163.8,1608.2 3175.8,1579.2 3187.8,1542.4 3199.8,1499.1 3211.8,1450.9 3223.8,1399.5 3235.8,1346.9 3247.8,1294.8 3259.8,1245.3 3271.8,1200.0 3283.8,1160.8 3295.8,1128.9 3307.8,1105.5 3319.8,1091.6 3331.8,1087.5 3343.8,1093.5 3355.8,1109.3 3367.8,1134.4 3379.8,1167.8 3391.8,1208.4 3403.8,1254.5 3415.8,1304.7 3427.8,1357.0 3439.8,1409.6 3451.8,1460.5 3463.8,1507.9 3475.8,1550.0 3487.8,1585.4 3499.8,1612.7 3511.8,1631.0 3523.8,1639.6 3535.8,1638.1 3547.8,1626.7 3559.8,1605.7 3571.8,1575.9 3583.8,1538.5 3595.8,1494.6 3607.8,1446.0 3619.8,1394.5 3631.8,1341.8 3643.8,1289.9 3655.8,1240.7 3667.8,1196.0 3679.8,1157.3 3691.8,1126.2 3703.8,1103.8 3715.8,1090.8 3727.8,1087.7 3739.8,1094.6 3751.8,1111.4 3763.8,1137.3 3775.8,1171.4 3787.8,1212.6 3799.8,1259.2 3811.8,1309.7 3823.8,1362.1 3835.8,1414.6 3847.8,1465.3 3859.8,1512.2 3871.8,1553.8 3883.8,1588.4 3895.8,1614.9 3907.8,1632.3 3919.8,1639.9 3931.8,1637.5 3943.8,1625.1 3955.8,1603.2 3967.8,1572.6 3979.8,1534.5 3991.8,1490.1 4003.8,1441.1 4015.8,1389.4 4027.8,1336.7 4039.8,1285.0 4051.8,1236.1 4063.8,1191.9 4075.8,1154.0 4087.8,1123.7 4099.8,1102.1 4111.8,1090.0 4123.8,1087.9 4135.8,1095.8 4147.8,1113.5 4159.8,1140.2 4171.8,1175.1 4183.8,1216.9 4195.8,1264.0 4207.8,1314.7 4219.8,1367.2" stroke="#000000" stroke-width="1.0" fill="none" opacity="0.19" stroke-linecap="round" stroke-linejoin="round"/>
<polyline points="-14.6,402.9 -2.6,423.1 9.4,443.0 21.4,462.6 33.4,481.7 45.4,500.1 57.4,517.7 69.4,534.3 81.4,549.8 93.4,564.0 105.4,576.8 117.4,588.2 129.4,597.9 141.4,606.0 153.4,612.4 165.4,616.9 177.4,619.6 189.4,620.5 201.4,619.5 213.4,616.6 225.4,611.9 237.4,605.5 249.4,597.2 261.4,587.4 273.4,575.9 285.4,562.9 297.4,548.6 309.4,533.1 321.4,516.4 333.4,498.7 345.4,480.3 357.4,461.1 369.4,441.5 381.4,421.5 393.4,401.4 405.4,381.3 417.4,361.4 429.4,341.8 441.4,322.7 453.4,304.4 465.4,286.9 477.4,270.4 489.4,255.0 501.4,240.9 513.4,228.1 525.4,216.9 537.4,207.3 549.4,199.3 561.4,193.1 573.4,188.7 585.4,186.1 597.4,185.4 609.4,186.5 621.4,189.5 633.4,194.4 645.4,201.0 657.4,209.3 669.4,219.3 681.4,230.9 693.4,244.0 705.4,258.4 717.4,274.1 729.4,290.8 741.4,308.5 753.4,327.1 765.4,346.2 777.4,365.9 789.4,385.9 801.4,406.0 813.4,426.1 825.4,446.0 837.4,465.6 849.4,484.6 861.4,502.9 873.4,520.3 885.4,536.7 897.4,552.0 909.4,566.0 921.4,578.7 933.4,589.8 945.4,599.3 957.4,607.1 969.4,613.2 981.4,617.4 993.4,619.9 1005.4,620.5 1017.4,619.2 1029.4,616.0 1041.4,611.1 1053.4,604.3 1065.4,595.8 1077.4,585.7 1089.4,574.0 1101.4,560.8 1113.4,546.3 1125.4,530.6 1137.4,513.7 1149.4,495.9 1161.4,477.4 1173.4,458.1 1185.4,438.4 1197.4,418.4 1209.4,398.3 1221.4,378.2 1233.4,358.3 1245.4,338.8 1257.4,319.9 1269.4,301.6 1281.4,284.3 1293.4,267.9 1305.4,252.7 1317.4,238.8 1329.4,226.3 1341.4,215.3 1353.4,205.9 1365.4,198.2 1377.4,192.3 1389.4,188.2 1401.4,185.9 1413.4,185.5 1425.4,186.9 1437.4,190.2 1449.4,195.3 1461.4,202.2 1473.4,210.8 1485.4,221.0 1497.4,232.8 1509.4,246.1 1521.4,260.7 1533.4,276.6 1545.4,293.5 1557.4,311.3 1569.4,330.0 1581.4,349.2 1593.4,369.0 1605.4,389.0 1617.4,409.1 1629.4,429.2 1641.4,449.1 1653.4,468.5 1665.4,487.4 1677.4,505.6 1689.4,522.9 1701.4,539.2 1713.4,554.3 1725.4,568.1 1737.4,580.5 1749.4,591.3 1761.4,600.6 1773.4,608.1 1785.4,613.9 1797.4,617.9 1809.4,620.1 1821.4,620.4 1833.4,618.8 1845.4,615.4 1857.4,610.1 1869.4,603.1 1881.4,594.4 1893.4,584.0 1905.4,572.1 1917.4,558.7 1929.4,544.0 1941.4,528.1 1953.4,511.1 1965.4,493.1 1977.4,474.5 1989.4,455.1 2001.4,435.4 2013.4,415.4 2025.4,395.2 2037.4,375.1 2049.4,355.3 2061.4,335.9 2073.4,317.0 2085.4,298.9 2097.4,281.7 2109.4,265.5 2121.4,250.5 2133.4,236.8 2145.4,224.5 2157.4,213.8 2169.4,204.6 2181.4,197.2 2193.4,191.6 2205.4,187.7 2217.4,185.7 2229.4,185.5 2241.4,187.3 2253.4,190.8 2265.4,196.2 2277.4,203.4 2289.4,212.2 2301.4,222.7 2313.4,234.8 2325.4,248.3 2337.4,263.1 2349.4,279.1 2361.4,296.2 2373.4,314.1 2385.4,332.9 2397.4,352.2 2409.4,372.0 2421.4,392.1 2433.4,412.2 2445.4,432.3 2457.4,452.1 2469.4,471.5 2481.4,490.3 2493.4,508.3 2505.4,525.5 2517.4,541.6 2529.4,556.5 2541.4,570.1 2553.4,582.2 2565.4,592.9 2577.4,601.9 2589.4,609.2 2601.4,614.7 2613.4,618.4 2625.4,620.3 2637.4,620.3 2649.4,618.4 2661.4,614.7 2673.4,609.2 2685.4,601.9 2697.4,592.9 2709.4,582.3 2721.4,570.1 2733.4,556.5 2745.4,541.6 2757.4,525.5 2769.4,508.4 2781.4,490.3 2793.4,471.5 2805.4,452.1 2817.4,432.3 2829.4,412.3 2841.4,392.1 2853.4,372.1 2865.4,352.3 2877.4,333.0 2889.4,314.2 2901.4,296.2 2913.4,279.1 2925.4,263.1 2937.4,248.3 2949.4,234.8 2961.4,222.8 2973.4,212.3 2985.4,203.4 2997.4,196.2 3009.4,190.8 3021.4,187.3 3033.4,185.6 3045.4,185.7 3057.4,187.7 3069.4,191.5 3081.4,197.2 3093.4,204.6 3105.4,213.7 3117.4,224.5 3129.4,236.8 3141.4,250.4 3153.4,265.5 3165.4,281.6 3177.4,298.9 3189.4,317.0 3201.4,335.8 3213.4,355.2 3225.4,375.1 3237.4,395.1 3249.4,415.3 3261.4,435.3 3273.4,455.1 3285.4,474.4 3297.4,493.1 3309.4,511.0 3321.4,528.0 3333.4,543.9 3345.4,558.6 3357.4,572.0 3369.4,584.0 3381.4,594.3 3393.4,603.1 3405.4,610.1 3417.4,615.4 3429.4,618.8 3441.4,620.4 3453.4,620.1 3465.4,618.0 3477.4,614.0 3489.4,608.2 3501.4,600.6 3513.4,591.4 3525.4,580.5 3537.4,568.1 3549.4,554.3 3561.4,539.2 3573.4,523.0 3585.4,505.7 3597.4,487.5 3609.4,468.6 3621.4,449.1 3633.4,429.3 3645.4,409.2 3657.4,389.0 3669.4,369.0 3681.4,349.3 3693.4,330.0 3705.4,311.4 3717.4,293.5 3729.4,276.6 3741.4,260.8 3753.4,246.2 3765.4,232.9 3777.4,221.1 3789.4,210.8 3801.4,202.2 3813.4,195.3 3825.4,190.2 3837.4,186.9 3849.4,185.5 3861.4,185.9 3873.4,188.2 3885.4,192.3 3897.4,198.2 3909.4,205.9 3921.4,215.3 3933.4,226.3 3945.4,238.8 3957.4,252.7 3969.4,267.9 3981.4,284.2 3993.4,301.6 4005.4,319.8 4017.4,338.8 4029.4,358.3 4041.4,378.1 4053.4,398.2 4065.4,418.4 4077.4,438.4 4089.4,458.1 4101.4,477.3 4113.4,495.9 4125.4,513.7 4137.4,530.5 4149.4,546.3 4161.4,560.8 4173.4,574.0 4185.4,585.7 4197.4,595.8 4209.4,604.3 4221.4,611.0" stroke="#000000" stroke-width="2.9" fill="none" opacity="0.25" stroke-linecap="round" stroke-linejoin="round"/>
<polyline points="447.4,300.9 459.4,319.8 471.4,338.2 483.4,355.6 495.4,371.7 507.4,386.0 519.4,398.2 531.4,407.9 543.4,415.0 555.4,419.2 567.4,420.5 579.4,418.7 591.4,414.1 603.4,406.6 615.4,396.4 627.4,383.9 639.4,369.3 651.4,353.0 663.4,335.4 675.4,316.9 687.4,298.0 699.4,279.2 711.4,261.0 723.4,243.7 735.4,227.9 747.4,213.9 759.4,202.1 771.4,192.7 783.4,186.1 795.4,182.3 807.4,181.5 819.4,183.7 831.4,188.8 843.4,196.7 855.4,207.3 867.4,220.1 879.4,235.0 891.4,251.6 903.4,269.3 915.4,287.9 927.4,306.8 939.4,325.6 951.4,343.7 963.4,360.7 975.4,376.3 987.4,390.0 999.4,401.4 1011.4,410.4 1023.4,416.6 1035.4,419.9 1047.4,420.2 1059.4,417.6 1071.4,412.0 1083.4,403.7 1095.4,392.8 1107.4,379.6 1119.4,364.4 1131.4,347.6 1143.4,329.7 1155.4,311.1 1167.4,292.2 1179.4,273.5 1191.4,255.5 1203.4,238.6 1215.4,223.3 1227.4,210.0 1239.4,198.9 1251.4,190.4 1263.4,184.6 1275.4,181.7 1287.4,181.9 1299.4,185.0 1311.4,191.0 1323.4,199.7 1335.4,211.0 1347.4,224.6 1359.4,240.0 1371.4,257.0 1383.4,275.0 1395.4,293.8 1407.4,312.7 1419.4,331.3 1431.4,349.1 1443.4,365.8 1455.4,380.8 1467.4,393.8 1479.4,404.5 1491.4,412.6 1503.4,417.9 1515.4,420.3 1527.4,419.7 1539.4,416.2 1551.4,409.7 1563.4,400.6 1575.4,388.9 1587.4,375.1 1599.4,359.4 1611.4,342.2 1623.4,324.0 1635.4,305.2 1647.4,286.3 1659.4,267.8 1671.4,250.1 1683.4,233.7 1695.4,219.0 1707.4,206.3 1719.4,196.0 1731.4,188.3 1743.4,183.4 1755.4,181.5 1767.4,182.5 1779.4,186.5 1791.4,193.4 1803.4,203.0 1815.4,215.0 1827.4,229.2 1839.4,245.1 1851.4,262.5 1863.4,280.8 1875.4,299.6 1887.4,318.5 1899.4,336.9 1911.4,354.4 1923.4,370.6 1935.4,385.0 1947.4,397.4 1959.4,407.3 1971.4,414.6 1983.4,419.0 1995.4,420.5 2007.4,419.0 2019.4,414.5 2031.4,407.2 2043.4,397.2 2055.4,384.8 2067.4,370.4 2079.4,354.2 2091.4,336.6 2103.4,318.2 2115.4,299.3 2127.4,280.5 2139.4,262.2 2151.4,244.9 2163.4,228.9 2175.4,214.8 2187.4,202.8 2199.4,193.3 2211.4,186.4 2223.4,182.5 2235.4,181.5 2247.4,183.4 2259.4,188.4 2271.4,196.1 2283.4,206.4 2295.4,219.2 2307.4,233.9 2319.4,250.4 2331.4,268.1 2343.4,286.6 2355.4,305.5 2367.4,324.3 2379.4,342.4 2391.4,359.6 2403.4,375.3 2415.4,389.1 2427.4,400.7 2439.4,409.9 2451.4,416.3 2463.4,419.8 2475.4,420.3 2487.4,417.9 2499.4,412.5 2511.4,404.4 2523.4,393.6 2535.4,380.6 2547.4,365.5 2559.4,348.9 2571.4,331.0 2583.4,312.4 2595.4,293.5 2607.4,274.8 2619.4,256.7 2631.4,239.8 2643.4,224.3 2655.4,210.8 2667.4,199.6 2679.4,190.9 2691.4,184.9 2703.4,181.8 2715.4,181.8 2727.4,184.7 2739.4,190.5 2751.4,199.0 2763.4,210.1 2775.4,223.5 2787.4,238.9 2799.4,255.7 2811.4,273.7 2823.4,292.4 2835.4,311.3 2847.4,330.0 2859.4,347.9 2871.4,364.6 2883.4,379.8 2895.4,393.0 2907.4,403.8 2919.4,412.1 2931.4,417.7 2943.4,420.3 2955.4,419.9 2967.4,416.5 2979.4,410.3 2991.4,401.3 3003.4,389.8 3015.4,376.1 3027.4,360.5 3039.4,343.4 3051.4,325.3 3063.4,306.5 3075.4,287.6 3087.4,269.1 3099.4,251.3 3111.4,234.8 3123.4,219.9 3135.4,207.1 3147.4,196.6 3159.4,188.7 3171.4,183.6 3183.4,181.5 3195.4,182.3 3207.4,186.1 3219.4,192.8 3231.4,202.2 3243.4,214.1 3255.4,228.1 3267.4,243.9 3279.4,261.2 3291.4,279.5 3303.4,298.3 3315.4,317.2 3327.4,335.6 3339.4,353.2 3351.4,369.5 3363.4,384.1 3375.4,396.6 3387.4,406.7 3399.4,414.2 3411.4,418.8 3423.4,420.5 3435.4,419.2 3447.4,414.9 3459.4,407.8 3471.4,398.0 3483.4,385.8 3495.4,371.4 3507.4,355.4 3519.4,337.9 3531.4,319.5 3543.4,300.7 3555.4,281.8 3567.4,263.5 3579.4,246.0 3591.4,230.0 3603.4,215.7 3615.4,203.6 3627.4,193.9 3639.4,186.8 3651.4,182.7 3663.4,181.4 3675.4,183.2 3687.4,187.9 3699.4,195.5 3711.4,205.6 3723.4,218.2 3735.4,232.8 3747.4,249.2 3759.4,266.8 3771.4,285.3 3783.4,304.2 3795.4,322.9 3807.4,341.2 3819.4,358.4 3831.4,374.2 3843.4,388.2 3855.4,400.0 3867.4,409.3 3879.4,415.9 3891.4,419.6 3903.4,420.4 3915.4,418.1 3927.4,413.0 3939.4,405.0 3951.4,394.5 3963.4,381.6 3975.4,366.6 3987.4,350.1 3999.4,332.3 4011.4,313.7 4023.4,294.8 4035.4,276.1 4047.4,257.9 4059.4,240.9 4071.4,225.4 4083.4,211.7 4095.4,200.3 4107.4,191.4 4119.4,185.2 4131.4,182.0 4143.4,181.7 4155.4,184.4 4167.4,190.0 4179.4,198.3 4191.4,209.3 4203.4,222.5 4215.4,237.7" stroke="#000000" stroke-width="4.4" fill="none" opacity="0.19" stroke-linecap="round" stroke-linejoin="round"/>
<path d="M -384.0,233.1 C -79.9,250.8 233.5,428.9 537.6,273.9 C 841.7,502.5 1155.1,494.5 1459.2,175.4 C 1763.3,65.7 2076.7,311.8 2380.8,227.0 C 2684.9,435.8 2998.3,222.7 3302.4,130.5 C 3606.5,318.5 3919.9,267.3 4224.0,87.2" stroke="#000000" stroke-width="5.8" fill="none" opacity="0.35" stroke-linecap="round" stroke-linejoin="round"/>
</svg>